<?xml version="1.0" encoding="utf-8"?>
<!-- Generator: Adobe Illustrator 19.0.0, SVG Export Plug-In . SVG Version: 6.00 Build 0)  -->
<svg version="1.1" id="Layer_1" xmlns="http://www.w3.org/2000/svg" xmlns:xlink="http://www.w3.org/1999/xlink" x="0px" y="0px"
	 viewBox="67.70001220703125,194.3000030517578,364.8999938964844,111.40003967285156 " style="enable-background:new 0 0 500 500;" xml:space="preserve">
<style type="text/css">
	.st0{fill:#65C99C;}
	.st1{fill:#E7D94C;}
	.st2{fill:#397FC4;}
	.st3{fill:#6C6D70;}
</style>
<g id="XMLID_1_">
	<path id="XMLID_8_" class="st0" d="M256.2,292.7c-20.1,0-36.8-14.7-40-34c2.9-17.9,17.6-31.9,35.9-33.8
		c-17.8,8-27.7,27.9-22.5,47.4C232.9,284.3,243.8,292.7,256.2,292.7"/>
	<path id="XMLID_16_" class="st1" d="M252.1,224.9c1.3-0.1,2.7-0.2,4.1-0.2c4.2,0,8.4,0.7,12.4,1.9c-2.5,7.1-6,11.6-9.5,11.2
		c-1-0.1-1.9-0.1-2.9-0.1c-15.2,0-27.5,12.3-27.5,27.5c0,2.1,0.2,4.2,0.7,6.1C224.8,252.2,234.6,232.8,252.1,224.9"/>
	<path id="XMLID_17_" class="st2" d="M274.6,244.8c-2.6-2.3-1.6-8,2-14.6c12.4,7.3,20.1,20.6,20.1,35c0,22.4-18.1,40.5-40.5,40.5
		c-22.4,0-40.5-18.1-40.5-40.5c0-2.2,0.2-4.4,0.5-6.5c3.1,19.3,19.8,34,39.9,34c15.2,0,27.5-12.3,27.5-27.5
		C283.7,257.4,280.4,250,274.6,244.8"/>
	<path id="XMLID_18_" class="st3" d="M337,239.4c-1.8-1.1-4-1.7-6.3-1.7c-6.9,0-12.6,5.6-12.6,12.6v51.3h-13v-51.3
		c0-14.1,11.4-25.6,25.6-25.6c4.7,0,9,1.2,12.8,3.4L337,239.4z"/>
	<path id="XMLID_19_" class="st3" d="M387.9,233.2c4.7-5.2,11.5-8.5,19.1-8.5c14.1,0,25.6,11.4,25.6,25.6v51.3h-13v-51.3
		c0-6.9-5.6-12.6-12.6-12.6c-6.9,0-12.6,5.6-12.6,12.6v51.3h-13v-51.3c0-6.9-5.6-12.6-12.6-12.6c-6.9,0-12.6,5.6-12.6,12.6v51.3h-13
		v-51.3c0-14.1,11.4-25.6,25.6-25.6C376.4,224.7,383.2,228,387.9,233.2"/>
	<path id="XMLID_20_" class="st3" d="M223.9,209c-1.8-1.1-4-1.7-6.3-1.7c-6.9,0-12.6,5.6-12.6,12.6v6.5h13.7l-5.8,13h-7.9v62.2h-13
		v-81.7c0-14.1,11.4-25.6,25.6-25.6c4.7,0,9,1.2,12.8,3.4l-5.3,11.9L223.9,209z"/>
	<path id="XMLID_23_" class="st3" d="M93.9,224.7c-9.3,0-17.4,4.3-22.1,10.8l10,8.1l1.4-1.5c2.4-2.6,6.4-4.3,10.8-4.3
		c7.4,0,13.4,4.7,13.4,10.6l0,4.8l-19.5,5.2c-12.6,3.4-20.2,12.8-20.2,23.7c0,13,11.8,23.6,26.4,23.6c14.6,0,26.4-10.5,26.4-23.6
		l0-33.8C120.2,235.3,108.4,224.7,93.9,224.7z M107.2,282.1c0,5.8-6,10.6-13.4,10.6c-7.4,0-13.4-4.7-13.4-10.6
		c0-5,4.6-9.5,10.5-11.1l16.2-4.4L107.2,282.1z"/>
	<path id="XMLID_26_" class="st3" d="M168,198v30c-3-2.1-8.1-3.3-13-3.3c-14.6,0-26,10.6-26,23.6v33.8c0,13,11.4,23.6,26,23.6
		s26-10.5,26-23.6V198H168z M168,282.1c0,5.8-5.6,10.6-13,10.6c-7.4,0-13-4.7-13-10.6v-33.8c0-5.8,5.6-10.6,13-10.6
		c7.4,0,13,4.7,13,10.6V282.1z"/>
</g>
</svg>
