<?xml version="1.0" encoding="utf-8"?>
<!-- Generator: Adobe Illustrator 23.0.1, SVG Export Plug-In . SVG Version: 6.00 Build 0)  -->
<svg version="1.1" id="Layer_1" xmlns="http://www.w3.org/2000/svg" xmlns:xlink="http://www.w3.org/1999/xlink" x="0px" y="0px"
	 viewBox="38,37.400001525878906,421,76.4000015258789 " style="enable-background:new 0 0 495 151;" xml:space="preserve">
<style type="text/css">
	.st0{fill:#0C426A;}
</style>
<g>
	<g>
		<g>
			<path class="st0" d="M138.3,59.7l0,21.9c0,0.2-0.1,0.3-0.3,0.4c-0.2,0.1-0.3,0-0.4-0.2L123,60.5c-1.7-2.6-3.7-3.1-6.8-3.1h-1.1
				v33.2c0,1.9,1,2.9,3,2.9h2.8l0-24.2c0-0.2,0.1-0.3,0.3-0.4c0.2,0,0.3,0,0.4,0.1L134,86.6l2.4,3.6c1.1,1.6,3.4,3.3,5.1,3.3l2.6,0
				l0-36l-2.8,0C139.8,57.5,138.7,58.3,138.3,59.7z"/>
			<path class="st0" d="M206.7,89.7c-0.4-0.7-1.2-1.2-2.1-1.3l-12.8,0c-0.2,0-0.4-0.2-0.4-0.4l0-9.5c0-0.2,0.2-0.4,0.4-0.4l12.2,0
				l0-2.8c0-0.5-0.3-1-0.7-1.5c-0.5-0.5-1.1-0.8-1.7-0.8h-9.9c-0.2,0-0.4-0.2-0.4-0.4v-9.7c0-0.2,0.2-0.4,0.4-0.4l12.6,0
				c1.5,0,2.5-1.4,2.5-2.3v-2.8h-21.3l0,36l21.2,0c0-0.5,0-2.1,0-2.1C207,90.5,207,90.2,206.7,89.7z"/>
			<path class="st0" d="M174.2,59.5l-8.9,25.9c-0.1,0.2-0.2,0.3-0.4,0.3c-0.2,0-0.3-0.1-0.4-0.3l-8.9-25.9c-0.4-0.9-1.3-2.1-3.3-2
				h-3.5l12.4,33.6c0.7,1.4,2,2.3,3.6,2.3c1.6,0,3-0.9,3.6-2.3L181,57.4h-3.4C175.4,57.4,174.5,58.5,174.2,59.5z"/>
			<path class="st0" d="M337.5,60.2c0,1,1,2.3,2.5,2.3h9.1l0.3,0.1l0.1,0.3l0,0.2v26.5c0,2.6,1,3.8,3,3.8h2.7l0-30.5
				c0-0.2,0.2-0.4,0.4-0.4h9.2c1.5,0,2.5-1.4,2.5-2.3v-2.8h-29.9V60.2z"/>
			<path class="st0" d="M91.9,56.9c-10.3,0-18.5,8.2-18.5,18.6c0,10.4,8.1,18.6,18.5,18.6c10.4,0,18.5-8.2,18.5-18.6
				C110.3,65,102.2,56.9,91.9,56.9z M91.9,88.7c-7,0-12.7-6-12.7-13.3c0-6.5,4.7-13.3,12.7-13.3c7.9,0,12.7,6.7,12.7,13.3
				C104.6,82.8,98.9,88.7,91.9,88.7z"/>
			<path class="st0" d="M66.9,85.3c-0.7,0-1.4,0.2-2.2,0.7c-0.6,0.3-1.3,0.7-2.4,1.2c-1.8,0.9-3.7,1.3-5.7,1.3c-7.2,0-13-5.8-13-13
				c0-7.2,5.9-13,13-13c2,0,3.9,0.4,5.9,1.4c0.9,0.4,1.6,0.8,2.2,1.1c0.8,0.4,1.5,0.7,2.2,0.7c1.3,0,2.6-0.7,4-2.3
				c-0.4-0.6-1.5-1.6-1.5-1.6c-3.5-3.2-8-5-12.7-5C46.4,56.8,38,65.2,38,75.5c0,10.3,8.4,18.7,18.7,18.7c4.7,0,9.2-1.8,12.7-5
				c0,0,1.1-1,1.5-1.6C69.5,86.1,68.2,85.3,66.9,85.3z"/>
			<path class="st0" d="M283.8,57.5c-1.7,0-3,0.9-3.7,2.3L268,93.5c5.2-0.1,6.5-2.1,7.4-4.4l1.9-5.5c0.1-0.2,0.2-0.3,0.4-0.3h12.3
				c0.2,0,0.3,0.1,0.4,0.3l1.9,5.6c0.9,2.2,2.2,4.2,7.4,4.3l-12.1-33.7C286.8,58.3,285.4,57.5,283.8,57.5z M288.3,78.3
				c-0.1,0.1-0.2,0.2-0.3,0.2h-8.3c-0.1,0-0.2-0.1-0.3-0.2c-0.1-0.1-0.1-0.2-0.1-0.3l4.2-12.1c0.1-0.2,0.2-0.3,0.4-0.3
				c0.2,0,0.3,0.1,0.4,0.3l4.2,12.1C288.3,78.1,288.3,78.2,288.3,78.3z"/>
			<path class="st0" d="M230.9,78.3c0-0.2,0.1-0.4,0.3-0.4c4.5-1.2,6.6-4.3,6.6-9.7c0-9.7-6.9-10.8-12.1-10.8h-13.2v33.2
				c0,1.9,1,2.9,3,2.9h2.8V79.8c0,0,0-0.2,0.1-0.3c0.1-0.1,0.3-0.1,0.3-0.1h6.3c0.1,0,0.3,0.1,0.3,0.2l5.2,10c1.3,2.5,4,3.9,7.3,3.9
				l1.3,0l-8.2-15L230.9,78.3z M226.4,74.3h-7.7c0,0-0.1,0-0.3-0.1c-0.1-0.1-0.1-0.3-0.1-0.3s0-11,0-11c0-0.2,0.2-0.4,0.4-0.4
				c0,0,7.7,0,7.7,0c4,0,6.1,2,6.1,5.8c0,1.9-0.5,3.4-1.5,4.5C230,73.8,228.4,74.3,226.4,74.3z"/>
			<path class="st0" d="M326.5,59.7l0,22c0,0.2-0.1,0.3-0.3,0.4c-0.2,0.1-0.3,0-0.4-0.1l-14.6-21.3c-1.7-2.6-3.7-3.1-6.8-3.1h-1.1
				l0,33.2c0,1.9,1,2.9,3,2.9h2.8l0-24.2c0-0.2,0.1-0.3,0.3-0.4l0.1,0c0.1,0,0.2,0.1,0.3,0.2l12.3,17.5l2.4,3.6
				c1.1,1.6,3.4,3.3,5.1,3.3l2.6,0l0-36h-2.8C328,57.5,326.5,58.2,326.5,59.7z"/>
			<path class="st0" d="M259.7,74.7c-0.9-0.5-2-1-3.2-1.5c-3.7-1.6-7.9-3.4-7.7-6.5c0.2-2.8,3-4.2,5.5-4.4c2.1-0.1,4.2,0.5,6.6,1.9
				c1.5,0.9,3.2-0.6,4.4-3.3c-1.2-1.2-2.8-2.2-4.7-2.9c-2.2-0.8-4.4-1.1-6.3-1.1c-5.2,0.1-10.9,3.8-11.3,9.6
				c-0.2,2.7,0.8,5.3,2.9,7.3c1.2,1.2,4.1,2.5,6.8,3.8c2.6,1.2,5.1,2.4,6.1,3.4c1.3,1.6,1.7,3.4,0.9,5c-0.8,1.7-2.9,2.8-5.4,2.8
				c-3.5,0-5.1-1.1-7.2-2.4c-0.4-0.3-0.6-0.3-0.9-0.3c-1.2,0-2.9,1.3-4.1,3.1c3,3.2,7.4,5.1,12.1,5.1c4.8,0,10.7-1.7,11.6-9.5
				C266.2,80.4,264.3,77.2,259.7,74.7z"/>
			<g>
				<path class="st0" d="M433.1,57.6c-0.3,0-0.4,0.2-0.4,0.5c0,0.1,0.1,0.2,0.1,0.3c4.2,4.6,6.6,10.4,6.6,17
					c0,6.7-2.5,12.7-6.6,17.2c-0.1,0.1-0.2,0.2-0.2,0.3c0,0.2,0.1,0.4,0.4,0.4c10.6,1.2,20.2-7,20.2-18.1
					C453.4,65.2,443.8,56.2,433.1,57.6z"/>
				<path class="st0" d="M443.1,100.1h-28.8c-9.7,0-23.9-9.5-23.9-24.5c0-15,14.2-24.6,23.9-24.6c0,0,26.4,0,28.8,0
					c0.3,0,0.5-0.2,0.5-0.5c0-0.1-0.1-0.2-0.1-0.3c-7.3-8.2-17.5-12.8-28.6-12.8c-21.1,0-38.2,17.1-38.2,38.2
					c0,21.1,17.1,38.2,38.2,38.2c11,0,21.2-4.6,28.6-12.8c0.1-0.1,0.1-0.2,0.1-0.3C443.6,100.3,443.4,100.1,443.1,100.1z"/>
			</g>
		</g>
		<g>
			<path class="st0" d="M453.1,51.3c-3.3,0-5.9-2.6-5.9-5.9c0-3.3,2.6-5.9,5.9-5.9c3.3,0,5.9,2.6,5.9,5.9
				C459,48.7,456.4,51.3,453.1,51.3z M453.1,40.2c-2.8,0-5.2,2.4-5.2,5.2s2.4,5.2,5.2,5.2c2.8,0,5.2-2.4,5.2-5.2
				S455.9,40.2,453.1,40.2z M455.6,48.8h-1l-1.8-2.9h-0.9v2.9H451V42h1.9c1.3,0,2.3,0.7,2.3,1.9c0,1.3-0.9,1.7-1.6,1.9L455.6,48.8z
				 M452.8,42.7h-1v2.4h1c0.8,0,1.5-0.2,1.5-1.2C454.4,43,453.6,42.7,452.8,42.7z"/>
		</g>
	</g>
</g>
</svg>
