<?xml version="1.0" encoding="utf-8"?>
<!-- Generator: Adobe Illustrator 24.1.2, SVG Export Plug-In . SVG Version: 6.00 Build 0)  -->
<svg version="1.1" id="Layer_1" xmlns="http://www.w3.org/2000/svg" xmlns:xlink="http://www.w3.org/1999/xlink" x="0px" y="0px"
	 viewBox="107.5899887084961 88.94999694824219 784.830078125 122.10000610351562 " style="enable-background:new 0 0 1000 300;" xml:space="preserve">
<style type="text/css">
	.st0{fill:#000000;}
	.st1{fill:#F16547;}
	.st2{fill:#FFCB47;}
</style>
<g>
	<g>
		<path class="st0" d="M861.33,125.86c-9.74,0-18.44,4.5-24.14,11.54c-5.7-7.03-14.4-11.54-24.15-11.54
			c-17.14,0-31.08,13.94-31.08,31.07v42.42h13.89v-42.42c0-9.47,7.71-17.18,17.19-17.18c9.48,0,17.19,7.71,17.19,17.18v42.42h0.02
			h13.87h0.02v-42.42c0-9.47,7.71-17.18,17.19-17.18c9.48,0,17.19,7.71,17.19,17.18v42.42h13.9v-42.42
			C892.41,139.8,878.47,125.86,861.33,125.86z"/>
		<path class="st0" d="M488.41,127.3v12.34h13.34v40.54c0,12.62,7.54,19.88,19.43,19.88c4.64,0,11.41,0,11.41,0v-13.63
			c0,0-5.76,0-7.5,0c-7.1,0-9.72-3.19-9.72-9.58v-37.22h17.21V127.3h-17.21v-26.58h-13.63v26.58H488.41z"/>
		<path class="st0" d="M699.99,127.3v12.34h13.34v40.55c0,12.62,7.54,19.88,19.43,19.88c4.64,0,11.42,0,11.42,0v-13.63
			c0,0-5.76,0-7.5,0c-7.1,0-9.71-3.19-9.71-9.58v-37.22h17.21V127.3h-17.21v-26.58h-13.63v26.58H699.99z"/>
		<path class="st0" d="M366.57,100.72v33.78c-6.49-5.39-14.83-8.64-23.93-8.64c-20.69,0-37.47,16.78-37.47,37.48
			c0,20.69,16.78,37.47,37.47,37.47c9.1,0,17.44-3.24,23.93-8.64v7.17h13.54v-98.61H366.57z M342.64,187.27
			c-13.2,0-23.94-10.74-23.94-23.93c0-13.21,10.73-23.95,23.94-23.95c13.14,0,23.83,10.63,23.93,23.75v0.39
			C366.47,176.64,355.78,187.27,342.64,187.27z"/>
		<path id="XMLID_7_" class="st0" d="M438.27,175.85c0.88,7.34,6.46,13.22,16.43,13.22c7.78,0,12.03-4.41,12.03-9.4
			c0-4.4-3.23-7.78-9.1-9.1l-12.02-2.64c-11.01-2.35-17.6-9.84-17.6-19.82c0-12.04,11.29-22.32,25.08-22.32
			c19.37,0,25.38,12.62,26.85,18.94l-12.18,4.56c-0.58-3.67-3.52-11.74-14.67-11.74c-7.04,0-11.73,4.55-11.73,9.39
			c0,4.26,2.64,7.34,8.07,8.51l11.44,2.5c12.76,2.79,19.51,10.57,19.51,20.99c0,9.99-8.36,21.88-25.82,21.88
			c-19.36,0-27.58-12.48-28.75-20.56L438.27,175.85z"/>
		<path class="st0" d="M681.45,175.25c-4.14,7.16-11.87,12-20.73,12c-13.2,0-23.94-10.74-23.94-23.93
			c0-13.21,10.74-23.95,23.94-23.95c8.86,0,16.58,4.84,20.73,12.01l11.01-7.99c-6.63-10.54-18.36-17.55-31.74-17.55
			c-20.69,0-37.47,16.78-37.47,37.48c0,20.69,16.78,37.47,37.47,37.47c13.38,0,25.1-7.01,31.74-17.55L681.45,175.25z"/>
		<g>
			<path id="XMLID_5_" class="st0" d="M398.54,199.35V127.3h13.48v72.04H398.54z"/>
			<path id="XMLID_4_" class="st0" d="M405.23,99.75c4.57,0,8.16,3.6,8.16,8.17c0,4.45-3.6,8.05-8.16,8.05
				c-4.45,0-8.04-3.61-8.04-8.05C397.18,103.35,400.78,99.75,405.23,99.75z"/>
		</g>
		<g>
			<path id="XMLID_2_" class="st0" d="M596.68,199.35V127.3h13.49v72.04H596.68z"/>
			<path id="XMLID_1_" class="st0" d="M603.36,99.75c4.56,0,8.16,3.6,8.16,8.17c0,4.45-3.6,8.05-8.16,8.05
				c-4.45,0-8.04-3.61-8.04-8.05C595.32,103.35,598.92,99.75,603.36,99.75z"/>
		</g>
		<path class="st0" d="M577.17,127.3c-21.95,0-30.81,13.82-30.81,30.8v41.24h13.35V158.1c0-9.62,6.13-17.45,17.46-17.45v-0.03h5.81
			V127.3H577.17z"/>
	</g>
	<g>
		<g>
			<path class="st1" d="M120.24,187.15h-12.65v23.9h60.95C148.89,211.05,131.4,201.66,120.24,187.15z"/>
			<path class="st1" d="M168.64,88.95h-61.05v23.9h61.05c20.43,0,37.06,16.72,37.06,37.15c0,20.43-16.63,37.15-37.06,37.15h48.3
				c7.92-10.31,12.66-23.2,12.66-37.15C229.6,116.39,202.25,88.95,168.64,88.95z"/>
		</g>
		<g>
			<path class="st2" d="M168.64,88.95c19.65,0,37.15,9.39,48.31,23.9h12.65v-23.9H168.64z"/>
			<path class="st2" d="M131.48,150c0-20.44,16.62-37.15,37.06-37.15h-48.3c-7.92,10.31-12.65,23.19-12.65,37.15
				c0,33.6,27.34,61.05,60.95,61.05h61.06v-23.9h-61.06C148.1,187.15,131.48,170.43,131.48,150z"/>
		</g>
	</g>
</g>
</svg>
