<?xml version="1.0" standalone="no"?>
<!DOCTYPE svg PUBLIC "-//W3C//DTD SVG 20010904//EN"
 "http://www.w3.org/TR/2001/REC-SVG-20010904/DTD/svg10.dtd">
<svg version="1.0" xmlns="http://www.w3.org/2000/svg"
 width="1200.000000pt" height="181.000000pt" viewBox="58,-0.0000026971101760864258,1142,180.06607055664062 "
 preserveAspectRatio="xMidYMid meet">

<g transform="translate(0.000000,181.000000) scale(0.100000,-0.100000)"
fill="#000000" stroke="none">
<path d="M1770 1145 l0 -665 99 0 100 0 3 284 3 284 30 44 c84 120 254 116
330 -7 l30 -48 3 -279 3 -278 100 0 101 0 -4 297 -3 298 -32 67 c-42 90 -110
160 -192 201 -61 30 -72 32 -171 32 -87 0 -113 -4 -152 -22 l-48 -22 0 240 0
239 -100 0 -100 0 0 -665z"/>
<path d="M7230 1556 l0 -255 -42 24 c-77 42 -152 58 -254 53 -80 -4 -103 -10
-166 -40 -177 -85 -268 -230 -268 -427 0 -210 119 -373 322 -442 53 -18 79
-20 165 -17 92 4 110 8 173 40 70 34 70 34 70 11 0 -23 2 -23 100 -23 l100 0
0 665 0 665 -100 0 -100 0 0 -254z m-137 -409 c188 -110 179 -374 -15 -471
-58 -29 -133 -34 -200 -14 -52 15 -131 87 -158 142 -60 126 2 289 135 353 69
33 172 29 238 -10z"/>
<path d="M11800 1560 c0 -139 -4 -250 -9 -250 -5 0 -39 14 -76 31 -55 26 -83
33 -159 37 -154 8 -264 -36 -366 -144 -70 -76 -110 -155 -123 -251 -34 -234
112 -459 337 -519 107 -29 287 -8 351 40 28 21 45 20 45 -4 0 -19 7 -20 100
-20 l100 0 0 665 0 665 -100 0 -100 0 0 -250z m-187 -392 c56 -17 141 -98 164
-156 37 -98 13 -213 -61 -284 -59 -58 -100 -73 -192 -73 -72 0 -86 3 -129 30
-102 63 -150 171 -127 283 33 157 188 247 345 200z"/>
<path d="M7598 1754 c-33 -17 -58 -62 -58 -103 0 -107 126 -159 202 -84 98 98
-22 254 -144 187z"/>
<path d="M10768 1754 c-53 -28 -73 -105 -43 -164 34 -66 132 -78 187 -23 98
98 -22 254 -144 187z"/>
<path d="M1180 1410 l0 -140 -90 0 -90 0 0 -100 0 -100 90 0 90 0 0 -118 c0
-65 5 -145 11 -178 23 -123 112 -239 227 -292 46 -21 76 -27 155 -30 110 -5
106 -8 86 78 -28 126 -25 120 -78 120 -68 0 -129 34 -166 95 -29 47 -30 53
-33 187 l-4 138 101 0 101 0 0 100 0 99 -97 3 -98 3 -3 138 -3 137 -99 0 -100
0 0 -140z"/>
<path d="M3008 1370 c-55 -14 -147 -63 -194 -104 -170 -146 -205 -415 -80
-610 46 -71 106 -122 195 -165 74 -35 79 -36 196 -36 110 0 125 2 178 27 68
32 147 87 147 102 0 7 -29 41 -65 76 -57 56 -68 63 -83 52 -90 -65 -198 -80
-287 -38 -51 23 -135 106 -135 132 0 12 62 14 355 14 l355 0 0 84 c0 204 -114
376 -298 447 -64 25 -219 35 -284 19z m249 -226 c44 -27 113 -104 113 -125 0
-5 -102 -9 -245 -9 -200 0 -245 3 -245 14 0 25 84 109 135 133 71 34 174 29
242 -13z"/>
<path d="M4275 1367 c-22 -8 -50 -19 -62 -26 -15 -7 -23 -8 -23 -1 0 6 -38 10
-100 10 l-100 0 0 -435 0 -435 100 0 100 0 0 270 c0 289 4 315 53 369 48 52
147 75 214 50 15 -5 45 -27 66 -47 60 -59 67 -97 67 -389 l0 -253 95 0 95 0 0
245 c0 141 5 266 11 296 13 59 65 124 116 146 71 29 167 8 220 -49 49 -52 53
-78 53 -368 l0 -270 101 0 100 0 -3 303 -3 302 -32 67 c-40 85 -106 151 -191
191 -62 30 -75 32 -172 32 -94 0 -111 -3 -160 -27 -31 -15 -74 -43 -95 -61
l-40 -34 -39 33 c-71 62 -140 87 -241 91 -56 2 -105 -2 -130 -10z"/>
<path d="M5798 1361 c-83 -27 -138 -62 -201 -130 -279 -302 -68 -781 343 -781
92 0 178 24 249 69 90 58 90 57 11 136 l-69 68 -38 -25 c-122 -82 -281 -56
-370 61 -18 23 -31 47 -27 52 3 5 156 9 360 9 l354 0 0 53 c0 89 -19 179 -52
247 -57 118 -185 221 -309 249 -69 16 -187 12 -251 -8z m223 -192 c66 -23 159
-108 159 -146 0 -10 -49 -13 -239 -13 -132 0 -242 4 -245 9 -8 12 46 84 83
110 66 47 169 64 242 40z"/>
<path d="M8236 1369 c-121 -30 -241 -132 -303 -255 -38 -77 -38 -79 -38 -199
0 -121 0 -121 39 -200 52 -105 121 -174 223 -223 77 -36 80 -37 198 -37 115 0
123 1 189 33 37 17 70 32 72 32 2 0 4 -9 4 -20 0 -19 7 -20 100 -20 l100 0 0
435 0 435 -100 0 c-98 0 -100 0 -100 -23 0 -23 0 -23 -70 11 -64 32 -79 36
-173 38 -56 2 -119 -1 -141 -7z m224 -210 c211 -95 214 -386 5 -485 -173 -82
-374 48 -375 241 0 189 200 321 370 244z"/>
<path d="M9278 1361 c-269 -86 -404 -402 -277 -653 36 -72 116 -159 177 -195
138 -81 335 -84 470 -7 l42 25 0 -39 c0 -141 -108 -265 -244 -279 -64 -7 -120
8 -177 47 l-44 29 -70 -69 -69 -69 23 -25 c30 -32 131 -85 195 -102 202 -54
427 45 529 234 52 96 57 145 57 640 l0 452 -100 0 -100 0 0 -25 0 -26 -42 25
c-100 57 -257 73 -370 37z m256 -206 c213 -103 194 -415 -30 -492 -68 -23
-162 -13 -222 24 -53 32 -106 104 -123 166 -32 121 45 265 168 312 51 20 157
14 207 -10z"/>
<path d="M10367 1369 c-20 -5 -59 -20 -87 -34 -59 -30 -60 -30 -60 -5 0 19 -7
20 -100 20 l-100 0 0 -435 0 -435 100 0 100 0 0 241 c0 158 4 255 12 281 17
57 87 131 149 158 42 18 67 21 127 18 l74 -3 29 75 c38 102 37 106 -15 119
-52 13 -174 13 -229 0z"/>
<path d="M7560 915 l0 -435 100 0 100 0 0 435 0 435 -100 0 -100 0 0 -435z"/>
<path d="M10730 915 l0 -435 100 0 100 0 0 435 0 435 -100 0 -100 0 0 -435z"/>
<path d="M614 1256 c-28 -28 -34 -42 -34 -75 0 -57 22 -95 66 -116 47 -22 98
-13 136 25 23 24 28 37 28 80 0 46 -4 56 -34 86 -29 29 -41 34 -81 34 -40 0
-52 -5 -81 -34z"/>
</g>
</svg>
