<?xml version="1.0" encoding="utf-8"?>
<!-- Generator: Adobe Illustrator 20.1.0, SVG Export Plug-In . SVG Version: 6.00 Build 0)  -->
<svg version="1.1" xmlns="http://www.w3.org/2000/svg" xmlns:xlink="http://www.w3.org/1999/xlink" x="0px" y="0px"
	 viewBox="2.5999999046325684,6.099999904632568,571.800048828125,164.90000915527344 " style="enable-background:new 0 0 577.5 178.5;" xml:space="preserve">
<style type="text/css">
	.st0{fill:#CF0A2C;}
	.st1{fill:#000000;}
</style>
<g id="Layer_2">
</g>
<g id="Layer_1">
	<g>
		<g>
			<g>
				<path class="st0" d="M552.4,19.9c0,7.6-6.2,13.8-13.8,13.8c-7.6,0-13.8-6.2-13.8-13.8c0-7.6,6.2-13.8,13.8-13.8
					C546.2,6.1,552.4,12.3,552.4,19.9z"/>
				<path class="st1" d="M2.6,93.2c0-23,18.7-41.9,41.9-41.9v12.2c-16.7,0-30,13.5-30,29.7v41.9H2.6V93.2z"/>
				<path class="st1" d="M128.6,51.3h12.2v43.6c0,23-18.9,41.9-41.9,41.9c-23.2,0-41.7-18.9-41.7-41.9V51.3h11.7v43.6
					c0,16.7,13.5,30,30,30c16.5,0,29.7-13.2,29.7-30V51.3z"/>
				<rect x="253.8" y="51.1" class="st1" width="11.9" height="84.2"/>
				<path class="st1" d="M323.5,51.3c18.7,0,35,12.8,40,30h-12.8c-4.6-10.4-15.2-17.8-27.1-17.8c-16.7,0-30,13.5-30,29.7
					c0,16.5,13.2,30,30,30c11.9,0,22.6-7.4,27.1-17.8h12.8c-5,17.2-21.3,30-40,30c-23.2,0-42.1-18.9-42.1-42.1
					C281.4,70.2,300.3,51.3,323.5,51.3z"/>
				<path class="st1" d="M414.9,50.9c23,0,42.3,19.3,42.3,42.3c0,23.2-19.3,42.3-42.3,42.3c-23.2,0-42.1-19.1-42.1-42.3
					C372.8,70.2,391.7,50.9,414.9,50.9z M414.9,123.6c16.5,0,30.2-13.7,30.2-30.4c0-16.3-13.7-30.2-30.2-30.2
					c-16.5,0-30.4,13.9-30.4,30.2C384.5,109.9,398.4,123.6,414.9,123.6z"/>
				<path class="st1" d="M480.1,135.5h-11.9V91.5c0-23.2,18.9-41.9,42.3-41.9c23,0,41.9,18.7,41.9,41.9v44.1h-12.2V91.5
					c0-16.5-13.2-30-29.7-30c-16.9,0-30.4,13.5-30.4,30V135.5z"/>
				<path class="st1" d="M196.5,51.1h-30.4V27h-11.9v66.2c0,23.7,18.7,42.3,42.3,42.3c23.2,0,42.1-18.7,42.1-42.3
					C238.6,70,219.7,51.1,196.5,51.1z M196.5,123.6c-17.1,0-30.4-13.9-30.4-30.4V63h30.4c16.5,0,30.2,13.7,30.2,30.2
					C226.7,109.7,213,123.6,196.5,123.6z"/>
				<g>
					<path class="st0" d="M461.6,6.1c-7.6,0-13.8,6.2-13.8,13.8c0,7.6,6.2,13.8,13.8,13.8c7.6,0,13.8-6.2,13.8-13.8
						C475.4,12.3,469.3,6.1,461.6,6.1z M461.6,31.4c-6.4,0-11.5-5.2-11.5-11.5s5.2-11.5,11.5-11.5s11.5,5.2,11.5,11.5
						S468,31.4,461.6,31.4z"/>
				</g>
				<g>
					<path class="st0" d="M500.1,6.1c-7.6,0-13.8,6.2-13.8,13.8c0,7.6,6.2,13.8,13.8,13.8c7.6,0,13.8-6.2,13.8-13.8
						C513.9,12.3,507.7,6.1,500.1,6.1z M500.1,26.5c-3.7,0-6.7-3-6.7-6.7c0-3.7,3-6.7,6.7-6.7c3.7,0,6.7,3,6.7,6.7
						C506.7,23.5,503.8,26.5,500.1,26.5z"/>
				</g>
			</g>
			<g>
				<path class="st1" d="M341.8,154.3h6.2c3,0,5.2,2.1,5.2,5.3c0,3.1-2.1,5.3-5.2,5.3h-3.3v5.6h-2.9V154.3z M347.5,162.4
					c1.7,0,2.7-1.1,2.7-2.8c0-1.7-1-2.7-2.7-2.7h-2.8v5.5H347.5z"/>
				<path class="st1" d="M374.1,154.3h5.2c1.8,0,2.6,0.1,3.3,0.5c1.6,0.7,2.6,2.3,2.6,4.4c0,1.9-1,3.7-2.7,4.4v0
					c0,0,0.2,0.2,0.5,0.8l3.3,6H383l-3.2-6H377v6h-2.9V154.3z M379.6,161.9c1.6,0,2.6-0.9,2.6-2.6c0-1.6-0.7-2.5-3-2.5H377v5.1
					H379.6z"/>
				<path class="st1" d="M414.5,154c4.8,0,8.4,3.6,8.4,8.3c0,4.8-3.6,8.5-8.4,8.5c-4.8,0-8.4-3.7-8.4-8.5
					C406.1,157.7,409.7,154,414.5,154z M414.5,168.1c3,0,5.3-2.5,5.3-5.8c0-3.2-2.4-5.6-5.3-5.6c-3,0-5.3,2.4-5.3,5.6
					C409.1,165.6,411.5,168.1,414.5,168.1z"/>
				<path class="st1" d="M442.6,164.8h2.9v0.8c0,1.9,1.1,2.6,2.1,2.6c1.1,0,2.1-0.7,2.1-2.4v-8.8l0,0v-2.5h2.9v11.4
					c0,3.5-2.6,5.1-5.1,5.1c-2.5,0-5-1.6-5-5.1V164.8z"/>
				<path class="st1" d="M474.9,154.3h9.7v2.5h-6.8v4.2h5.5v2.5h-5.5v4.4h7.1v2.5h-10.1V154.3z"/>
				<path class="st1" d="M513.4,154c3.9,0,6,2.2,6,2.2l-1.4,2.2c0,0-1.8-1.7-4.4-1.7c-3.4,0-5.4,2.6-5.4,5.6c0,3.1,2.1,5.8,5.5,5.8
					c2.8,0,4.7-2.1,4.7-2.1l1.5,2.1c0,0-2.2,2.6-6.4,2.6c-5,0-8.4-3.7-8.4-8.4C505,157.6,508.6,154,513.4,154z"/>
				<path class="st1" d="M544.1,156.8h-5.3v-2.5h13.6v2.5H547v13.7h-2.9V156.8z"/>
			</g>
		</g>
		<g>
			<path class="st1" d="M567.5,121.5c3.8,0,6.9,3.1,6.9,7c0,3.9-3.1,7-6.9,7c-3.8,0-6.8-3.1-6.8-7
				C560.7,124.6,563.7,121.5,567.5,121.5z M567.5,134.7c3.4,0,6-2.7,6-6.2c0-3.5-2.6-6.2-6-6.2c-3.3,0-5.9,2.7-5.9,6.2
				C561.5,132,564.1,134.7,567.5,134.7z M565.2,124.7h2.6c1.3,0,2.2,0.9,2.2,2.2c0,1.1-0.7,1.9-1.5,2.1v0c0,0,0.1,0.1,0.3,0.4l1.5,3
				h-0.9l-1.6-3.2h-1.7v3.2h-0.9V124.7z M567.7,128.4c0.9,0,1.5-0.6,1.5-1.5c0-0.9-0.6-1.5-1.5-1.5h-1.6v3H567.7z"/>
		</g>
	</g>
</g>
</svg>
