<?xml version="1.0" standalone="no"?>
<!DOCTYPE svg PUBLIC "-//W3C//DTD SVG 20010904//EN"
 "http://www.w3.org/TR/2001/REC-SVG-20010904/DTD/svg10.dtd">
<svg version="1.0" xmlns="http://www.w3.org/2000/svg"
 width="9470.000000pt" height="2409.000000pt" viewBox="691.4091186523438,372.1999816894531,8331.4931640625,1681.800048828125 "
 preserveAspectRatio="xMidYMid meet">

<g transform="translate(0.000000,2409.000000) scale(0.100000,-0.100000)"
fill="#000000" stroke="none">
<path d="M22269 12189 c-1669 -4500 -3036 -8185 -3037 -8190 -2 -5 907 -8
2123 -7 l2127 3 1368 3690 c753 2030 1372 3696 1377 3704 7 10 874 -1019 3297
-3912 1809 -2160 3292 -3927 3295 -3927 3 0 1367 3671 3030 8158 1664 4486
3031 8172 3038 8190 l13 32 -2127 -2 -2127 -3 -1386 -3737 c-762 -2056 -1388
-3737 -1392 -3735 -4 1 -1479 1782 -3277 3957 -1798 2175 -3274 3956 -3279
3958 -5 1 -1374 -3679 -3043 -8179z"/>
<path d="M11297 19888 c-8 -24 -920 -2484 -2027 -5468 -1107 -2984 -2032
-5483 -2057 -5555 -389 -1145 -399 -2270 -26 -3180 108 -266 292 -577 474
-805 109 -137 336 -363 474 -474 479 -382 1070 -640 1722 -750 335 -56 408
-61 963 -61 597 0 865 17 1320 81 1021 143 1899 475 2751 1040 459 304 849
617 1218 979 790 775 1342 1624 1886 2900 210 492 686 1724 931 2408 41 114
801 2167 1689 4562 888 2395 1615 4357 1615 4360 0 3 -956 5 -2124 5 l-2124 0
-10 -27 c-5 -16 -850 -2294 -1877 -5063 -1027 -2769 -1909 -5147 -1960 -5285
-184 -494 -279 -708 -391 -875 -263 -394 -642 -652 -1099 -750 -143 -31 -407
-38 -530 -15 -527 99 -768 571 -581 1138 18 56 932 2524 2030 5484 1098 2961
1996 5385 1996 5388 0 3 -956 5 -2124 5 l-2124 0 -15 -42z"/>
<path d="M38856 11983 c-1620 -4372 -2949 -7958 -2952 -7970 l-6 -23 2120 0
c2010 0 2122 1 2130 18 5 9 522 1400 1148 3090 747 2014 1141 3066 1146 3055
4 -10 252 -1390 552 -3068 301 -1677 548 -3060 551 -3073 l5 -22 2110 0 c1161
0 2110 2 2110 5 0 3 -272 1486 -605 3296 -333 1811 -605 3300 -605 3310 0 10
10 21 23 25 12 3 100 40 195 80 1482 633 2830 1776 3675 3115 484 767 795
1578 901 2344 40 291 52 688 27 940 -77 783 -373 1426 -887 1925 -224 217
-442 372 -723 514 -416 210 -858 330 -1391 376 -73 6 -1286 10 -3346 10
l-3231 0 -2947 -7947z m6506 4289 c605 -109 993 -498 1078 -1081 20 -131 8
-408 -24 -556 -83 -394 -269 -774 -554 -1131 -107 -136 -374 -404 -507 -510
-476 -379 -967 -603 -1495 -681 -91 -13 -193 -17 -495 -17 -248 -1 -379 2
-378 9 2 12 1448 3913 1469 3964 l14 33 387 -5 c336 -4 404 -7 505 -25z"/>
<path d="M55215 19918 c-3 -7 -914 -2465 -2026 -5463 -1112 -2997 -2052 -5542
-2089 -5655 -537 -1623 -292 -3158 659 -4134 615 -630 1440 -986 2475 -1067
199 -16 984 -6 1246 15 960 78 1709 265 2449 611 737 344 1513 897 2142 1525
789 788 1333 1648 1896 3000 210 503 605 1533 868 2260 80 221 3270 8827 3300
8903 7 16 -97 17 -2120 15 l-2128 -3 -1668 -4500 c-918 -2475 -1800 -4853
-1960 -5285 -354 -954 -402 -1078 -490 -1250 -119 -235 -244 -402 -418 -557
-230 -205 -493 -338 -801 -405 -91 -19 -134 -22 -315 -22 -201 0 -214 1 -300
28 -258 79 -433 243 -516 484 -33 95 -34 100 -34 272 0 160 2 183 27 270 18
66 3966 10732 4053 10953 7 16 -98 17 -2119 17 -1692 0 -2128 -3 -2131 -12z"/>
<path d="M66093 11967 c-1624 -4379 -2953 -7966 -2953 -7970 0 -4 1959 -7
4353 -7 l4352 1 1445 2121 c795 1166 1447 2125 1448 2129 2 5 -1290 9 -2883 9
-2745 0 -2887 1 -2882 18 2 9 975 2633 2161 5831 1186 3198 2156 5818 2156
5822 0 5 -942 9 -2122 9 l-2123 0 -2952 -7963z"/>
<path d="M76445 19898 c9 -56 1166 -9671 1166 -9703 1 -17 -499 -1378 -1136
-3095 -626 -1686 -1140 -3075 -1143 -3088 l-4 -22 2107 2 2108 3 1146 3090
1146 3090 4189 4860 c2304 2673 4196 4868 4204 4878 14 16 -87 17 -2104 17
l-2119 -1 -2335 -2689 c-2185 -2517 -2335 -2688 -2342 -2662 -7 26 -648 5305
-648 5337 0 13 -240 15 -2120 15 l-2121 0 6 -32z"/>
</g>
</svg>
