<svg xmlns="http://www.w3.org/2000/svg" viewBox="0 0 577.78 174.22"><defs><style>.cls-1{fill:#fff;}.cls-2{fill:none;stroke:#17a7e0;stroke-width:4.89px;}.cls-2,.cls-3{stroke-miterlimit:10;}.cls-3,.cls-5{fill:#18a9e1;}.cls-3{stroke:#18a9e1;stroke-width:3px;}.cls-4{fill:#ff6f00;}</style></defs><g id="Layer_1" data-name="Layer 1"><rect class="cls-1" x="175.22" y="7.51" width="395.69" height="158.95" rx="8"/><rect class="cls-2" x="5.08" y="7.13" width="565.83" height="159.34" rx="6"/><path class="cls-3" d="M19.77,7.13A14.73,14.73,0,0,0,5.08,21.81v130a14.72,14.72,0,0,0,14.69,14.68H183.59V7.13Z"/><rect class="cls-1" x="29.71" y="39.06" width="101.25" height="8.34" rx="1.7"/><rect class="cls-1" x="35.35" y="127.52" width="119.16" height="8.34" rx="1.7"/><rect class="cls-1" x="41.32" y="83.29" width="76.62" height="8.34" rx="1.7"/><rect class="cls-1" x="59.23" y="105.41" width="87.81" height="8.34" rx="1.7"/><rect class="cls-1" x="46.71" y="61.18" width="119.41" height="8.34" rx="1.7"/><path class="cls-4" d="M238.81,141.59l-4.64-16.35H234q.32,4.17.32,6.49v9.86h-5.43V118.88h8.17L241.82,135H242l4.64-16.12h8.18v22.71h-5.63v-10c0-.52,0-1.09,0-1.72s.09-2.18.21-4.64h-.14l-4.58,16.32Z"/><path class="cls-4" d="M305,141.59H291.47V118.88H305v4.93H297.6v3.57h6.81v4.92H297.6v4.29H305Z"/><path class="cls-4" d="M350.62,141.59,346,125.24h-.14q.32,4.17.32,6.49v9.86h-5.43V118.88h8.17L353.63,135h.13l4.64-16.12h8.18v22.71H361v-10c0-.52,0-1.09,0-1.72s.09-2.18.21-4.64H361l-4.58,16.32Z"/><path class="cls-4" d="M403.28,118.88h7.92q4.62,0,6.87,1.38a4.66,4.66,0,0,1,2.24,4.28,5.42,5.42,0,0,1-1,3.26,4.42,4.42,0,0,1-2.58,1.74v.15a5.32,5.32,0,0,1,3.06,1.86,5.64,5.64,0,0,1,.94,3.39,5.8,5.8,0,0,1-2.32,4.87,10.21,10.21,0,0,1-6.33,1.78h-8.83Zm6.13,8.71h1.85a3.35,3.35,0,0,0,2-.54,1.89,1.89,0,0,0,.72-1.61c0-1.28-1-1.91-2.88-1.91h-1.73Zm0,4.49v4.77h2.16c1.91,0,2.87-.81,2.87-2.42a2.06,2.06,0,0,0-.77-1.74,3.54,3.54,0,0,0-2.22-.61Z"/><path class="cls-4" d="M470,141.59H456.51V118.88H470v4.93h-7.34v3.57h6.8v4.92h-6.8v4.29H470Z"/><path class="cls-4" d="M511.9,133.32v8.27h-6.13V118.88h7.44q9.25,0,9.25,6.71a6.71,6.71,0,0,1-3.85,6.11l6.62,9.89h-7l-4.82-8.27Zm0-4.61h1.15c2.14,0,3.21-.94,3.21-2.84,0-1.56-1-2.34-3.15-2.34H511.9Z"/><path class="cls-5" d="M256.63,35.48H228.92V103.3h14.92V83h11.33c15.22,0,27.42-8.13,27.42-23.83v-.19C282.59,45.07,272.81,35.48,256.63,35.48Zm10.85,23.93c0,5.81-4.36,10.27-11.82,10.27H243.84V49h11.53c7.46,0,12.11,3.58,12.11,10.27Z"/><path class="cls-5" d="M304,61.83V51.37H289.26V103.3H304V84.12c0-12.4,6-18.31,15.8-18.31h.77V50.4C311.84,50,307,54.66,304,61.83Z"/><path class="cls-5" d="M350,50.4c-15.12,0-25.68,12.21-25.68,27v.2c0,15.89,11.53,26.83,27.13,26.83,9.4,0,16.37-3.68,21.22-9.69l-8.43-7.46c-4.07,3.78-7.65,5.33-12.6,5.33-6.58,0-11.24-3.48-12.69-10.17h36.14c.1-1.36.19-2.71.19-3.88C375.3,63.87,367.36,50.4,350,50.4ZM338.78,73.27c1.16-6.69,5.13-11,11.24-11s10.07,4.46,11,11Z"/><path class="cls-5" d="M414.8,50.4c-7.65,0-12.6,3.58-16.18,8.43V32.57H383.89V103.3h14.73V96.52c3.49,4.17,8.33,7.75,16.18,7.75,12.3,0,23.64-9.5,23.64-26.84v-.19C438.44,59.89,426.91,50.4,414.8,50.4Zm8.91,27c0,8.72-5.81,14.34-12.69,14.34s-12.59-5.71-12.59-14.34v-.19c0-8.63,5.71-14.34,12.59-14.34s12.69,5.71,12.69,14.34Z"/><rect class="cls-5" x="447.12" y="32.57" width="15.5" height="13.08"/><rect class="cls-5" x="447.5" y="51.37" width="14.73" height="51.93"/><path class="cls-5" d="M511,32.57V58.15c-3.49-4.17-8.33-7.75-16.18-7.75-12.31,0-23.64,9.49-23.64,26.84v.19c0,17.34,11.53,26.84,23.64,26.84,7.65,0,12.59-3.58,16.18-8.43v7.46h14.72V32.57Zm.19,44.86c0,8.63-5.71,14.34-12.59,14.34s-12.7-5.71-12.7-14.34v-.19c0-8.72,5.82-14.34,12.7-14.34s12.59,5.71,12.59,14.34Z"/></g></svg>