<?xml version="1.0" encoding="utf-8"?>
<!-- Generator: Adobe Illustrator 19.0.0, SVG Export Plug-In . SVG Version: 6.00 Build 0)  -->
<svg version="1.1" id="Layer_1" xmlns="http://www.w3.org/2000/svg" xmlns:xlink="http://www.w3.org/1999/xlink" x="0px" y="0px"
	 viewBox="67.51679229736328 178.59999084472656 364.98321533203125 142.9000701904297 " style="enable-background:new 0 0 500 500;" xml:space="preserve">
<style type="text/css">
	.st0{fill:#0099CA;}
	.st1{fill:#F15A22;}
	.st2{fill:#FFE894;}
	.st3{fill:#FFD400;}
	.st4{fill:#00984A;}
	.st5{fill:#0DB14B;}
	.st6{fill:#2D7D2F;}
	.st7{fill:#938D3C;}
	.st8{fill:#F7941E;}
	.st9{fill:#FDC689;}
	.st10{fill:#FAB383;}
	.st11{fill:#231F20;}
</style>
<g id="XMLID_1_">
	<path id="XMLID_3_" class="st0" d="M114.5,190.8c3.4,0,6.1-2.7,6.1-6.1c0-3.4-2.7-6.1-6.1-6.1c-3.4,0-6.1,2.7-6.1,6.1
		C108.4,188,111.1,190.8,114.5,190.8z"/>
	<path id="XMLID_4_" class="st0" d="M73.1,207.7c-4.6,1.9-6.8,7.2-4.9,11.8c1.9,4.6,7.2,6.8,11.8,4.9c4.6-1.9,6.8-7.2,4.9-11.8
		C83,208,77.7,205.8,73.1,207.7z"/>
	<path id="XMLID_5_" class="st1" d="M111.6,221.7c1.5,2.6,3.5,4.9,5.8,6.7c1.1-4.3,3.4-8.1,6.6-11c-1.6-1.4-3.4-2.6-5.3-3.6
		C117.3,217.1,114.9,220,111.6,221.7z"/>
	<path id="XMLID_6_" class="st2" d="M131.2,233.3c-5.1,0-10-1.8-13.9-4.9c-0.6,2.3-0.9,4.8-0.7,7.3c0.4,6,3,11.3,7,15.1
		C128.6,246.4,131.4,239.9,131.2,233.3z"/>
	<path id="XMLID_7_" class="st3" d="M116.6,235.7c-0.2-2.5,0.1-5,0.7-7.3c-2.3-1.8-4.3-4-5.8-6.7c-0.5,0.3-1,0.5-1.5,0.7
		c-6.2,2.6-13.1,0.8-17.4-3.9c-5.9,6.2-8,15.5-4.5,23.9c4.7,11.4,17.8,16.9,29.2,12.2c2.3-1,4.4-2.3,6.2-3.8
		C119.6,246.9,117,241.6,116.6,235.7z"/>
	<path id="XMLID_8_" class="st4" d="M110.1,222.4c0.5-0.2,1-0.5,1.5-0.7c-0.5-0.8-0.9-1.7-1.3-2.6c-1-2.5-1.5-5-1.7-7.5
		c-2.7,0-5.5,0.6-8.2,1.7c-3,1.2-5.6,3.1-7.7,5.3C97,223.2,103.9,225,110.1,222.4z"/>
	<path id="XMLID_9_" class="st5" d="M113.7,195.9c-4.3-3.3-10.1-4.3-15.5-2.1c-7.9,3.3-11.7,12.3-8.4,20.2c0.7,1.7,1.7,3.2,2.9,4.5
		c2.1-2.2,4.7-4,7.7-5.3c2.7-1.1,5.5-1.6,8.2-1.7C108.3,205.9,110.2,200.3,113.7,195.9z"/>
	<path id="XMLID_10_" class="st6" d="M118.6,213.8c-3.1-1.5-6.5-2.3-10-2.2c0.1,2.5,0.7,5.1,1.7,7.5c0.4,0.9,0.8,1.8,1.3,2.6
		C114.9,220,117.3,217.1,118.6,213.8z"/>
	<path id="XMLID_11_" class="st7" d="M118.5,202.2c-1.1-2.6-2.7-4.7-4.8-6.3c-3.6,4.4-5.4,10-5.1,15.7c3.5,0,6.9,0.7,10,2.2
		C120,210.2,120.1,206.1,118.5,202.2z"/>
	<path id="XMLID_12_" class="st8" d="M152.5,201.7c-4.8-11.7-18.2-17.2-29.8-12.4c-3.6,1.5-6.6,3.8-8.9,6.6c2,1.6,3.7,3.7,4.8,6.3
		c1.6,3.9,1.5,8,0.1,11.6c1.9,0.9,3.7,2.1,5.3,3.6c3.8-3.5,8.8-5.8,14.3-6.2c5.7-0.4,11.1,1.4,15.4,4.6
		C154.7,211.2,154.4,206.3,152.5,201.7z"/>
	<path id="XMLID_13_" class="st9" d="M138.2,211.1c-5.6,0.4-10.6,2.7-14.3,6.2c2.4,2.2,4.4,4.9,5.7,8c1.1,2.6,1.6,5.2,1.7,7.9
		c3,0,6-0.5,8.9-1.7c7-2.9,11.8-8.9,13.5-15.8C149.3,212.5,144,210.8,138.2,211.1z"/>
	<path id="XMLID_14_" class="st10" d="M123.9,217.4c-3.1,3-5.4,6.8-6.6,11c4,3.1,8.8,4.8,13.9,4.9c-0.1-2.6-0.6-5.3-1.7-7.9
		C128.3,222.2,126.3,219.5,123.9,217.4z"/>
	<path id="XMLID_15_" class="st11" d="M184,231.2c-5.6-5.8-13.8-8.7-24.4-8.7c-0.1,0-0.3,0-0.4,0c2,3.2,3.3,6.9,3.5,10.9
		c0.1,0.9,0.1,1.7,0,2.5c4.7,0.7,8.5,2.9,11.5,6.6c3.6,4.6,5.4,11,5.4,19.4c0,8.4-1.8,14.9-5.4,19.4c-3.6,4.5-8.5,6.8-14.7,6.8
		c-6.2,0-11.1-2.3-14.8-6.8c-3.7-4.5-5.5-11-5.5-19.4c0-1.4,0.1-2.7,0.2-3.9c-5.7,0-10.9-2.1-14.9-5.6c-0.5,3-0.7,6.2-0.7,9.6
		c0,13.4,3.8,23.6,11.3,30.7c5.6,5.8,13.8,8.7,24.4,8.7c10.6,0,18.8-2.9,24.4-8.7c7.5-7.1,11.3-17.3,11.3-30.7
		C195.3,248.3,191.5,238,184,231.2z"/>
	<path id="XMLID_18_" class="st11" d="M245.4,250.7c4.5,4.7,6.7,11.7,6.7,20.9c0,9.7-2.2,17.1-6.6,22.2c-4.4,5.1-10,7.6-16.9,7.6
		c-4.4,0-8.1-1.1-11-3.3c-1.6-1.2-3.1-3-4.7-5.3v28.7h-14.2v-76.7h13.8v8.1c1.6-2.4,3.2-4.3,5-5.7c3.2-2.4,7-3.7,11.5-3.7
		C235.5,243.6,240.9,245.9,245.4,250.7z M234.4,261c-2-3.3-5.1-4.9-9.5-4.9c-5.3,0-8.9,2.5-10.9,7.4c-1,2.6-1.5,6-1.5,10
		c0,6.4,1.7,10.9,5.1,13.5c2,1.5,4.5,2.3,7.2,2.3c4,0,7.1-1.5,9.3-4.6c2.1-3.1,3.2-7.2,3.2-12.4C237.3,268,236.3,264.3,234.4,261z"
		/>
	<path id="XMLID_21_" class="st11" d="M295,245.9c3.8,1.7,7,4.4,9.5,8.1c2.3,3.3,3.7,7.1,4.4,11.4c0.4,2.5,0.6,6.2,0.5,10.9h-40.1
		c0.2,5.5,2.1,9.4,5.8,11.6c2.2,1.4,4.8,2.1,7.9,2.1c3.3,0,5.9-0.8,8-2.5c1.1-0.9,2.1-2.2,3-3.8h14.7c-0.4,3.3-2.2,6.6-5.3,9.9
		c-4.9,5.4-11.8,8-20.7,8c-7.3,0-13.8-2.3-19.4-6.8c-5.6-4.5-8.4-11.9-8.4-22c0-9.5,2.5-16.8,7.6-21.9c5-5.1,11.6-7.6,19.7-7.6
		C286.8,243.3,291.1,244.2,295,245.9z M273.5,258.3c-2,2.1-3.3,4.9-3.8,8.5h24.8c-0.3-3.8-1.5-6.7-3.8-8.7c-2.3-2-5.1-3-8.5-3
		C278.4,255.2,275.5,256.2,273.5,258.3z"/>
	<path id="XMLID_22_" class="st11" d="M357.3,247.9c3.6,3,5.4,7.9,5.4,14.8v37H348v-33.5c0-2.9-0.4-5.1-1.1-6.7
		c-1.4-2.8-4.1-4.2-8-4.2c-4.8,0-8.2,2.1-10,6.2c-0.9,2.2-1.4,5-1.4,8.4v29.8H313v-54.9H327v8c1.8-2.8,3.6-4.9,5.2-6.1
		c3-2.2,6.7-3.3,11.2-3.3C349.1,243.5,353.7,245,357.3,247.9z"/>
	<polygon id="XMLID_23_" class="st11" points="384.1,299.8 365.8,299.8 390,261.5 367,224.6 385.7,224.6 399.1,249.1 412.9,224.6
		431.1,224.6 408.1,260.9 432.5,299.8 413.4,299.8 399.1,274.2 	"/>
</g>
</svg>
