<svg version="1.1" viewBox="0.0 0.0 686.0 421.0" fill="none" stroke="none" stroke-linecap="square" stroke-miterlimit="10" width="686" height="421" xmlns:xlink="http://www.w3.org/1999/xlink" xmlns="http://www.w3.org/2000/svg"><path fill="#ffffff" d="M0 0L686.0 0L686.0 421.0L0 421.0L0 0Z" fill-rule="nonzero"/><path stroke="#333333" stroke-width="1.0" stroke-linecap="butt" d="M72.5 345.5L664.5 345.5" fill-rule="nonzero"/><path stroke="#cccccc" stroke-width="1.0" stroke-linecap="butt" d="M72.5 283.5L664.5 283.5" fill-rule="nonzero"/><path stroke="#cccccc" stroke-width="1.0" stroke-linecap="butt" d="M72.5 220.5L664.5 220.5" fill-rule="nonzero"/><path stroke="#cccccc" stroke-width="1.0" stroke-linecap="butt" d="M72.5 158.5L664.5 158.5" fill-rule="nonzero"/><path stroke="#cccccc" stroke-width="1.0" stroke-linecap="butt" d="M72.5 95.5L664.5 95.5" fill-rule="nonzero"/><clipPath id="id_0"><path d="M72.05 95.61667L664.95 95.61667L664.95 345.95L72.05 345.95L72.05 95.61667Z" clip-rule="nonzero"/></clipPath><path stroke="#000000" stroke-width="2.0" stroke-linecap="butt" stroke-opacity="0.0" clip-path="url(#id_0)" d="M163.0 346.0L121.0 346.0L121.0 188.0C121.0 186.89543 121.89543 186.0 123.0 186.0L161.0 186.0C162.10457 186.0 163.0 186.89543 163.0 188.0Z" fill-rule="nonzero"/><path fill="#4285f4" clip-path="url(#id_0)" d="M163.0 346.0L121.0 346.0L121.0 188.0C121.0 186.89543 121.89543 186.0 123.0 186.0L161.0 186.0C162.10457 186.0 163.0 186.89543 163.0 188.0Z" fill-rule="nonzero"/><path stroke="#000000" stroke-width="2.0" stroke-linecap="butt" stroke-opacity="0.0" clip-path="url(#id_0)" d="M299.0 346.0L257.0 346.0L257.0 217.0C257.0 215.89543 257.89542 215.0 259.0 215.0L297.0 215.0C298.10458 215.0 299.0 215.89543 299.0 217.0Z" fill-rule="nonzero"/><path fill="#4285f4" clip-path="url(#id_0)" d="M299.0 346.0L257.0 346.0L257.0 217.0C257.0 215.89543 257.89542 215.0 259.0 215.0L297.0 215.0C298.10458 215.0 299.0 215.89543 299.0 217.0Z" fill-rule="nonzero"/><path stroke="#000000" stroke-width="2.0" stroke-linecap="butt" stroke-opacity="0.0" clip-path="url(#id_0)" d="M436.0 346.0L394.0 346.0L394.0 190.0C394.0 188.89543 394.89542 188.0 396.0 188.0L434.0 188.0C435.10458 188.0 436.0 188.89543 436.0 190.0Z" fill-rule="nonzero"/><path fill="#4285f4" clip-path="url(#id_0)" d="M436.0 346.0L394.0 346.0L394.0 190.0C394.0 188.89543 394.89542 188.0 396.0 188.0L434.0 188.0C435.10458 188.0 436.0 188.89543 436.0 190.0Z" fill-rule="nonzero"/><path stroke="#000000" stroke-width="2.0" stroke-linecap="butt" stroke-opacity="0.0" clip-path="url(#id_0)" d="M572.0 346.0L530.0 346.0L530.0 206.0C530.0 204.89543 530.89545 204.0 532.0 204.0L570.0 204.0C571.10455 204.0 572.0 204.89543 572.0 206.0Z" fill-rule="nonzero"/><path fill="#4285f4" clip-path="url(#id_0)" d="M572.0 346.0L530.0 346.0L530.0 206.0C530.0 204.89543 530.89545 204.0 532.0 204.0L570.0 204.0C571.10455 204.0 572.0 204.89543 572.0 206.0Z" fill-rule="nonzero"/><path stroke="#000000" stroke-width="2.0" stroke-linecap="butt" stroke-opacity="0.0" clip-path="url(#id_0)" d="M207.0 346.0L165.0 346.0L165.0 222.0C165.0 220.89543 165.89543 220.0 167.0 220.0L205.0 220.0C206.10457 220.0 207.0 220.89543 207.0 222.0Z" fill-rule="nonzero"/><path fill="#db4437" clip-path="url(#id_0)" d="M207.0 346.0L165.0 346.0L165.0 222.0C165.0 220.89543 165.89543 220.0 167.0 220.0L205.0 220.0C206.10457 220.0 207.0 220.89543 207.0 222.0Z" fill-rule="nonzero"/><path stroke="#000000" stroke-width="2.0" stroke-linecap="butt" stroke-opacity="0.0" clip-path="url(#id_0)" d="M343.0 346.0L301.0 346.0L301.0 145.0C301.0 143.89543 301.89542 143.0 303.0 143.0L341.0 143.0C342.10458 143.0 343.0 143.89543 343.0 145.0Z" fill-rule="nonzero"/><path fill="#db4437" clip-path="url(#id_0)" d="M343.0 346.0L301.0 346.0L301.0 145.0C301.0 143.89543 301.89542 143.0 303.0 143.0L341.0 143.0C342.10458 143.0 343.0 143.89543 343.0 145.0Z" fill-rule="nonzero"/><path stroke="#000000" stroke-width="2.0" stroke-linecap="butt" stroke-opacity="0.0" clip-path="url(#id_0)" d="M480.0 346.0L438.0 346.0L438.0 124.0C438.0 122.89543 438.89542 122.0 440.0 122.0L478.0 122.0C479.10458 122.0 480.0 122.89543 480.0 124.0Z" fill-rule="nonzero"/><path fill="#db4437" clip-path="url(#id_0)" d="M480.0 346.0L438.0 346.0L438.0 124.0C438.0 122.89543 438.89542 122.0 440.0 122.0L478.0 122.0C479.10458 122.0 480.0 122.89543 480.0 124.0Z" fill-rule="nonzero"/><path stroke="#000000" stroke-width="2.0" stroke-linecap="butt" stroke-opacity="0.0" clip-path="url(#id_0)" d="M616.0 346.0L574.0 346.0L574.0 119.0C574.0 117.89543 574.89545 117.0 576.0 117.0L614.0 117.0C615.10455 117.0 616.0 117.89543 616.0 119.0Z" fill-rule="nonzero"/><path fill="#db4437" clip-path="url(#id_0)" d="M616.0 346.0L574.0 346.0L574.0 119.0C574.0 117.89543 574.89545 117.0 576.0 117.0L614.0 117.0C615.10455 117.0 616.0 117.89543 616.0 119.0Z" fill-rule="nonzero"/><path fill="#424242" d="M353.4375 388.41876L356.23438 395.3719L359.01562 388.41876L360.48438 388.41876L360.48438 396.95L359.35938 396.95L359.35938 393.6219L359.46875 390.04376L356.65625 396.95L355.79688 396.95L353.0 390.0594L353.10938 393.6219L353.10938 396.95L351.98438 396.95L351.98438 388.41876L353.4375 388.41876ZM361.53125 393.71564Q361.53125 392.79376 361.89062 392.04376Q362.26562 391.29376 362.92188 390.90314Q363.57812 390.4969 364.40625 390.4969Q365.70312 390.4969 366.5 391.3875Q367.3125 392.27814 367.3125 393.77814L367.3125 393.85626Q367.3125 394.77814 366.95312 395.5125Q366.59375 396.2469 365.9375 396.66876Q365.28125 397.075 364.42188 397.075Q363.14062 397.075 362.32812 396.1844Q361.53125 395.27814 361.53125 393.79376L361.53125 393.71564ZM362.625 393.85626Q362.625 394.90314 363.10938 395.54376Q363.60938 396.1844 364.42188 396.1844Q365.25 396.1844 365.73438 395.54376Q366.21875 394.8875 366.21875 393.71564Q366.21875 392.6844 365.71875 392.04376Q365.23438 391.3875 364.40625 391.3875Q363.60938 391.3875 363.10938 392.02814Q362.625 392.65314 362.625 393.85626ZM369.84375 390.60626L369.875 391.40314Q370.60938 390.4969 371.78125 390.4969Q373.79688 390.4969 373.8125 392.7625L373.8125 396.95L372.71875 396.95L372.71875 392.7469Q372.71875 392.075 372.40625 391.7469Q372.10938 391.41876 371.45312 391.41876Q370.92188 391.41876 370.51562 391.7Q370.125 391.98126 369.90625 392.4344L369.90625 396.95L368.82812 396.95L368.82812 390.60626L369.84375 390.60626ZM377.29688 389.075L377.29688 390.60626L378.46875 390.60626L378.46875 391.45L377.29688 391.45L377.29688 395.3719Q377.29688 395.7625 377.45312 395.95Q377.60938 396.1375 377.98438 396.1375Q378.17188 396.1375 378.5 396.075L378.5 396.95Q378.07812 397.075 377.67188 397.075Q376.95312 397.075 376.57812 396.6375Q376.20312 396.1844 376.20312 395.3719L376.20312 391.45L375.04688 391.45L375.04688 390.60626L376.20312 390.60626L376.20312 389.075L377.29688 389.075ZM380.90625 391.3719Q381.625 390.4969 382.78125 390.4969Q384.79688 390.4969 384.8125 392.7625L384.8125 396.95L383.71875 396.95L383.71875 392.7469Q383.71875 392.075 383.40625 391.7469Q383.10938 391.41876 382.45312 391.41876Q381.92188 391.41876 381.51562 391.7Q381.125 391.98126 380.90625 392.4344L380.90625 396.95L379.82812 396.95L379.82812 387.95L380.90625 387.95L380.90625 391.3719Z" fill-rule="nonzero"/><path fill="#757575" d="M40.065624 348.2469Q40.065624 347.71564 39.690624 347.35626Q39.315624 346.98126 38.409374 346.66876Q37.159374 346.29376 36.58125 345.6844Q36.01875 345.075 36.01875 344.1219Q36.01875 343.16876 36.58125 342.5594Q37.14375 341.9344 38.128124 341.825L38.128124 340.52814L38.9875 340.52814L38.9875 341.825Q39.971874 341.96564 40.51875 342.65314Q41.08125 343.34064 41.08125 344.54376L40.003124 344.54376Q40.003124 343.71564 39.596874 343.23126Q39.20625 342.7469 38.55 342.7469Q37.846874 342.7469 37.471874 343.10626Q37.1125 343.46564 37.1125 344.10626Q37.1125 344.7 37.503124 345.0594Q37.89375 345.41876 38.784374 345.71564Q39.675 345.9969 40.175 346.35626Q40.675 346.7 40.909374 347.16876Q41.14375 347.6219 41.14375 348.2469Q41.14375 349.23126 40.55 349.84064Q39.95625 350.4344 38.89375 350.54376L38.89375 351.66876L38.01875 351.66876L38.01875 350.54376Q36.925 350.45 36.3 349.77814Q35.690624 349.09064 35.690624 347.9344L36.784374 347.9344Q36.784374 348.7469 37.20625 349.1844Q37.628124 349.6219 38.425 349.6219Q39.190624 349.6219 39.628124 349.2625Q40.065624 348.8875 40.065624 348.2469ZM48.1125 346.8094Q48.1125 348.71564 47.45625 349.65314Q46.815624 350.575 45.425 350.575Q44.065624 350.575 43.409374 349.66876Q42.753124 348.7625 42.721874 346.95L42.721874 345.5125Q42.721874 343.6219 43.3625 342.71564Q44.01875 341.79376 45.409374 341.79376Q46.784374 341.79376 47.440624 342.6844Q48.096874 343.5594 48.1125 345.40314L48.1125 346.8094ZM47.01875 345.325Q47.01875 343.95 46.628124 343.325Q46.253124 342.6844 45.409374 342.6844Q44.58125 342.6844 44.190624 343.325Q43.815624 343.95 43.815624 345.2469L43.815624 346.98126Q43.815624 348.35626 44.20625 349.02814Q44.6125 349.6844 45.425 349.6844Q46.221874 349.6844 46.6125 349.0594Q47.003124 348.4344 47.01875 347.10626L47.01875 345.325ZM49.89375 349.8875Q49.89375 349.60626 50.05 349.41876Q50.221874 349.23126 50.55 349.23126Q50.89375 349.23126 51.065624 349.41876Q51.2375 349.60626 51.2375 349.8875Q51.2375 350.15314 51.065624 350.34064Q50.89375 350.5125 50.55 350.5125Q50.221874 350.5125 50.05 350.34064Q49.89375 350.15314 49.89375 349.8875ZM58.1125 346.8094Q58.1125 348.71564 57.45625 349.65314Q56.815624 350.575 55.425 350.575Q54.065624 350.575 53.409374 349.66876Q52.753124 348.7625 52.721874 346.95L52.721874 345.5125Q52.721874 343.6219 53.3625 342.71564Q54.01875 341.79376 55.409374 341.79376Q56.784374 341.79376 57.440624 342.6844Q58.096874 343.5594 58.1125 345.40314L58.1125 346.8094ZM57.01875 345.325Q57.01875 343.95 56.628124 343.325Q56.253124 342.6844 55.409374 342.6844Q54.58125 342.6844 54.190624 343.325Q53.815624 343.95 53.815624 345.2469L53.815624 346.98126Q53.815624 348.35626 54.20625 349.02814Q54.6125 349.6844 55.425 349.6844Q56.221874 349.6844 56.6125 349.0594Q57.003124 348.4344 57.01875 347.10626L57.01875 345.325ZM65.1125 346.8094Q65.1125 348.71564 64.45625 349.65314Q63.815624 350.575 62.425 350.575Q61.065624 350.575 60.409374 349.66876Q59.753124 348.7625 59.721874 346.95L59.721874 345.5125Q59.721874 343.6219 60.3625 342.71564Q61.01875 341.79376 62.409374 341.79376Q63.784374 341.79376 64.44063 342.6844Q65.09688 343.5594 65.1125 345.40314L65.1125 346.8094ZM64.01875 345.325Q64.01875 343.95 63.628124 343.325Q63.253124 342.6844 62.409374 342.6844Q61.58125 342.6844 61.190624 343.325Q60.815624 343.95 60.815624 345.2469L60.815624 346.98126Q60.815624 348.35626 61.20625 349.02814Q61.6125 349.6844 62.425 349.6844Q63.221874 349.6844 63.6125 349.0594Q64.00313 348.4344 64.01875 347.10626L64.01875 345.325Z" fill-rule="nonzero"/><path fill="#757575" d="M26.065624 285.66354Q26.065624 285.1323 25.690624 284.77292Q25.315624 284.39792 24.409374 284.08542Q23.159374 283.71042 22.58125 283.10104Q22.01875 282.49167 22.01875 281.53854Q22.01875 280.58542 22.58125 279.97604Q23.14375 279.35104 24.128124 279.24167L24.128124 277.9448L24.9875 277.9448L24.9875 279.24167Q25.971874 279.3823 26.51875 280.0698Q27.08125 280.7573 27.08125 281.96042L26.003124 281.96042Q26.003124 281.1323 25.596874 280.64792Q25.20625 280.16354 24.55 280.16354Q23.846874 280.16354 23.471874 280.52292Q23.1125 280.8823 23.1125 281.52292Q23.1125 282.11667 23.503124 282.47604Q23.89375 282.83542 24.784374 283.1323Q25.675 283.41354 26.175 283.77292Q26.675 284.11667 26.909374 284.58542Q27.14375 285.03854 27.14375 285.66354Q27.14375 286.64792 26.55 287.2573Q25.95625 287.85104 24.89375 287.96042L24.89375 289.08542L24.01875 289.08542L24.01875 287.96042Q22.925 287.86667 22.3 287.1948Q21.690624 286.5073 21.690624 285.35104L22.784374 285.35104Q22.784374 286.16354 23.20625 286.60104Q23.628124 287.03854 24.425 287.03854Q25.190624 287.03854 25.628124 286.67917Q26.065624 286.30417 26.065624 285.66354ZM34.346874 287.86667L28.753124 287.86667L28.753124 287.08542L31.70625 283.80417Q32.3625 283.05417 32.6125 282.60104Q32.8625 282.1323 32.8625 281.6323Q32.8625 280.96042 32.45625 280.53854Q32.065624 280.10104 31.378124 280.10104Q30.58125 280.10104 30.128124 280.5698Q29.675 281.02292 29.675 281.85104L28.596874 281.85104Q28.596874 280.66354 29.346874 279.9448Q30.1125 279.21042 31.378124 279.21042Q32.58125 279.21042 33.26875 279.83542Q33.95625 280.46042 33.95625 281.5073Q33.95625 282.7573 32.346874 284.5073L30.065624 286.97604L34.346874 286.97604L34.346874 287.86667ZM41.1125 284.22604Q41.1125 286.1323 40.45625 287.0698Q39.815624 287.99167 38.425 287.99167Q37.065624 287.99167 36.409374 287.08542Q35.753124 286.17917 35.721874 284.36667L35.721874 282.92917Q35.721874 281.03854 36.3625 280.1323Q37.01875 279.21042 38.409374 279.21042Q39.784374 279.21042 40.440624 280.10104Q41.096874 280.97604 41.1125 282.8198L41.1125 284.22604ZM40.01875 282.74167Q40.01875 281.36667 39.628124 280.74167Q39.253124 280.10104 38.409374 280.10104Q37.58125 280.10104 37.190624 280.74167Q36.815624 281.36667 36.815624 282.66354L36.815624 284.39792Q36.815624 285.77292 37.20625 286.4448Q37.6125 287.10104 38.425 287.10104Q39.221874 287.10104 39.6125 286.47604Q40.003124 285.85104 40.01875 284.52292L40.01875 282.74167ZM48.1125 284.22604Q48.1125 286.1323 47.45625 287.0698Q46.815624 287.99167 45.425 287.99167Q44.065624 287.99167 43.409374 287.08542Q42.753124 286.17917 42.721874 284.36667L42.721874 282.92917Q42.721874 281.03854 43.3625 280.1323Q44.01875 279.21042 45.409374 279.21042Q46.784374 279.21042 47.440624 280.10104Q48.096874 280.97604 48.1125 282.8198L48.1125 284.22604ZM47.01875 282.74167Q47.01875 281.36667 46.628124 280.74167Q46.253124 280.10104 45.409374 280.10104Q44.58125 280.10104 44.190624 280.74167Q43.815624 281.36667 43.815624 282.66354L43.815624 284.39792Q43.815624 285.77292 44.20625 286.4448Q44.6125 287.10104 45.425 287.10104Q46.221874 287.10104 46.6125 286.47604Q47.003124 285.85104 47.01875 284.52292L47.01875 282.74167ZM49.89375 287.30417Q49.89375 287.02292 50.05 286.83542Q50.221874 286.64792 50.55 286.64792Q50.89375 286.64792 51.065624 286.83542Q51.2375 287.02292 51.2375 287.30417Q51.2375 287.5698 51.065624 287.7573Q50.89375 287.92917 50.55 287.92917Q50.221874 287.92917 50.05 287.7573Q49.89375 287.5698 49.89375 287.30417ZM58.1125 284.22604Q58.1125 286.1323 57.45625 287.0698Q56.815624 287.99167 55.425 287.99167Q54.065624 287.99167 53.409374 287.08542Q52.753124 286.17917 52.721874 284.36667L52.721874 282.92917Q52.721874 281.03854 53.3625 280.1323Q54.01875 279.21042 55.409374 279.21042Q56.784374 279.21042 57.440624 280.10104Q58.096874 280.97604 58.1125 282.8198L58.1125 284.22604ZM57.01875 282.74167Q57.01875 281.36667 56.628124 280.74167Q56.253124 280.10104 55.409374 280.10104Q54.58125 280.10104 54.190624 280.74167Q53.815624 281.36667 53.815624 282.66354L53.815624 284.39792Q53.815624 285.77292 54.20625 286.4448Q54.6125 287.10104 55.425 287.10104Q56.221874 287.10104 56.6125 286.47604Q57.003124 285.85104 57.01875 284.52292L57.01875 282.74167ZM65.1125 284.22604Q65.1125 286.1323 64.45625 287.0698Q63.815624 287.99167 62.425 287.99167Q61.065624 287.99167 60.409374 287.08542Q59.753124 286.17917 59.721874 284.36667L59.721874 282.92917Q59.721874 281.03854 60.3625 280.1323Q61.01875 279.21042 62.409374 279.21042Q63.784374 279.21042 64.44063 280.10104Q65.09688 280.97604 65.1125 282.8198L65.1125 284.22604ZM64.01875 282.74167Q64.01875 281.36667 63.628124 280.74167Q63.253124 280.10104 62.409374 280.10104Q61.58125 280.10104 61.190624 280.74167Q60.815624 281.36667 60.815624 282.66354L60.815624 284.39792Q60.815624 285.77292 61.20625 286.4448Q61.6125 287.10104 62.425 287.10104Q63.221874 287.10104 63.6125 286.47604Q64.00313 285.85104 64.01875 284.52292L64.01875 282.74167Z" fill-rule="nonzero"/><path fill="#757575" d="M26.065624 223.08022Q26.065624 222.54897 25.690624 222.18959Q25.315624 221.81459 24.409374 221.50209Q23.159374 221.12709 22.58125 220.51772Q22.01875 219.90834 22.01875 218.95522Q22.01875 218.00209 22.58125 217.39272Q23.14375 216.76772 24.128124 216.65834L24.128124 215.36147L24.9875 215.36147L24.9875 216.65834Q25.971874 216.79897 26.51875 217.48647Q27.08125 218.17397 27.08125 219.37709L26.003124 219.37709Q26.003124 218.54897 25.596874 218.06459Q25.20625 217.58022 24.55 217.58022Q23.846874 217.58022 23.471874 217.93959Q23.1125 218.29897 23.1125 218.93959Q23.1125 219.53334 23.503124 219.89272Q23.89375 220.25209 24.784374 220.54897Q25.675 220.83022 26.175 221.18959Q26.675 221.53334 26.909374 222.00209Q27.14375 222.45522 27.14375 223.08022Q27.14375 224.06459 26.55 224.67397Q25.95625 225.26772 24.89375 225.37709L24.89375 226.50209L24.01875 226.50209L24.01875 225.37709Q22.925 225.28334 22.3 224.61147Q21.690624 223.92397 21.690624 222.76772L22.784374 222.76772Q22.784374 223.58022 23.20625 224.01772Q23.628124 224.45522 24.425 224.45522Q25.190624 224.45522 25.628124 224.09584Q26.065624 223.72084 26.065624 223.08022ZM33.33125 222.42397L34.51875 222.42397L34.51875 223.29897L33.33125 223.29897L33.33125 225.28334L32.253124 225.28334L32.253124 223.29897L28.3625 223.29897L28.3625 222.65834L32.175 216.75209L33.33125 216.75209L33.33125 222.42397ZM29.596874 222.42397L32.253124 222.42397L32.253124 218.23647L32.1125 218.47084L29.596874 222.42397ZM41.1125 221.64272Q41.1125 223.54897 40.45625 224.48647Q39.815624 225.40834 38.425 225.40834Q37.065624 225.40834 36.409374 224.50209Q35.753124 223.59584 35.721874 221.78334L35.721874 220.34584Q35.721874 218.45522 36.3625 217.54897Q37.01875 216.62709 38.409374 216.62709Q39.784374 216.62709 40.440624 217.51772Q41.096874 218.39272 41.1125 220.23647L41.1125 221.64272ZM40.01875 220.15834Q40.01875 218.78334 39.628124 218.15834Q39.253124 217.51772 38.409374 217.51772Q37.58125 217.51772 37.190624 218.15834Q36.815624 218.78334 36.815624 220.08022L36.815624 221.81459Q36.815624 223.18959 37.20625 223.86147Q37.6125 224.51772 38.425 224.51772Q39.221874 224.51772 39.6125 223.89272Q40.003124 223.26772 40.01875 221.93959L40.01875 220.15834ZM48.1125 221.64272Q48.1125 223.54897 47.45625 224.48647Q46.815624 225.40834 45.425 225.40834Q44.065624 225.40834 43.409374 224.50209Q42.753124 223.59584 42.721874 221.78334L42.721874 220.34584Q42.721874 218.45522 43.3625 217.54897Q44.01875 216.62709 45.409374 216.62709Q46.784374 216.62709 47.440624 217.51772Q48.096874 218.39272 48.1125 220.23647L48.1125 221.64272ZM47.01875 220.15834Q47.01875 218.78334 46.628124 218.15834Q46.253124 217.51772 45.409374 217.51772Q44.58125 217.51772 44.190624 218.15834Q43.815624 218.78334 43.815624 220.08022L43.815624 221.81459Q43.815624 223.18959 44.20625 223.86147Q44.6125 224.51772 45.425 224.51772Q46.221874 224.51772 46.6125 223.89272Q47.003124 223.26772 47.01875 221.93959L47.01875 220.15834ZM49.89375 224.72084Q49.89375 224.43959 50.05 224.25209Q50.221874 224.06459 50.55 224.06459Q50.89375 224.06459 51.065624 224.25209Q51.2375 224.43959 51.2375 224.72084Q51.2375 224.98647 51.065624 225.17397Q50.89375 225.34584 50.55 225.34584Q50.221874 225.34584 50.05 225.17397Q49.89375 224.98647 49.89375 224.72084ZM58.1125 221.64272Q58.1125 223.54897 57.45625 224.48647Q56.815624 225.40834 55.425 225.40834Q54.065624 225.40834 53.409374 224.50209Q52.753124 223.59584 52.721874 221.78334L52.721874 220.34584Q52.721874 218.45522 53.3625 217.54897Q54.01875 216.62709 55.409374 216.62709Q56.784374 216.62709 57.440624 217.51772Q58.096874 218.39272 58.1125 220.23647L58.1125 221.64272ZM57.01875 220.15834Q57.01875 218.78334 56.628124 218.15834Q56.253124 217.51772 55.409374 217.51772Q54.58125 217.51772 54.190624 218.15834Q53.815624 218.78334 53.815624 220.08022L53.815624 221.81459Q53.815624 223.18959 54.20625 223.86147Q54.6125 224.51772 55.425 224.51772Q56.221874 224.51772 56.6125 223.89272Q57.003124 223.26772 57.01875 221.93959L57.01875 220.15834ZM65.1125 221.64272Q65.1125 223.54897 64.45625 224.48647Q63.815624 225.40834 62.425 225.40834Q61.065624 225.40834 60.409374 224.50209Q59.753124 223.59584 59.721874 221.78334L59.721874 220.34584Q59.721874 218.45522 60.3625 217.54897Q61.01875 216.62709 62.409374 216.62709Q63.784374 216.62709 64.44063 217.51772Q65.09688 218.39272 65.1125 220.23647L65.1125 221.64272ZM64.01875 220.15834Q64.01875 218.78334 63.628124 218.15834Q63.253124 217.51772 62.409374 217.51772Q61.58125 217.51772 61.190624 218.15834Q60.815624 218.78334 60.815624 220.08022L60.815624 221.81459Q60.815624 223.18959 61.20625 223.86147Q61.6125 224.51772 62.425 224.51772Q63.221874 224.51772 63.6125 223.89272Q64.00313 223.26772 64.01875 221.93959L64.01875 220.15834Z" fill-rule="nonzero"/><path fill="#757575" d="M26.065624 160.49687Q26.065624 159.96562 25.690624 159.60625Q25.315624 159.23125 24.409374 158.91875Q23.159374 158.54375 22.58125 157.93437Q22.01875 157.325 22.01875 156.37187Q22.01875 155.41875 22.58125 154.80937Q23.14375 154.18437 24.128124 154.075L24.128124 152.77812L24.9875 152.77812L24.9875 154.075Q25.971874 154.21562 26.51875 154.90312Q27.08125 155.59062 27.08125 156.79375L26.003124 156.79375Q26.003124 155.96562 25.596874 155.48125Q25.20625 154.99687 24.55 154.99687Q23.846874 154.99687 23.471874 155.35625Q23.1125 155.71562 23.1125 156.35625Q23.1125 156.95 23.503124 157.30937Q23.89375 157.66875 24.784374 157.96562Q25.675 158.24687 26.175 158.60625Q26.675 158.95 26.909374 159.41875Q27.14375 159.87187 27.14375 160.49687Q27.14375 161.48125 26.55 162.09062Q25.95625 162.68437 24.89375 162.79375L24.89375 163.91875L24.01875 163.91875L24.01875 162.79375Q22.925 162.7 22.3 162.02812Q21.690624 161.34062 21.690624 160.18437L22.784374 160.18437Q22.784374 160.99687 23.20625 161.43437Q23.628124 161.87187 24.425 161.87187Q25.190624 161.87187 25.628124 161.5125Q26.065624 161.1375 26.065624 160.49687ZM33.01875 154.16875L33.01875 155.075L32.815624 155.075Q31.55 155.10625 30.8 155.84062Q30.05 156.55937 29.925 157.87187Q30.6125 157.10625 31.76875 157.10625Q32.878124 157.10625 33.55 157.8875Q34.221874 158.66875 34.221874 159.91875Q34.221874 161.23125 33.503124 162.02812Q32.784374 162.825 31.565624 162.825Q30.346874 162.825 29.58125 161.8875Q28.83125 160.93437 28.83125 159.45L28.83125 159.04375Q28.83125 156.68437 29.83125 155.43437Q30.83125 154.18437 32.815624 154.16875L33.01875 154.16875ZM31.596874 158.0125Q31.034374 158.0125 30.565624 158.34062Q30.096874 158.66875 29.909374 159.18437L29.909374 159.575Q29.909374 160.6375 30.378124 161.27812Q30.8625 161.91875 31.565624 161.91875Q32.3 161.91875 32.721874 161.3875Q33.14375 160.84062 33.14375 159.96562Q33.14375 159.09062 32.721874 158.55937Q32.3 158.0125 31.596874 158.0125ZM41.1125 159.05937Q41.1125 160.96562 40.45625 161.90312Q39.815624 162.825 38.425 162.825Q37.065624 162.825 36.409374 161.91875Q35.753124 161.0125 35.721874 159.2L35.721874 157.7625Q35.721874 155.87187 36.3625 154.96562Q37.01875 154.04375 38.409374 154.04375Q39.784374 154.04375 40.440624 154.93437Q41.096874 155.80937 41.1125 157.65312L41.1125 159.05937ZM40.01875 157.575Q40.01875 156.2 39.628124 155.575Q39.253124 154.93437 38.409374 154.93437Q37.58125 154.93437 37.190624 155.575Q36.815624 156.2 36.815624 157.49687L36.815624 159.23125Q36.815624 160.60625 37.20625 161.27812Q37.6125 161.93437 38.425 161.93437Q39.221874 161.93437 39.6125 161.30937Q40.003124 160.68437 40.01875 159.35625L40.01875 157.575ZM48.1125 159.05937Q48.1125 160.96562 47.45625 161.90312Q46.815624 162.825 45.425 162.825Q44.065624 162.825 43.409374 161.91875Q42.753124 161.0125 42.721874 159.2L42.721874 157.7625Q42.721874 155.87187 43.3625 154.96562Q44.01875 154.04375 45.409374 154.04375Q46.784374 154.04375 47.440624 154.93437Q48.096874 155.80937 48.1125 157.65312L48.1125 159.05937ZM47.01875 157.575Q47.01875 156.2 46.628124 155.575Q46.253124 154.93437 45.409374 154.93437Q44.58125 154.93437 44.190624 155.575Q43.815624 156.2 43.815624 157.49687L43.815624 159.23125Q43.815624 160.60625 44.20625 161.27812Q44.6125 161.93437 45.425 161.93437Q46.221874 161.93437 46.6125 161.30937Q47.003124 160.68437 47.01875 159.35625L47.01875 157.575ZM49.89375 162.1375Q49.89375 161.85625 50.05 161.66875Q50.221874 161.48125 50.55 161.48125Q50.89375 161.48125 51.065624 161.66875Q51.2375 161.85625 51.2375 162.1375Q51.2375 162.40312 51.065624 162.59062Q50.89375 162.7625 50.55 162.7625Q50.221874 162.7625 50.05 162.59062Q49.89375 162.40312 49.89375 162.1375ZM58.1125 159.05937Q58.1125 160.96562 57.45625 161.90312Q56.815624 162.825 55.425 162.825Q54.065624 162.825 53.409374 161.91875Q52.753124 161.0125 52.721874 159.2L52.721874 157.7625Q52.721874 155.87187 53.3625 154.96562Q54.01875 154.04375 55.409374 154.04375Q56.784374 154.04375 57.440624 154.93437Q58.096874 155.80937 58.1125 157.65312L58.1125 159.05937ZM57.01875 157.575Q57.01875 156.2 56.628124 155.575Q56.253124 154.93437 55.409374 154.93437Q54.58125 154.93437 54.190624 155.575Q53.815624 156.2 53.815624 157.49687L53.815624 159.23125Q53.815624 160.60625 54.20625 161.27812Q54.6125 161.93437 55.425 161.93437Q56.221874 161.93437 56.6125 161.30937Q57.003124 160.68437 57.01875 159.35625L57.01875 157.575ZM65.1125 159.05937Q65.1125 160.96562 64.45625 161.90312Q63.815624 162.825 62.425 162.825Q61.065624 162.825 60.409374 161.91875Q59.753124 161.0125 59.721874 159.2L59.721874 157.7625Q59.721874 155.87187 60.3625 154.96562Q61.01875 154.04375 62.409374 154.04375Q63.784374 154.04375 64.44063 154.93437Q65.09688 155.80937 65.1125 157.65312L65.1125 159.05937ZM64.01875 157.575Q64.01875 156.2 63.628124 155.575Q63.253124 154.93437 62.409374 154.93437Q61.58125 154.93437 61.190624 155.575Q60.815624 156.2 60.815624 157.49687L60.815624 159.23125Q60.815624 160.60625 61.20625 161.27812Q61.6125 161.93437 62.425 161.93437Q63.221874 161.93437 63.6125 161.30937Q64.00313 160.68437 64.01875 159.35625L64.01875 157.575Z" fill-rule="nonzero"/><path fill="#757575" d="M26.065624 97.91354Q26.065624 97.38229 25.690624 97.02292Q25.315624 96.64792 24.409374 96.33542Q23.159374 95.96042 22.58125 95.35104Q22.01875 94.74167 22.01875 93.78854Q22.01875 92.83542 22.58125 92.22604Q23.14375 91.60104 24.128124 91.49167L24.128124 90.19479L24.9875 90.19479L24.9875 91.49167Q25.971874 91.63229 26.51875 92.31979Q27.08125 93.00729 27.08125 94.21042L26.003124 94.21042Q26.003124 93.38229 25.596874 92.89792Q25.20625 92.41354 24.55 92.41354Q23.846874 92.41354 23.471874 92.77292Q23.1125 93.13229 23.1125 93.77292Q23.1125 94.36667 23.503124 94.72604Q23.89375 95.08542 24.784374 95.38229Q25.675 95.66354 26.175 96.02292Q26.675 96.36667 26.909374 96.83542Q27.14375 97.28854 27.14375 97.91354Q27.14375 98.89792 26.55 99.50729Q25.95625 100.10104 24.89375 100.21042L24.89375 101.33542L24.01875 101.33542L24.01875 100.21042Q22.925 100.11667 22.3 99.44479Q21.690624 98.75729 21.690624 97.60104L22.784374 97.60104Q22.784374 98.41354 23.20625 98.85104Q23.628124 99.28854 24.425 99.28854Q25.190624 99.28854 25.628124 98.92917Q26.065624 98.55417 26.065624 97.91354ZM33.940624 93.80417Q33.940624 94.44479 33.596874 94.94479Q33.253124 95.44479 32.690624 95.72604Q33.346874 96.00729 33.7375 96.56979Q34.128124 97.11667 34.128124 97.81979Q34.128124 98.91354 33.378124 99.58542Q32.64375 100.24167 31.425 100.24167Q30.190624 100.24167 29.440624 99.58542Q28.70625 98.91354 28.70625 97.81979Q28.70625 97.11667 29.08125 96.56979Q29.45625 96.00729 30.128124 95.72604Q29.565624 95.44479 29.2375 94.94479Q28.909374 94.44479 28.909374 93.80417Q28.909374 92.72604 29.596874 92.10104Q30.284374 91.46042 31.425 91.46042Q32.55 91.46042 33.2375 92.10104Q33.940624 92.72604 33.940624 93.80417ZM33.05 97.78854Q33.05 97.06979 32.596874 96.63229Q32.14375 96.17917 31.409374 96.17917Q30.675 96.17917 30.221874 96.63229Q29.784374 97.06979 29.784374 97.80417Q29.784374 98.52292 30.221874 98.94479Q30.659374 99.35104 31.425 99.35104Q32.175 99.35104 32.6125 98.92917Q33.05 98.50729 33.05 97.78854ZM31.425 92.35104Q30.784374 92.35104 30.378124 92.75729Q29.9875 93.14792 29.9875 93.83542Q29.9875 94.47604 30.378124 94.88229Q30.76875 95.28854 31.409374 95.28854Q32.065624 95.28854 32.45625 94.88229Q32.846874 94.47604 32.846874 93.83542Q32.846874 93.17917 32.440624 92.77292Q32.034374 92.35104 31.425 92.35104ZM41.1125 96.47604Q41.1125 98.38229 40.45625 99.31979Q39.815624 100.24167 38.425 100.24167Q37.065624 100.24167 36.409374 99.33542Q35.753124 98.42917 35.721874 96.61667L35.721874 95.17917Q35.721874 93.28854 36.3625 92.38229Q37.01875 91.46042 38.409374 91.46042Q39.784374 91.46042 40.440624 92.35104Q41.096874 93.22604 41.1125 95.06979L41.1125 96.47604ZM40.01875 94.99167Q40.01875 93.61667 39.628124 92.99167Q39.253124 92.35104 38.409374 92.35104Q37.58125 92.35104 37.190624 92.99167Q36.815624 93.61667 36.815624 94.91354L36.815624 96.64792Q36.815624 98.02292 37.20625 98.69479Q37.6125 99.35104 38.425 99.35104Q39.221874 99.35104 39.6125 98.72604Q40.003124 98.10104 40.01875 96.77292L40.01875 94.99167ZM48.1125 96.47604Q48.1125 98.38229 47.45625 99.31979Q46.815624 100.24167 45.425 100.24167Q44.065624 100.24167 43.409374 99.33542Q42.753124 98.42917 42.721874 96.61667L42.721874 95.17917Q42.721874 93.28854 43.3625 92.38229Q44.01875 91.46042 45.409374 91.46042Q46.784374 91.46042 47.440624 92.35104Q48.096874 93.22604 48.1125 95.06979L48.1125 96.47604ZM47.01875 94.99167Q47.01875 93.61667 46.628124 92.99167Q46.253124 92.35104 45.409374 92.35104Q44.58125 92.35104 44.190624 92.99167Q43.815624 93.61667 43.815624 94.91354L43.815624 96.64792Q43.815624 98.02292 44.20625 98.69479Q44.6125 99.35104 45.425 99.35104Q46.221874 99.35104 46.6125 98.72604Q47.003124 98.10104 47.01875 96.77292L47.01875 94.99167ZM49.89375 99.55417Q49.89375 99.27292 50.05 99.08542Q50.221874 98.89792 50.55 98.89792Q50.89375 98.89792 51.065624 99.08542Q51.2375 99.27292 51.2375 99.55417Q51.2375 99.81979 51.065624 100.00729Q50.89375 100.17917 50.55 100.17917Q50.221874 100.17917 50.05 100.00729Q49.89375 99.81979 49.89375 99.55417ZM58.1125 96.47604Q58.1125 98.38229 57.45625 99.31979Q56.815624 100.24167 55.425 100.24167Q54.065624 100.24167 53.409374 99.33542Q52.753124 98.42917 52.721874 96.61667L52.721874 95.17917Q52.721874 93.28854 53.3625 92.38229Q54.01875 91.46042 55.409374 91.46042Q56.784374 91.46042 57.440624 92.35104Q58.096874 93.22604 58.1125 95.06979L58.1125 96.47604ZM57.01875 94.99167Q57.01875 93.61667 56.628124 92.99167Q56.253124 92.35104 55.409374 92.35104Q54.58125 92.35104 54.190624 92.99167Q53.815624 93.61667 53.815624 94.91354L53.815624 96.64792Q53.815624 98.02292 54.20625 98.69479Q54.6125 99.35104 55.425 99.35104Q56.221874 99.35104 56.6125 98.72604Q57.003124 98.10104 57.01875 96.77292L57.01875 94.99167ZM65.1125 96.47604Q65.1125 98.38229 64.45625 99.31979Q63.815624 100.24167 62.425 100.24167Q61.065624 100.24167 60.409374 99.33542Q59.753124 98.42917 59.721874 96.61667L59.721874 95.17917Q59.721874 93.28854 60.3625 92.38229Q61.01875 91.46042 62.409374 91.46042Q63.784374 91.46042 64.44063 92.35104Q65.09688 93.22604 65.1125 95.06979L65.1125 96.47604ZM64.01875 94.99167Q64.01875 93.61667 63.628124 92.99167Q63.253124 92.35104 62.409374 92.35104Q61.58125 92.35104 61.190624 92.99167Q60.815624 93.61667 60.815624 94.91354L60.815624 96.64792Q60.815624 98.02292 61.20625 98.69479Q61.6125 99.35104 62.425 99.35104Q63.221874 99.35104 63.6125 98.72604Q64.00313 98.10104 64.01875 96.77292L64.01875 94.99167Z" fill-rule="nonzero"/><path fill="#757575" d="M130.61423 355.41876L131.75485 355.41876L131.75485 361.46564Q131.75485 362.6844 131.00485 363.3875Q130.27048 364.075 129.05173 364.075Q127.7861 364.075 127.06735 363.41876Q126.36423 362.7625 126.36423 361.59064L127.48923 361.59064Q127.48923 362.325 127.87985 362.7469Q128.2861 363.15314 129.05173 363.15314Q129.75485 363.15314 130.17673 362.71564Q130.61423 362.2625 130.61423 361.48126L130.61423 355.41876ZM137.7861 363.95Q137.69235 363.7625 137.62985 363.27814Q136.87985 364.075 135.83298 364.075Q134.89548 364.075 134.2861 363.54376Q133.69235 363.0125 133.69235 362.1844Q133.69235 361.2 134.44235 360.65314Q135.19235 360.10626 136.56735 360.10626L137.61423 360.10626L137.61423 359.60626Q137.61423 359.04376 137.27048 358.71564Q136.94235 358.3719 136.27048 358.3719Q135.69235 358.3719 135.30173 358.66876Q134.9111 358.95 134.9111 359.3719L133.81735 359.3719Q133.81735 358.8875 134.14548 358.45Q134.48923 358.0125 135.06735 357.7625Q135.64548 357.4969 136.33298 357.4969Q137.44235 357.4969 138.05173 358.04376Q138.67673 358.59064 138.70798 359.54376L138.70798 362.46564Q138.70798 363.34064 138.92673 363.85626L138.92673 363.95L137.7861 363.95ZM135.98923 363.1219Q136.50485 363.1219 136.95798 362.85626Q137.4111 362.59064 137.61423 362.16876L137.61423 360.8719L136.77048 360.8719Q134.77048 360.8719 134.77048 362.04376Q134.77048 362.54376 135.11423 362.84064Q135.45798 363.1219 135.98923 363.1219ZM141.89548 357.60626L141.92673 358.40314Q142.6611 357.4969 143.83298 357.4969Q145.8486 357.4969 145.86423 359.7625L145.86423 363.95L144.77048 363.95L144.77048 359.7469Q144.77048 359.075 144.45798 358.7469Q144.1611 358.41876 143.50485 358.41876Q142.9736 358.41876 142.56735 358.7Q142.17673 358.98126 141.95798 359.4344L141.95798 363.95L140.87985 363.95L140.87985 357.60626L141.89548 357.60626ZM151.7861 363.325Q151.1611 364.075 149.92673 364.075Q148.9111 364.075 148.37985 363.48126Q147.8486 362.8875 147.8486 361.73126L147.8486 357.60626L148.92673 357.60626L148.92673 361.7Q148.92673 363.15314 150.0986 363.15314Q151.3486 363.15314 151.75485 362.21564L151.75485 357.60626L152.8486 357.60626L152.8486 363.95L151.81735 363.95L151.7861 363.325ZM158.7861 363.95Q158.69235 363.7625 158.62985 363.27814Q157.87985 364.075 156.83298 364.075Q155.89548 364.075 155.2861 363.54376Q154.69235 363.0125 154.69235 362.1844Q154.69235 361.2 155.44235 360.65314Q156.19235 360.10626 157.56735 360.10626L158.61423 360.10626L158.61423 359.60626Q158.61423 359.04376 158.27048 358.71564Q157.94235 358.3719 157.27048 358.3719Q156.69235 358.3719 156.30173 358.66876Q155.9111 358.95 155.9111 359.3719L154.81735 359.3719Q154.81735 358.8875 155.14548 358.45Q155.48923 358.0125 156.06735 357.7625Q156.64548 357.4969 157.33298 357.4969Q158.44235 357.4969 159.05173 358.04376Q159.67673 358.59064 159.70798 359.54376L159.70798 362.46564Q159.70798 363.34064 159.92673 363.85626L159.92673 363.95L158.7861 363.95ZM156.98923 363.1219Q157.50485 363.1219 157.95798 362.85626Q158.4111 362.59064 158.61423 362.16876L158.61423 360.8719L157.77048 360.8719Q155.77048 360.8719 155.77048 362.04376Q155.77048 362.54376 156.11423 362.84064Q156.45798 363.1219 156.98923 363.1219ZM164.94235 358.575Q164.69235 358.54376 164.4111 358.54376Q163.33298 358.54376 162.95798 359.45L162.95798 363.95L161.87985 363.95L161.87985 357.60626L162.92673 357.60626L162.94235 358.34064Q163.4736 357.4969 164.45798 357.4969Q164.77048 357.4969 164.94235 357.575L164.94235 358.575ZM167.94235 362.35626L169.42673 357.60626L170.58298 357.60626L168.0361 364.9344Q167.44235 366.5125 166.1611 366.5125L165.94235 366.4969L165.55173 366.41876L165.55173 365.54376L165.83298 365.5594Q166.39548 365.5594 166.69235 365.34064Q167.00485 365.1219 167.20798 364.52814L167.44235 363.8719L165.17673 357.60626L166.36423 357.60626L167.94235 362.35626ZM180.3486 363.95L174.75485 363.95L174.75485 363.16876L177.70798 359.8875Q178.36423 359.1375 178.61423 358.6844Q178.86423 358.21564 178.86423 357.71564Q178.86423 357.04376 178.45798 356.6219Q178.06735 356.1844 177.37985 356.1844Q176.58298 356.1844 176.12985 356.65314Q175.67673 357.10626 175.67673 357.9344L174.5986 357.9344Q174.5986 356.7469 175.3486 356.02814Q176.11423 355.29376 177.37985 355.29376Q178.58298 355.29376 179.27048 355.91876Q179.95798 356.54376 179.95798 357.59064Q179.95798 358.84064 178.3486 360.59064L176.06735 363.0594L180.3486 363.0594L180.3486 363.95ZM187.11423 360.3094Q187.11423 362.21564 186.45798 363.15314Q185.81735 364.075 184.42673 364.075Q183.06735 364.075 182.4111 363.16876Q181.75485 362.2625 181.7236 360.45L181.7236 359.0125Q181.7236 357.1219 182.36423 356.21564Q183.02048 355.29376 184.4111 355.29376Q185.7861 355.29376 186.44235 356.1844Q187.0986 357.0594 187.11423 358.90314L187.11423 360.3094ZM186.02048 358.825Q186.02048 357.45 185.62985 356.825Q185.25485 356.1844 184.4111 356.1844Q183.58298 356.1844 183.19235 356.825Q182.81735 357.45 182.81735 358.7469L182.81735 360.48126Q182.81735 361.85626 183.20798 362.52814Q183.61423 363.1844 184.42673 363.1844Q185.2236 363.1844 185.61423 362.5594Q186.00485 361.9344 186.02048 360.60626L186.02048 358.825ZM194.3486 363.95L188.75485 363.95L188.75485 363.16876L191.70798 359.8875Q192.36423 359.1375 192.61423 358.6844Q192.86423 358.21564 192.86423 357.71564Q192.86423 357.04376 192.45798 356.6219Q192.06735 356.1844 191.37985 356.1844Q190.58298 356.1844 190.12985 356.65314Q189.67673 357.10626 189.67673 357.9344L188.5986 357.9344Q188.5986 356.7469 189.3486 356.02814Q190.11423 355.29376 191.37985 355.29376Q192.58298 355.29376 193.27048 355.91876Q193.95798 356.54376 193.95798 357.59064Q193.95798 358.84064 192.3486 360.59064L190.06735 363.0594L194.3486 363.0594L194.3486 363.95ZM199.31735 363.95L198.23923 363.95L198.23923 356.73126L196.05173 357.52814L196.05173 356.54376L199.1611 355.3719L199.31735 355.3719L199.31735 363.95Z" fill-rule="nonzero"/><path fill="#757575" d="M266.5537 360.1844L262.95996 360.1844L262.95996 363.95L261.83496 363.95L261.83496 355.41876L267.13184 355.41876L267.13184 356.34064L262.95996 356.34064L262.95996 359.2625L266.5537 359.2625L266.5537 360.1844ZM271.3037 364.075Q270.00684 364.075 269.19434 363.23126Q268.39746 362.3719 268.39746 360.95L268.39746 360.7625Q268.39746 359.8094 268.75684 359.075Q269.1162 358.325 269.75684 357.91876Q270.4131 357.4969 271.1631 357.4969Q272.39746 357.4969 273.08496 358.3094Q273.77246 359.1219 273.77246 360.6375L273.77246 361.09064L269.4756 361.09064Q269.50684 362.02814 270.02246 362.60626Q270.5537 363.1844 271.3662 363.1844Q271.9287 363.1844 272.31934 362.95Q272.7256 362.71564 273.0381 362.325L273.69434 362.84064Q272.89746 364.075 271.3037 364.075ZM271.1631 358.3875Q270.50684 358.3875 270.0537 358.8719Q269.6162 359.34064 269.52246 360.2L272.69434 360.2L272.69434 360.1219Q272.64746 359.29376 272.2412 358.84064Q271.8506 358.3875 271.1631 358.3875ZM280.0381 360.85626Q280.0381 362.3094 279.3662 363.2Q278.70996 364.075 277.58496 364.075Q276.38184 364.075 275.7256 363.21564L275.6631 363.95L274.6787 363.95L274.6787 354.95L275.75684 354.95L275.75684 358.3094Q276.4131 357.4969 277.56934 357.4969Q278.7256 357.4969 279.38184 358.3719Q280.0381 359.23126 280.0381 360.7625L280.0381 360.85626ZM278.95996 360.73126Q278.95996 359.6219 278.52246 359.02814Q278.1006 358.41876 277.3037 358.41876Q276.2256 358.41876 275.75684 359.40314L275.75684 362.15314Q276.25684 363.15314 277.3037 363.15314Q278.08496 363.15314 278.52246 362.54376Q278.95996 361.9344 278.95996 360.73126ZM284.7412 358.575Q284.4912 358.54376 284.20996 358.54376Q283.13184 358.54376 282.75684 359.45L282.75684 363.95L281.6787 363.95L281.6787 357.60626L282.7256 357.60626L282.7412 358.34064Q283.27246 357.4969 284.25684 357.4969Q284.56934 357.4969 284.7412 357.575L284.7412 358.575ZM289.58496 363.325Q288.95996 364.075 287.7256 364.075Q286.70996 364.075 286.1787 363.48126Q285.64746 362.8875 285.64746 361.73126L285.64746 357.60626L286.7256 357.60626L286.7256 361.7Q286.7256 363.15314 287.89746 363.15314Q289.14746 363.15314 289.5537 362.21564L289.5537 357.60626L290.64746 357.60626L290.64746 363.95L289.6162 363.95L289.58496 363.325ZM296.58496 363.95Q296.4912 363.7625 296.4287 363.27814Q295.6787 364.075 294.63184 364.075Q293.69434 364.075 293.08496 363.54376Q292.4912 363.0125 292.4912 362.1844Q292.4912 361.2 293.2412 360.65314Q293.9912 360.10626 295.3662 360.10626L296.4131 360.10626L296.4131 359.60626Q296.4131 359.04376 296.06934 358.71564Q295.7412 358.3719 295.06934 358.3719Q294.4912 358.3719 294.1006 358.66876Q293.70996 358.95 293.70996 359.3719L292.6162 359.3719Q292.6162 358.8875 292.94434 358.45Q293.2881 358.0125 293.8662 357.7625Q294.44434 357.4969 295.13184 357.4969Q296.2412 357.4969 296.8506 358.04376Q297.4756 358.59064 297.50684 359.54376L297.50684 362.46564Q297.50684 363.34064 297.7256 363.85626L297.7256 363.95L296.58496 363.95ZM294.7881 363.1219Q295.3037 363.1219 295.75684 362.85626Q296.20996 362.59064 296.4131 362.16876L296.4131 360.8719L295.56934 360.8719Q293.56934 360.8719 293.56934 362.04376Q293.56934 362.54376 293.9131 362.84064Q294.25684 363.1219 294.7881 363.1219ZM302.7412 358.575Q302.4912 358.54376 302.20996 358.54376Q301.13184 358.54376 300.75684 359.45L300.75684 363.95L299.6787 363.95L299.6787 357.60626L300.7256 357.60626L300.7412 358.34064Q301.27246 357.4969 302.25684 357.4969Q302.56934 357.4969 302.7412 357.575L302.7412 358.575ZM305.7412 362.35626L307.2256 357.60626L308.38184 357.60626L305.83496 364.9344Q305.2412 366.5125 303.95996 366.5125L303.7412 366.4969L303.3506 366.41876L303.3506 365.54376L303.63184 365.5594Q304.19434 365.5594 304.4912 365.34064Q304.8037 365.1219 305.00684 364.52814L305.2412 363.8719L302.9756 357.60626L304.1631 357.60626L305.7412 362.35626ZM318.14746 363.95L312.5537 363.95L312.5537 363.16876L315.50684 359.8875Q316.1631 359.1375 316.4131 358.6844Q316.6631 358.21564 316.6631 357.71564Q316.6631 357.04376 316.25684 356.6219Q315.8662 356.1844 315.1787 356.1844Q314.38184 356.1844 313.9287 356.65314Q313.4756 357.10626 313.4756 357.9344L312.39746 357.9344Q312.39746 356.7469 313.14746 356.02814Q313.9131 355.29376 315.1787 355.29376Q316.38184 355.29376 317.06934 355.91876Q317.75684 356.54376 317.75684 357.59064Q317.75684 358.84064 316.14746 360.59064L313.8662 363.0594L318.14746 363.0594L318.14746 363.95ZM324.9131 360.3094Q324.9131 362.21564 324.25684 363.15314Q323.6162 364.075 322.2256 364.075Q320.8662 364.075 320.20996 363.16876Q319.5537 362.2625 319.52246 360.45L319.52246 359.0125Q319.52246 357.1219 320.1631 356.21564Q320.81934 355.29376 322.20996 355.29376Q323.58496 355.29376 324.2412 356.1844Q324.89746 357.0594 324.9131 358.90314L324.9131 360.3094ZM323.81934 358.825Q323.81934 357.45 323.4287 356.825Q323.0537 356.1844 322.20996 356.1844Q321.38184 356.1844 320.9912 356.825Q320.6162 357.45 320.6162 358.7469L320.6162 360.48126Q320.6162 361.85626 321.00684 362.52814Q321.4131 363.1844 322.2256 363.1844Q323.02246 363.1844 323.4131 362.5594Q323.8037 361.9344 323.81934 360.60626L323.81934 358.825ZM332.14746 363.95L326.5537 363.95L326.5537 363.16876L329.50684 359.8875Q330.1631 359.1375 330.4131 358.6844Q330.6631 358.21564 330.6631 357.71564Q330.6631 357.04376 330.25684 356.6219Q329.8662 356.1844 329.1787 356.1844Q328.38184 356.1844 327.9287 356.65314Q327.4756 357.10626 327.4756 357.9344L326.39746 357.9344Q326.39746 356.7469 327.14746 356.02814Q327.9131 355.29376 329.1787 355.29376Q330.38184 355.29376 331.06934 355.91876Q331.75684 356.54376 331.75684 357.59064Q331.75684 358.84064 330.14746 360.59064L327.8662 363.0594L332.14746 363.0594L332.14746 363.95ZM337.1162 363.95L336.0381 363.95L336.0381 356.73126L333.8506 357.52814L333.8506 356.54376L336.95996 355.3719L337.1162 355.3719L337.1162 363.95Z" fill-rule="nonzero"/><path fill="#757575" d="M406.5869 355.41876L409.3838 362.3719L412.16504 355.41876L413.6338 355.41876L413.6338 363.95L412.5088 363.95L412.5088 360.6219L412.61816 357.04376L409.80566 363.95L408.9463 363.95L406.1494 357.0594L406.2588 360.6219L406.2588 363.95L405.1338 363.95L405.1338 355.41876L406.5869 355.41876ZM418.8838 363.95Q418.79004 363.7625 418.72754 363.27814Q417.97754 364.075 416.93066 364.075Q415.99316 364.075 415.3838 363.54376Q414.79004 363.0125 414.79004 362.1844Q414.79004 361.2 415.54004 360.65314Q416.29004 360.10626 417.66504 360.10626L418.7119 360.10626L418.7119 359.60626Q418.7119 359.04376 418.36816 358.71564Q418.04004 358.3719 417.36816 358.3719Q416.79004 358.3719 416.3994 358.66876Q416.0088 358.95 416.0088 359.3719L414.91504 359.3719Q414.91504 358.8875 415.24316 358.45Q415.5869 358.0125 416.16504 357.7625Q416.74316 357.4969 417.43066 357.4969Q418.54004 357.4969 419.1494 358.04376Q419.7744 358.59064 419.80566 359.54376L419.80566 362.46564Q419.80566 363.34064 420.0244 363.85626L420.0244 363.95L418.8838 363.95ZM417.0869 363.1219Q417.60254 363.1219 418.05566 362.85626Q418.5088 362.59064 418.7119 362.16876L418.7119 360.8719L417.86816 360.8719Q415.86816 360.8719 415.86816 362.04376Q415.86816 362.54376 416.2119 362.84064Q416.55566 363.1219 417.0869 363.1219ZM425.04004 358.575Q424.79004 358.54376 424.5088 358.54376Q423.43066 358.54376 423.05566 359.45L423.05566 363.95L421.97754 363.95L421.97754 357.60626L423.0244 357.60626L423.04004 358.34064Q423.5713 357.4969 424.55566 357.4969Q424.86816 357.4969 425.04004 357.575L425.04004 358.575ZM428.5088 363.1844Q429.0869 363.1844 429.5244 362.84064Q429.9619 362.48126 430.0088 361.95L431.04004 361.95Q431.0088 362.4969 430.6494 362.9969Q430.30566 363.48126 429.72754 363.77814Q429.16504 364.075 428.5088 364.075Q427.2119 364.075 426.4463 363.21564Q425.6963 362.34064 425.6963 360.84064L425.6963 360.65314Q425.6963 359.73126 426.0244 359.0125Q426.36816 358.29376 426.99316 357.90314Q427.6338 357.4969 428.5088 357.4969Q429.5713 357.4969 430.2744 358.1375Q430.99316 358.7625 431.04004 359.79376L430.0088 359.79376Q429.9619 359.16876 429.54004 358.77814Q429.11816 358.3875 428.5088 358.3875Q427.68066 358.3875 427.22754 358.98126Q426.7744 359.575 426.7744 360.7L426.7744 360.90314Q426.7744 361.9969 427.22754 362.59064Q427.68066 363.1844 428.5088 363.1844ZM433.05566 358.3719Q433.7744 357.4969 434.93066 357.4969Q436.9463 357.4969 436.9619 359.7625L436.9619 363.95L435.86816 363.95L435.86816 359.7469Q435.86816 359.075 435.55566 358.7469Q435.2588 358.41876 434.60254 358.41876Q434.0713 358.41876 433.66504 358.7Q433.2744 358.98126 433.05566 359.4344L433.05566 363.95L431.97754 363.95L431.97754 354.95L433.05566 354.95L433.05566 358.3719ZM447.4463 363.95L441.85254 363.95L441.85254 363.16876L444.80566 359.8875Q445.4619 359.1375 445.7119 358.6844Q445.9619 358.21564 445.9619 357.71564Q445.9619 357.04376 445.55566 356.6219Q445.16504 356.1844 444.47754 356.1844Q443.68066 356.1844 443.22754 356.65314Q442.7744 357.10626 442.7744 357.9344L441.6963 357.9344Q441.6963 356.7469 442.4463 356.02814Q443.2119 355.29376 444.47754 355.29376Q445.68066 355.29376 446.36816 355.91876Q447.05566 356.54376 447.05566 357.59064Q447.05566 358.84064 445.4463 360.59064L443.16504 363.0594L447.4463 363.0594L447.4463 363.95ZM454.2119 360.3094Q454.2119 362.21564 453.55566 363.15314Q452.91504 364.075 451.5244 364.075Q450.16504 364.075 449.5088 363.16876Q448.85254 362.2625 448.8213 360.45L448.8213 359.0125Q448.8213 357.1219 449.4619 356.21564Q450.11816 355.29376 451.5088 355.29376Q452.8838 355.29376 453.54004 356.1844Q454.1963 357.0594 454.2119 358.90314L454.2119 360.3094ZM453.11816 358.825Q453.11816 357.45 452.72754 356.825Q452.35254 356.1844 451.5088 356.1844Q450.68066 356.1844 450.29004 356.825Q449.91504 357.45 449.91504 358.7469L449.91504 360.48126Q449.91504 361.85626 450.30566 362.52814Q450.7119 363.1844 451.5244 363.1844Q452.3213 363.1844 452.7119 362.5594Q453.10254 361.9344 453.11816 360.60626L453.11816 358.825ZM461.4463 363.95L455.85254 363.95L455.85254 363.16876L458.80566 359.8875Q459.4619 359.1375 459.7119 358.6844Q459.9619 358.21564 459.9619 357.71564Q459.9619 357.04376 459.55566 356.6219Q459.16504 356.1844 458.47754 356.1844Q457.68066 356.1844 457.22754 356.65314Q456.7744 357.10626 456.7744 357.9344L455.6963 357.9344Q455.6963 356.7469 456.4463 356.02814Q457.2119 355.29376 458.47754 355.29376Q459.68066 355.29376 460.36816 355.91876Q461.05566 356.54376 461.05566 357.59064Q461.05566 358.84064 459.4463 360.59064L457.16504 363.0594L461.4463 363.0594L461.4463 363.95ZM466.41504 363.95L465.3369 363.95L465.3369 356.73126L463.1494 357.52814L463.1494 356.54376L466.2588 355.3719L466.41504 355.3719L466.41504 363.95Z" fill-rule="nonzero"/><path fill="#757575" d="M550.6514 361.71564L547.0733 361.71564L546.2764 363.95L545.1202 363.95L548.3702 355.41876L549.35455 355.41876L552.6202 363.95L551.4639 363.95L550.6514 361.71564ZM547.41705 360.79376L550.3233 360.79376L548.8702 356.8094L547.41705 360.79376ZM559.1202 360.85626Q559.1202 362.29376 558.4639 363.1844Q557.8077 364.075 556.66705 364.075Q555.5108 364.075 554.85455 363.34064L554.85455 366.3875L553.7764 366.3875L553.7764 357.60626L554.7608 357.60626L554.8077 358.3094Q555.47955 357.4969 556.6514 357.4969Q557.79205 357.4969 558.4483 358.35626Q559.1202 359.21564 559.1202 360.7469L559.1202 360.85626ZM558.04205 360.73126Q558.04205 359.65314 557.5733 359.04376Q557.1202 358.41876 556.3233 358.41876Q555.3389 358.41876 554.85455 359.27814L554.85455 362.3094Q555.3389 363.1844 556.3389 363.1844Q557.1202 363.1844 557.5733 362.575Q558.04205 361.95 558.04205 360.73126ZM563.8389 358.575Q563.5889 358.54376 563.3077 358.54376Q562.22955 358.54376 561.85455 359.45L561.85455 363.95L560.7764 363.95L560.7764 357.60626L561.8233 357.60626L561.8389 358.34064Q562.3702 357.4969 563.35455 357.4969Q563.66705 357.4969 563.8389 357.575L563.8389 358.575ZM565.9483 363.95L564.8702 363.95L564.8702 357.60626L565.9483 357.60626L565.9483 363.95ZM564.7764 355.9344Q564.7764 355.66876 564.9327 355.48126Q565.10455 355.29376 565.41705 355.29376Q565.72955 355.29376 565.8858 355.48126Q566.0577 355.66876 566.0577 355.9344Q566.0577 356.1844 565.8858 356.3719Q565.72955 356.54376 565.41705 356.54376Q565.10455 356.54376 564.9327 356.3719Q564.7764 356.1844 564.7764 355.9344ZM568.9483 363.95L567.8702 363.95L567.8702 354.95L568.9483 354.95L568.9483 363.95ZM579.2452 363.95L573.6514 363.95L573.6514 363.16876L576.60455 359.8875Q577.2608 359.1375 577.5108 358.6844Q577.7608 358.21564 577.7608 357.71564Q577.7608 357.04376 577.35455 356.6219Q576.9639 356.1844 576.2764 356.1844Q575.47955 356.1844 575.0264 356.65314Q574.5733 357.10626 574.5733 357.9344L573.4952 357.9344Q573.4952 356.7469 574.2452 356.02814Q575.0108 355.29376 576.2764 355.29376Q577.47955 355.29376 578.16705 355.91876Q578.85455 356.54376 578.85455 357.59064Q578.85455 358.84064 577.2452 360.59064L574.9639 363.0594L579.2452 363.0594L579.2452 363.95ZM586.0108 360.3094Q586.0108 362.21564 585.35455 363.15314Q584.7139 364.075 583.3233 364.075Q581.9639 364.075 581.3077 363.16876Q580.6514 362.2625 580.6202 360.45L580.6202 359.0125Q580.6202 357.1219 581.2608 356.21564Q581.91705 355.29376 583.3077 355.29376Q584.6827 355.29376 585.3389 356.1844Q585.9952 357.0594 586.0108 358.90314L586.0108 360.3094ZM584.91705 358.825Q584.91705 357.45 584.5264 356.825Q584.1514 356.1844 583.3077 356.1844Q582.47955 356.1844 582.0889 356.825Q581.7139 357.45 581.7139 358.7469L581.7139 360.48126Q581.7139 361.85626 582.10455 362.52814Q582.5108 363.1844 583.3233 363.1844Q584.1202 363.1844 584.5108 362.5594Q584.9014 361.9344 584.91705 360.60626L584.91705 358.825ZM593.2452 363.95L587.6514 363.95L587.6514 363.16876L590.60455 359.8875Q591.2608 359.1375 591.5108 358.6844Q591.7608 358.21564 591.7608 357.71564Q591.7608 357.04376 591.35455 356.6219Q590.9639 356.1844 590.2764 356.1844Q589.47955 356.1844 589.0264 356.65314Q588.5733 357.10626 588.5733 357.9344L587.4952 357.9344Q587.4952 356.7469 588.2452 356.02814Q589.0108 355.29376 590.2764 355.29376Q591.47955 355.29376 592.16705 355.91876Q592.85455 356.54376 592.85455 357.59064Q592.85455 358.84064 591.2452 360.59064L588.9639 363.0594L593.2452 363.0594L593.2452 363.95ZM598.2139 363.95L597.1358 363.95L597.1358 356.73126L594.9483 357.52814L594.9483 356.54376L598.0577 355.3719L598.2139 355.3719L598.2139 363.95Z" fill-rule="nonzero"/><path fill="#4285f4" d="M146.0 61.583332C146.0 61.031048 146.44771 60.583332 147.0 60.583332L157.0 60.583332C157.55229 60.583332 158.0 61.031048 158.0 61.583332L158.0 71.583336C158.0 72.13562 157.55229 72.583336 157.0 72.583336L147.0 72.583336C146.44771 72.583336 146.0 72.13562 146.0 71.583336Z" fill-rule="nonzero"/><path fill="#757575" d="M168.82812 68.395836L169.0 69.520836L169.23438 68.50521L170.92188 62.552086L171.875 62.552086L173.51562 68.50521L173.75 69.53646L173.9375 68.38021L175.26562 62.552086L176.39062 62.552086L174.32812 71.083336L173.29688 71.083336L171.53125 64.864586L171.40625 64.208336L171.26562 64.864586L169.45312 71.083336L168.42188 71.083336L166.35938 62.552086L167.48438 62.552086L168.82812 68.395836ZM180.45312 71.208336Q179.15625 71.208336 178.34375 70.364586Q177.54688 69.50521 177.54688 68.083336L177.54688 67.895836Q177.54688 66.94271 177.90625 66.208336Q178.26562 65.458336 178.90625 65.052086Q179.5625 64.63021 180.3125 64.63021Q181.54688 64.63021 182.23438 65.44271Q182.92188 66.25521 182.92188 67.770836L182.92188 68.22396L178.625 68.22396Q178.65625 69.16146 179.17188 69.739586Q179.70312 70.31771 180.51562 70.31771Q181.07812 70.31771 181.46875 70.083336Q181.875 69.84896 182.1875 69.458336L182.84375 69.97396Q182.04688 71.208336 180.45312 71.208336ZM180.3125 65.520836Q179.65625 65.520836 179.20312 66.00521Q178.76562 66.47396 178.67188 67.333336L181.84375 67.333336L181.84375 67.25521Q181.79688 66.427086 181.39062 65.97396Q181.0 65.520836 180.3125 65.520836ZM189.1875 67.989586Q189.1875 69.44271 188.51562 70.333336Q187.85938 71.208336 186.73438 71.208336Q185.53125 71.208336 184.875 70.34896L184.8125 71.083336L183.82812 71.083336L183.82812 62.083336L184.90625 62.083336L184.90625 65.44271Q185.5625 64.63021 186.71875 64.63021Q187.875 64.63021 188.53125 65.50521Q189.1875 66.364586 189.1875 67.895836L189.1875 67.989586ZM188.10938 67.864586Q188.10938 66.75521 187.67188 66.16146Q187.25 65.552086 186.45312 65.552086Q185.375 65.552086 184.90625 66.53646L184.90625 69.28646Q185.40625 70.28646 186.45312 70.28646Q187.23438 70.28646 187.67188 69.677086Q188.10938 69.06771 188.10938 67.864586ZM196.07812 67.895836L193.21875 67.895836L193.21875 67.020836L196.07812 67.020836L196.07812 67.895836ZM205.89062 63.47396L203.14062 63.47396L203.14062 71.083336L202.03125 71.083336L202.03125 63.47396L199.28125 63.47396L199.28125 62.552086L205.89062 62.552086L205.89062 63.47396ZM206.53125 67.84896Q206.53125 66.927086 206.89062 66.177086Q207.26562 65.427086 207.92188 65.03646Q208.57812 64.63021 209.40625 64.63021Q210.70312 64.63021 211.5 65.520836Q212.3125 66.41146 212.3125 67.91146L212.3125 67.989586Q212.3125 68.91146 211.95312 69.645836Q211.59375 70.38021 210.9375 70.802086Q210.28125 71.208336 209.42188 71.208336Q208.14062 71.208336 207.32812 70.31771Q206.53125 69.41146 206.53125 67.927086L206.53125 67.84896ZM207.625 67.989586Q207.625 69.03646 208.10938 69.677086Q208.60938 70.31771 209.42188 70.31771Q210.25 70.31771 210.73438 69.677086Q211.21875 69.020836 211.21875 67.84896Q211.21875 66.81771 210.71875 66.177086Q210.23438 65.520836 209.40625 65.520836Q208.60938 65.520836 208.10938 66.16146Q207.625 66.78646 207.625 67.989586ZM215.29688 63.208336L215.29688 64.739586L216.46875 64.739586L216.46875 65.583336L215.29688 65.583336L215.29688 69.50521Q215.29688 69.895836 215.45312 70.083336Q215.60938 70.270836 215.98438 70.270836Q216.17188 70.270836 216.5 70.208336L216.5 71.083336Q216.07812 71.208336 215.67188 71.208336Q214.95312 71.208336 214.57812 70.770836Q214.20312 70.31771 214.20312 69.50521L214.20312 65.583336L213.04688 65.583336L213.04688 64.739586L214.20312 64.739586L214.20312 63.208336L215.29688 63.208336ZM221.73438 71.083336Q221.64062 70.895836 221.57812 70.41146Q220.82812 71.208336 219.78125 71.208336Q218.84375 71.208336 218.23438 70.677086Q217.64062 70.145836 217.64062 69.31771Q217.64062 68.333336 218.39062 67.78646Q219.14062 67.239586 220.51562 67.239586L221.5625 67.239586L221.5625 66.739586Q221.5625 66.177086 221.21875 65.84896Q220.89062 65.50521 220.21875 65.50521Q219.64062 65.50521 219.25 65.802086Q218.85938 66.083336 218.85938 66.50521L217.76562 66.50521Q217.76562 66.020836 218.09375 65.583336Q218.4375 65.145836 219.01562 64.895836Q219.59375 64.63021 220.28125 64.63021Q221.39062 64.63021 222.0 65.177086Q222.625 65.72396 222.65625 66.677086L222.65625 69.59896Q222.65625 70.47396 222.875 70.989586L222.875 71.083336L221.73438 71.083336ZM219.9375 70.25521Q220.45312 70.25521 220.90625 69.989586Q221.35938 69.72396 221.5625 69.302086L221.5625 68.00521L220.71875 68.00521Q218.71875 68.00521 218.71875 69.177086Q218.71875 69.677086 219.0625 69.97396Q219.40625 70.25521 219.9375 70.25521ZM226.0 71.083336L224.92188 71.083336L224.92188 62.083336L226.0 62.083336L226.0 71.083336ZM237.26562 68.38021Q237.10938 69.72396 236.26562 70.47396Q235.42188 71.208336 234.03125 71.208336Q232.51562 71.208336 231.60938 70.13021Q230.70312 69.03646 230.70312 67.208336L230.70312 66.395836Q230.70312 65.208336 231.125 64.302086Q231.54688 63.395836 232.32812 62.91146Q233.10938 62.427086 234.125 62.427086Q235.48438 62.427086 236.29688 63.19271Q237.125 63.958336 237.26562 65.28646L236.14062 65.28646Q235.98438 64.270836 235.5 63.81771Q235.01562 63.364586 234.125 63.364586Q233.04688 63.364586 232.4375 64.16146Q231.82812 64.958336 231.82812 66.427086L231.82812 67.25521Q231.82812 68.645836 232.40625 69.47396Q232.98438 70.28646 234.03125 70.28646Q234.96875 70.28646 235.46875 69.864586Q235.96875 69.427086 236.14062 68.38021L237.26562 68.38021ZM240.10938 67.739586L240.10938 71.083336L238.98438 71.083336L238.98438 62.552086L242.14062 62.552086Q243.53125 62.552086 244.32812 63.270836Q245.125 63.97396 245.125 65.16146Q245.125 66.395836 244.34375 67.06771Q243.57812 67.739586 242.125 67.739586L240.10938 67.739586ZM240.10938 66.81771L242.14062 66.81771Q243.04688 66.81771 243.51562 66.395836Q244.0 65.97396 244.0 65.177086Q244.0 64.41146 243.51562 63.958336Q243.04688 63.489586 242.20312 63.47396L240.10938 63.47396L240.10938 66.81771ZM248.4375 62.552086L251.23438 69.50521L254.01562 62.552086L255.48438 62.552086L255.48438 71.083336L254.35938 71.083336L254.35938 67.75521L254.46875 64.177086L251.65625 71.083336L250.79688 71.083336L248.0 64.19271L248.10938 67.75521L248.10938 71.083336L246.98438 71.083336L246.98438 62.552086L248.4375 62.552086ZM262.89062 65.708336Q262.64062 65.677086 262.35938 65.677086Q261.28125 65.677086 260.90625 66.583336L260.90625 71.083336L259.82812 71.083336L259.82812 64.739586L260.875 64.739586L260.89062 65.47396Q261.42188 64.63021 262.40625 64.63021Q262.71875 64.63021 262.89062 64.708336L262.89062 65.708336ZM266.45312 71.208336Q265.15625 71.208336 264.34375 70.364586Q263.54688 69.50521 263.54688 68.083336L263.54688 67.895836Q263.54688 66.94271 263.90625 66.208336Q264.26562 65.458336 264.90625 65.052086Q265.5625 64.63021 266.3125 64.63021Q267.54688 64.63021 268.23438 65.44271Q268.92188 66.25521 268.92188 67.770836L268.92188 68.22396L264.625 68.22396Q264.65625 69.16146 265.17188 69.739586Q265.70312 70.31771 266.51562 70.31771Q267.07812 70.31771 267.46875 70.083336Q267.875 69.84896 268.1875 69.458336L268.84375 69.97396Q268.04688 71.208336 266.45312 71.208336ZM266.3125 65.520836Q265.65625 65.520836 265.20312 66.00521Q264.76562 66.47396 264.67188 67.333336L267.84375 67.333336L267.84375 67.25521Q267.79688 66.427086 267.39062 65.97396Q267.0 65.520836 266.3125 65.520836ZM271.90625 69.614586L273.48438 64.739586L274.59375 64.739586L272.3125 71.083336L271.48438 71.083336L269.1875 64.739586L270.29688 64.739586L271.90625 69.614586ZM278.45312 71.208336Q277.15625 71.208336 276.34375 70.364586Q275.54688 69.50521 275.54688 68.083336L275.54688 67.895836Q275.54688 66.94271 275.90625 66.208336Q276.26562 65.458336 276.90625 65.052086Q277.5625 64.63021 278.3125 64.63021Q279.54688 64.63021 280.23438 65.44271Q280.92188 66.25521 280.92188 67.770836L280.92188 68.22396L276.625 68.22396Q276.65625 69.16146 277.17188 69.739586Q277.70312 70.31771 278.51562 70.31771Q279.07812 70.31771 279.46875 70.083336Q279.875 69.84896 280.1875 69.458336L280.84375 69.97396Q280.04688 71.208336 278.45312 71.208336ZM278.3125 65.520836Q277.65625 65.520836 277.20312 66.00521Q276.76562 66.47396 276.67188 67.333336L279.84375 67.333336L279.84375 67.25521Q279.79688 66.427086 279.39062 65.97396Q279.0 65.520836 278.3125 65.520836ZM282.84375 64.739586L282.875 65.53646Q283.60938 64.63021 284.78125 64.63021Q286.79688 64.63021 286.8125 66.895836L286.8125 71.083336L285.71875 71.083336L285.71875 66.88021Q285.71875 66.208336 285.40625 65.88021Q285.10938 65.552086 284.45312 65.552086Q283.92188 65.552086 283.51562 65.833336Q283.125 66.114586 282.90625 66.56771L282.90625 71.083336L281.82812 71.083336L281.82812 64.739586L282.84375 64.739586ZM292.73438 70.458336Q292.10938 71.208336 290.875 71.208336Q289.85938 71.208336 289.32812 70.614586Q288.79688 70.020836 288.79688 68.864586L288.79688 64.739586L289.875 64.739586L289.875 68.833336Q289.875 70.28646 291.04688 70.28646Q292.29688 70.28646 292.70312 69.34896L292.70312 64.739586L293.79688 64.739586L293.79688 71.083336L292.76562 71.083336L292.73438 70.458336ZM298.45312 71.208336Q297.15625 71.208336 296.34375 70.364586Q295.54688 69.50521 295.54688 68.083336L295.54688 67.895836Q295.54688 66.94271 295.90625 66.208336Q296.26562 65.458336 296.90625 65.052086Q297.5625 64.63021 298.3125 64.63021Q299.54688 64.63021 300.23438 65.44271Q300.92188 66.25521 300.92188 67.770836L300.92188 68.22396L296.625 68.22396Q296.65625 69.16146 297.17188 69.739586Q297.70312 70.31771 298.51562 70.31771Q299.07812 70.31771 299.46875 70.083336Q299.875 69.84896 300.1875 69.458336L300.84375 69.97396Q300.04688 71.208336 298.45312 71.208336ZM298.3125 65.520836Q297.65625 65.520836 297.20312 66.00521Q296.76562 66.47396 296.67188 67.333336L299.84375 67.333336L299.84375 67.25521Q299.79688 66.427086 299.39062 65.97396Q299.0 65.520836 298.3125 65.520836ZM304.78125 67.614586Q304.78125 66.302086 305.125 65.083336Q305.48438 63.864586 306.1875 62.864586Q306.89062 61.864586 307.65625 61.458336L307.875 62.177086Q307.01562 62.833336 306.46875 64.177086Q305.92188 65.520836 305.875 67.19271L305.85938 67.69271Q305.85938 69.958336 306.6875 71.614586Q307.1875 72.614586 307.875 73.177086L307.65625 73.833336Q306.875 73.41146 306.15625 72.38021Q304.78125 70.395836 304.78125 67.614586ZM315.0 62.552086L315.0 68.34896Q314.98438 69.552086 314.23438 70.333336Q313.48438 71.09896 312.20312 71.19271L311.89062 71.208336Q310.5 71.208336 309.65625 70.458336Q308.82812 69.69271 308.82812 68.364586L308.82812 62.552086L309.9375 62.552086L309.9375 68.333336Q309.9375 69.25521 310.4375 69.770836Q310.95312 70.28646 311.89062 70.28646Q312.85938 70.28646 313.35938 69.770836Q313.85938 69.25521 313.85938 68.333336L313.85938 62.552086L315.0 62.552086ZM319.5 67.28646Q318.0625 66.864586 317.39062 66.25521Q316.73438 65.645836 316.73438 64.75521Q316.73438 63.75521 317.53125 63.09896Q318.34375 62.427086 319.64062 62.427086Q320.51562 62.427086 321.20312 62.770836Q321.89062 63.114586 322.26562 63.708336Q322.65625 64.302086 322.65625 65.020836L321.51562 65.020836Q321.51562 64.239586 321.01562 63.802086Q320.53125 63.364586 319.64062 63.364586Q318.8125 63.364586 318.34375 63.739586Q317.875 64.09896 317.875 64.739586Q317.875 65.270836 318.3125 65.63021Q318.76562 65.989586 319.82812 66.28646Q320.89062 66.583336 321.48438 66.94271Q322.09375 67.302086 322.375 67.78646Q322.67188 68.270836 322.67188 68.91146Q322.67188 69.958336 321.85938 70.583336Q321.04688 71.208336 319.70312 71.208336Q318.8125 71.208336 318.04688 70.864586Q317.29688 70.520836 316.875 69.94271Q316.46875 69.34896 316.46875 68.614586L317.59375 68.614586Q317.59375 69.38021 318.17188 69.833336Q318.75 70.28646 319.70312 70.28646Q320.59375 70.28646 321.0625 69.927086Q321.53125 69.552086 321.53125 68.927086Q321.53125 68.302086 321.09375 67.958336Q320.65625 67.614586 319.5 67.28646ZM328.01562 68.88021Q328.01562 68.34896 327.64062 67.989586Q327.26562 67.614586 326.35938 67.302086Q325.10938 66.927086 324.53125 66.31771Q323.96875 65.708336 323.96875 64.75521Q323.96875 63.802086 324.53125 63.19271Q325.09375 62.56771 326.07812 62.458336L326.07812 61.16146L326.9375 61.16146L326.9375 62.458336Q327.92188 62.59896 328.46875 63.28646Q329.03125 63.97396 329.03125 65.177086L327.95312 65.177086Q327.95312 64.34896 327.54688 63.864586Q327.15625 63.38021 326.5 63.38021Q325.79688 63.38021 325.42188 63.739586Q325.0625 64.09896 325.0625 64.739586Q325.0625 65.333336 325.45312 65.69271Q325.84375 66.052086 326.73438 66.34896Q327.625 66.63021 328.125 66.989586Q328.625 67.333336 328.85938 67.802086Q329.09375 68.25521 329.09375 68.88021Q329.09375 69.864586 328.5 70.47396Q327.90625 71.06771 326.84375 71.177086L326.84375 72.302086L325.96875 72.302086L325.96875 71.177086Q324.875 71.083336 324.25 70.41146Q323.64062 69.72396 323.64062 68.56771L324.73438 68.56771Q324.73438 69.38021 325.15625 69.81771Q325.57812 70.25521 326.375 70.25521Q327.14062 70.25521 327.57812 69.895836Q328.01562 69.520836 328.01562 68.88021ZM333.32812 67.677086Q333.32812 68.989586 332.98438 70.19271Q332.64062 71.38021 331.92188 72.395836Q331.21875 73.41146 330.45312 73.833336L330.21875 73.177086Q331.125 72.489586 331.67188 71.03646Q332.21875 69.56771 332.23438 67.802086L332.23438 67.614586Q332.23438 66.38021 331.96875 65.31771Q331.71875 64.25521 331.25 63.427086Q330.79688 62.583336 330.21875 62.114586L330.45312 61.458336Q331.21875 61.88021 331.92188 62.88021Q332.625 63.88021 332.96875 65.09896Q333.32812 66.302086 333.32812 67.677086Z" fill-rule="nonzero"/><path fill="#db4437" d="M350.0 61.583332C350.0 61.031048 350.44772 60.583332 351.0 60.583332L361.0 60.583332C361.55228 60.583332 362.0 61.031048 362.0 61.583332L362.0 71.583336C362.0 72.13562 361.55228 72.583336 361.0 72.583336L351.0 72.583336C350.44772 72.583336 350.0 72.13562 350.0 71.583336Z" fill-rule="nonzero"/><path fill="#757575" d="M375.70312 68.84896L372.125 68.84896L371.32812 71.083336L370.17188 71.083336L373.42188 62.552086L374.40625 62.552086L377.67188 71.083336L376.51562 71.083336L375.70312 68.84896ZM372.46875 67.927086L375.375 67.927086L373.92188 63.94271L372.46875 67.927086ZM380.4375 62.552086L383.23438 69.50521L386.01562 62.552086L387.48438 62.552086L387.48438 71.083336L386.35938 71.083336L386.35938 67.75521L386.46875 64.177086L383.65625 71.083336L382.79688 71.083336L380.0 64.19271L380.10938 67.75521L380.10938 71.083336L378.98438 71.083336L378.98438 62.552086L380.4375 62.552086ZM390.10938 67.739586L390.10938 71.083336L388.98438 71.083336L388.98438 62.552086L392.14062 62.552086Q393.53125 62.552086 394.32812 63.270836Q395.125 63.97396 395.125 65.16146Q395.125 66.395836 394.34375 67.06771Q393.57812 67.739586 392.125 67.739586L390.10938 67.739586ZM390.10938 66.81771L392.14062 66.81771Q393.04688 66.81771 393.51562 66.395836Q394.0 65.97396 394.0 65.177086Q394.0 64.41146 393.51562 63.958336Q393.04688 63.489586 392.20312 63.47396L390.10938 63.47396L390.10938 66.81771ZM402.07812 67.895836L399.21875 67.895836L399.21875 67.020836L402.07812 67.020836L402.07812 67.895836ZM411.89062 63.47396L409.14062 63.47396L409.14062 71.083336L408.03125 71.083336L408.03125 63.47396L405.28125 63.47396L405.28125 62.552086L411.89062 62.552086L411.89062 63.47396ZM412.53125 67.84896Q412.53125 66.927086 412.89062 66.177086Q413.26562 65.427086 413.92188 65.03646Q414.57812 64.63021 415.40625 64.63021Q416.70312 64.63021 417.5 65.520836Q418.3125 66.41146 418.3125 67.91146L418.3125 67.989586Q418.3125 68.91146 417.95312 69.645836Q417.59375 70.38021 416.9375 70.802086Q416.28125 71.208336 415.42188 71.208336Q414.14062 71.208336 413.32812 70.31771Q412.53125 69.41146 412.53125 67.927086L412.53125 67.84896ZM413.625 67.989586Q413.625 69.03646 414.10938 69.677086Q414.60938 70.31771 415.42188 70.31771Q416.25 70.31771 416.73438 69.677086Q417.21875 69.020836 417.21875 67.84896Q417.21875 66.81771 416.71875 66.177086Q416.23438 65.520836 415.40625 65.520836Q414.60938 65.520836 414.10938 66.16146Q413.625 66.78646 413.625 67.989586ZM421.29688 63.208336L421.29688 64.739586L422.46875 64.739586L422.46875 65.583336L421.29688 65.583336L421.29688 69.50521Q421.29688 69.895836 421.45312 70.083336Q421.60938 70.270836 421.98438 70.270836Q422.17188 70.270836 422.5 70.208336L422.5 71.083336Q422.07812 71.208336 421.67188 71.208336Q420.95312 71.208336 420.57812 70.770836Q420.20312 70.31771 420.20312 69.50521L420.20312 65.583336L419.04688 65.583336L419.04688 64.739586L420.20312 64.739586L420.20312 63.208336L421.29688 63.208336ZM427.73438 71.083336Q427.64062 70.895836 427.57812 70.41146Q426.82812 71.208336 425.78125 71.208336Q424.84375 71.208336 424.23438 70.677086Q423.64062 70.145836 423.64062 69.31771Q423.64062 68.333336 424.39062 67.78646Q425.14062 67.239586 426.51562 67.239586L427.5625 67.239586L427.5625 66.739586Q427.5625 66.177086 427.21875 65.84896Q426.89062 65.50521 426.21875 65.50521Q425.64062 65.50521 425.25 65.802086Q424.85938 66.083336 424.85938 66.50521L423.76562 66.50521Q423.76562 66.020836 424.09375 65.583336Q424.4375 65.145836 425.01562 64.895836Q425.59375 64.63021 426.28125 64.63021Q427.39062 64.63021 428.0 65.177086Q428.625 65.72396 428.65625 66.677086L428.65625 69.59896Q428.65625 70.47396 428.875 70.989586L428.875 71.083336L427.73438 71.083336ZM425.9375 70.25521Q426.45312 70.25521 426.90625 69.989586Q427.35938 69.72396 427.5625 69.302086L427.5625 68.00521L426.71875 68.00521Q424.71875 68.00521 424.71875 69.177086Q424.71875 69.677086 425.0625 69.97396Q425.40625 70.25521 425.9375 70.25521ZM432.0 71.083336L430.92188 71.083336L430.92188 62.083336L432.0 62.083336L432.0 71.083336ZM443.26562 68.38021Q443.10938 69.72396 442.26562 70.47396Q441.42188 71.208336 440.03125 71.208336Q438.51562 71.208336 437.60938 70.13021Q436.70312 69.03646 436.70312 67.208336L436.70312 66.395836Q436.70312 65.208336 437.125 64.302086Q437.54688 63.395836 438.32812 62.91146Q439.10938 62.427086 440.125 62.427086Q441.48438 62.427086 442.29688 63.19271Q443.125 63.958336 443.26562 65.28646L442.14062 65.28646Q441.98438 64.270836 441.5 63.81771Q441.01562 63.364586 440.125 63.364586Q439.04688 63.364586 438.4375 64.16146Q437.82812 64.958336 437.82812 66.427086L437.82812 67.25521Q437.82812 68.645836 438.40625 69.47396Q438.98438 70.28646 440.03125 70.28646Q440.96875 70.28646 441.46875 69.864586Q441.96875 69.427086 442.14062 68.38021L443.26562 68.38021ZM446.10938 67.739586L446.10938 71.083336L444.98438 71.083336L444.98438 62.552086L448.14062 62.552086Q449.53125 62.552086 450.32812 63.270836Q451.125 63.97396 451.125 65.16146Q451.125 66.395836 450.34375 67.06771Q449.57812 67.739586 448.125 67.739586L446.10938 67.739586ZM446.10938 66.81771L448.14062 66.81771Q449.04688 66.81771 449.51562 66.395836Q450.0 65.97396 450.0 65.177086Q450.0 64.41146 449.51562 63.958336Q449.04688 63.489586 448.20312 63.47396L446.10938 63.47396L446.10938 66.81771ZM454.4375 62.552086L457.23438 69.50521L460.01562 62.552086L461.48438 62.552086L461.48438 71.083336L460.35938 71.083336L460.35938 67.75521L460.46875 64.177086L457.65625 71.083336L456.79688 71.083336L454.0 64.19271L454.10938 67.75521L454.10938 71.083336L452.98438 71.083336L452.98438 62.552086L454.4375 62.552086ZM468.89062 65.708336Q468.64062 65.677086 468.35938 65.677086Q467.28125 65.677086 466.90625 66.583336L466.90625 71.083336L465.82812 71.083336L465.82812 64.739586L466.875 64.739586L466.89062 65.47396Q467.42188 64.63021 468.40625 64.63021Q468.71875 64.63021 468.89062 64.708336L468.89062 65.708336ZM472.45312 71.208336Q471.15625 71.208336 470.34375 70.364586Q469.54688 69.50521 469.54688 68.083336L469.54688 67.895836Q469.54688 66.94271 469.90625 66.208336Q470.26562 65.458336 470.90625 65.052086Q471.5625 64.63021 472.3125 64.63021Q473.54688 64.63021 474.23438 65.44271Q474.92188 66.25521 474.92188 67.770836L474.92188 68.22396L470.625 68.22396Q470.65625 69.16146 471.17188 69.739586Q471.70312 70.31771 472.51562 70.31771Q473.07812 70.31771 473.46875 70.083336Q473.875 69.84896 474.1875 69.458336L474.84375 69.97396Q474.04688 71.208336 472.45312 71.208336ZM472.3125 65.520836Q471.65625 65.520836 471.20312 66.00521Q470.76562 66.47396 470.67188 67.333336L473.84375 67.333336L473.84375 67.25521Q473.79688 66.427086 473.39062 65.97396Q473.0 65.520836 472.3125 65.520836ZM477.90625 69.614586L479.48438 64.739586L480.59375 64.739586L478.3125 71.083336L477.48438 71.083336L475.1875 64.739586L476.29688 64.739586L477.90625 69.614586ZM484.45312 71.208336Q483.15625 71.208336 482.34375 70.364586Q481.54688 69.50521 481.54688 68.083336L481.54688 67.895836Q481.54688 66.94271 481.90625 66.208336Q482.26562 65.458336 482.90625 65.052086Q483.5625 64.63021 484.3125 64.63021Q485.54688 64.63021 486.23438 65.44271Q486.92188 66.25521 486.92188 67.770836L486.92188 68.22396L482.625 68.22396Q482.65625 69.16146 483.17188 69.739586Q483.70312 70.31771 484.51562 70.31771Q485.07812 70.31771 485.46875 70.083336Q485.875 69.84896 486.1875 69.458336L486.84375 69.97396Q486.04688 71.208336 484.45312 71.208336ZM484.3125 65.520836Q483.65625 65.520836 483.20312 66.00521Q482.76562 66.47396 482.67188 67.333336L485.84375 67.333336L485.84375 67.25521Q485.79688 66.427086 485.39062 65.97396Q485.0 65.520836 484.3125 65.520836ZM488.84375 64.739586L488.875 65.53646Q489.60938 64.63021 490.78125 64.63021Q492.79688 64.63021 492.8125 66.895836L492.8125 71.083336L491.71875 71.083336L491.71875 66.88021Q491.71875 66.208336 491.40625 65.88021Q491.10938 65.552086 490.45312 65.552086Q489.92188 65.552086 489.51562 65.833336Q489.125 66.114586 488.90625 66.56771L488.90625 71.083336L487.82812 71.083336L487.82812 64.739586L488.84375 64.739586ZM498.73438 70.458336Q498.10938 71.208336 496.875 71.208336Q495.85938 71.208336 495.32812 70.614586Q494.79688 70.020836 494.79688 68.864586L494.79688 64.739586L495.875 64.739586L495.875 68.833336Q495.875 70.28646 497.04688 70.28646Q498.29688 70.28646 498.70312 69.34896L498.70312 64.739586L499.79688 64.739586L499.79688 71.083336L498.76562 71.083336L498.73438 70.458336ZM504.45312 71.208336Q503.15625 71.208336 502.34375 70.364586Q501.54688 69.50521 501.54688 68.083336L501.54688 67.895836Q501.54688 66.94271 501.90625 66.208336Q502.26562 65.458336 502.90625 65.052086Q503.5625 64.63021 504.3125 64.63021Q505.54688 64.63021 506.23438 65.44271Q506.92188 66.25521 506.92188 67.770836L506.92188 68.22396L502.625 68.22396Q502.65625 69.16146 503.17188 69.739586Q503.70312 70.31771 504.51562 70.31771Q505.07812 70.31771 505.46875 70.083336Q505.875 69.84896 506.1875 69.458336L506.84375 69.97396Q506.04688 71.208336 504.45312 71.208336ZM504.3125 65.520836Q503.65625 65.520836 503.20312 66.00521Q502.76562 66.47396 502.67188 67.333336L505.84375 67.333336L505.84375 67.25521Q505.79688 66.427086 505.39062 65.97396Q505.0 65.520836 504.3125 65.520836ZM510.78125 67.614586Q510.78125 66.302086 511.125 65.083336Q511.48438 63.864586 512.1875 62.864586Q512.8906 61.864586 513.65625 61.458336L513.875 62.177086Q513.0156 62.833336 512.46875 64.177086Q511.92188 65.520836 511.875 67.19271L511.85938 67.69271Q511.85938 69.958336 512.6875 71.614586Q513.1875 72.614586 513.875 73.177086L513.65625 73.833336Q512.875 73.41146 512.15625 72.38021Q510.78125 70.395836 510.78125 67.614586ZM521.0 62.552086L521.0 68.34896Q520.9844 69.552086 520.2344 70.333336Q519.4844 71.09896 518.2031 71.19271L517.8906 71.208336Q516.5 71.208336 515.65625 70.458336Q514.8281 69.69271 514.8281 68.364586L514.8281 62.552086L515.9375 62.552086L515.9375 68.333336Q515.9375 69.25521 516.4375 69.770836Q516.9531 70.28646 517.8906 70.28646Q518.8594 70.28646 519.3594 69.770836Q519.8594 69.25521 519.8594 68.333336L519.8594 62.552086L521.0 62.552086ZM525.5 67.28646Q524.0625 66.864586 523.3906 66.25521Q522.7344 65.645836 522.7344 64.75521Q522.7344 63.75521 523.53125 63.09896Q524.34375 62.427086 525.6406 62.427086Q526.5156 62.427086 527.2031 62.770836Q527.8906 63.114586 528.2656 63.708336Q528.65625 64.302086 528.65625 65.020836L527.5156 65.020836Q527.5156 64.239586 527.0156 63.802086Q526.53125 63.364586 525.6406 63.364586Q524.8125 63.364586 524.34375 63.739586Q523.875 64.09896 523.875 64.739586Q523.875 65.270836 524.3125 65.63021Q524.7656 65.989586 525.8281 66.28646Q526.8906 66.583336 527.4844 66.94271Q528.09375 67.302086 528.375 67.78646Q528.6719 68.270836 528.6719 68.91146Q528.6719 69.958336 527.8594 70.583336Q527.0469 71.208336 525.7031 71.208336Q524.8125 71.208336 524.0469 70.864586Q523.2969 70.520836 522.875 69.94271Q522.46875 69.34896 522.46875 68.614586L523.59375 68.614586Q523.59375 69.38021 524.1719 69.833336Q524.75 70.28646 525.7031 70.28646Q526.59375 70.28646 527.0625 69.927086Q527.53125 69.552086 527.53125 68.927086Q527.53125 68.302086 527.09375 67.958336Q526.65625 67.614586 525.5 67.28646ZM534.0156 68.88021Q534.0156 68.34896 533.6406 67.989586Q533.2656 67.614586 532.3594 67.302086Q531.1094 66.927086 530.53125 66.31771Q529.96875 65.708336 529.96875 64.75521Q529.96875 63.802086 530.53125 63.19271Q531.09375 62.56771 532.0781 62.458336L532.0781 61.16146L532.9375 61.16146L532.9375 62.458336Q533.9219 62.59896 534.46875 63.28646Q535.03125 63.97396 535.03125 65.177086L533.9531 65.177086Q533.9531 64.34896 533.5469 63.864586Q533.15625 63.38021 532.5 63.38021Q531.7969 63.38021 531.4219 63.739586Q531.0625 64.09896 531.0625 64.739586Q531.0625 65.333336 531.4531 65.69271Q531.84375 66.052086 532.7344 66.34896Q533.625 66.63021 534.125 66.989586Q534.625 67.333336 534.8594 67.802086Q535.09375 68.25521 535.09375 68.88021Q535.09375 69.864586 534.5 70.47396Q533.90625 71.06771 532.84375 71.177086L532.84375 72.302086L531.96875 72.302086L531.96875 71.177086Q530.875 71.083336 530.25 70.41146Q529.6406 69.72396 529.6406 68.56771L530.7344 68.56771Q530.7344 69.38021 531.15625 69.81771Q531.5781 70.25521 532.375 70.25521Q533.1406 70.25521 533.5781 69.895836Q534.0156 69.520836 534.0156 68.88021ZM539.3281 67.677086Q539.3281 68.989586 538.9844 70.19271Q538.6406 71.38021 537.9219 72.395836Q537.21875 73.41146 536.4531 73.833336L536.21875 73.177086Q537.125 72.489586 537.6719 71.03646Q538.21875 69.56771 538.2344 67.802086L538.2344 67.614586Q538.2344 66.38021 537.96875 65.31771Q537.71875 64.25521 537.25 63.427086Q536.7969 62.583336 536.21875 62.114586L536.4531 61.458336Q537.21875 61.88021 537.9219 62.88021Q538.625 63.88021 538.96875 65.09896Q539.3281 66.302086 539.3281 67.677086Z" fill-rule="nonzero"/><path fill="#757575" d="M169.71875 35.565624L169.98438 37.440624L170.39062 35.753124L173.20312 25.83125L174.78125 25.83125L177.53125 35.753124L177.92188 37.471874L178.21875 35.55L180.4375 25.83125L182.3125 25.83125L178.875 40.05L177.15625 40.05L174.23438 29.690624L174.0 28.596874L173.78125 29.690624L170.75 40.05L169.03125 40.05L165.59375 25.83125L167.46875 25.83125L169.71875 35.565624ZM188.75 40.253124Q186.60938 40.253124 185.25 38.846874Q183.90625 37.425 183.90625 35.065624L183.90625 34.721874Q183.90625 33.159374 184.5 31.925Q185.10938 30.690624 186.1875 29.9875Q187.26562 29.284374 188.53125 29.284374Q190.59375 29.284374 191.73438 30.64375Q192.875 32.003124 192.875 34.534374L192.875 35.284374L185.71875 35.284374Q185.75 36.846874 186.625 37.815624Q187.5 38.76875 188.84375 38.76875Q189.8125 38.76875 190.46875 38.378124Q191.14062 37.9875 191.64062 37.346874L192.73438 38.20625Q191.40625 40.253124 188.75 40.253124ZM188.53125 30.76875Q187.4375 30.76875 186.6875 31.565624Q185.95312 32.3625 185.78125 33.8L191.0625 33.8L191.0625 33.659374Q190.98438 32.284374 190.3125 31.534374Q189.65625 30.76875 188.53125 30.76875ZM204.3125 34.878124Q204.3125 37.3 203.20312 38.784374Q202.09375 40.253124 200.21875 40.253124Q198.20312 40.253124 197.10938 38.83125L197.03125 40.05L195.375 40.05L195.375 25.05L197.17188 25.05L197.17188 30.64375Q198.26562 29.284374 200.1875 29.284374Q202.10938 29.284374 203.20312 30.7375Q204.3125 32.190624 204.3125 34.721874L204.3125 34.878124ZM202.5 34.675Q202.5 32.83125 201.78125 31.83125Q201.07812 30.815624 199.75 30.815624Q197.95312 30.815624 197.17188 32.4875L197.17188 37.05Q198.0 38.70625 199.76562 38.70625Q201.0625 38.70625 201.78125 37.70625Q202.5 36.70625 202.5 34.675ZM214.85938 37.596874L217.46875 29.4875L219.3125 29.4875L215.53125 40.05L214.15625 40.05L210.32812 29.4875L212.17188 29.4875L214.85938 37.596874ZM227.51562 37.253124Q227.51562 36.51875 226.96875 36.1125Q226.42188 35.70625 225.04688 35.409374Q223.67188 35.1125 222.85938 34.70625Q222.0625 34.3 221.67188 33.7375Q221.29688 33.159374 221.29688 32.378124Q221.29688 31.08125 222.39062 30.190624Q223.48438 29.284374 225.20312 29.284374Q227.0 29.284374 228.10938 30.221874Q229.23438 31.14375 229.23438 32.58125L227.40625 32.58125Q227.40625 31.846874 226.78125 31.315624Q226.15625 30.76875 225.20312 30.76875Q224.20312 30.76875 223.64062 31.20625Q223.09375 31.628124 223.09375 32.33125Q223.09375 32.971874 223.60938 33.315624Q224.125 33.64375 225.48438 33.95625Q226.84375 34.253124 227.67188 34.675Q228.51562 35.08125 228.92188 35.675Q229.32812 36.26875 229.32812 37.1125Q229.32812 38.534374 228.1875 39.39375Q227.0625 40.253124 225.25 40.253124Q223.98438 40.253124 223.0 39.8Q222.03125 39.346874 221.46875 38.55Q220.92188 37.7375 220.92188 36.8L222.73438 36.8Q222.78125 37.70625 223.45312 38.2375Q224.14062 38.76875 225.25 38.76875Q226.28125 38.76875 226.89062 38.3625Q227.51562 37.940624 227.51562 37.253124ZM244.5 36.33125L238.54688 36.33125L237.20312 40.05L235.28125 40.05L240.70312 25.83125L242.34375 25.83125L247.78125 40.05L245.85938 40.05L244.5 36.33125ZM239.10938 34.8L243.95312 34.8L241.53125 28.14375L239.10938 34.8ZM252.07812 25.83125L256.71875 37.425L261.375 25.83125L263.79688 25.83125L263.79688 40.05L261.92188 40.05L261.92188 34.51875L262.10938 28.534374L257.4375 40.05L256.0 40.05L251.34375 28.565624L251.53125 34.51875L251.53125 40.05L249.65625 40.05L249.65625 25.83125L252.07812 25.83125ZM268.53125 34.4875L268.53125 40.05L266.65625 40.05L266.65625 25.83125L271.89062 25.83125Q274.23438 25.83125 275.54688 27.01875Q276.875 28.20625 276.875 30.175Q276.875 32.253124 275.57812 33.378124Q274.28125 34.4875 271.875 34.4875L268.53125 34.4875ZM268.53125 32.95625L271.89062 32.95625Q273.40625 32.95625 274.20312 32.253124Q275.0 31.534374 275.0 30.190624Q275.0 28.925 274.20312 28.175Q273.40625 27.409374 272.0 27.378124L268.53125 27.378124L268.53125 32.95625ZM294.46875 27.378124L289.90625 27.378124L289.90625 40.05L288.04688 40.05L288.04688 27.378124L283.48438 27.378124L283.48438 25.83125L294.46875 25.83125L294.46875 27.378124ZM295.89062 34.675Q295.89062 33.1125 296.5 31.878124Q297.10938 30.628124 298.1875 29.95625Q299.28125 29.284374 300.6875 29.284374Q302.84375 29.284374 304.17188 30.784374Q305.51562 32.26875 305.51562 34.753124L305.51562 34.878124Q305.51562 36.425 304.92188 37.659374Q304.32812 38.878124 303.21875 39.565624Q302.125 40.253124 300.70312 40.253124Q298.5625 40.253124 297.21875 38.753124Q295.89062 37.253124 295.89062 34.8L295.89062 34.675ZM297.70312 34.878124Q297.70312 36.64375 298.51562 37.70625Q299.34375 38.76875 300.70312 38.76875Q302.07812 38.76875 302.89062 37.690624Q303.70312 36.6125 303.70312 34.675Q303.70312 32.925 302.875 31.846874Q302.04688 30.76875 300.6875 30.76875Q299.34375 30.76875 298.51562 31.83125Q297.70312 32.89375 297.70312 34.878124ZM309.8125 26.925L309.8125 29.4875L311.79688 29.4875L311.79688 30.878124L309.8125 30.878124L309.8125 37.425Q309.8125 38.065624 310.07812 38.39375Q310.34375 38.70625 310.98438 38.70625Q311.29688 38.70625 311.84375 38.58125L311.84375 40.05Q311.125 40.253124 310.45312 40.253124Q309.25 40.253124 308.625 39.51875Q308.01562 38.784374 308.01562 37.425L308.01562 30.878124L306.09375 30.878124L306.09375 29.4875L308.01562 29.4875L308.01562 26.925L309.8125 26.925ZM320.89062 40.05Q320.73438 39.7375 320.64062 38.940624Q319.375 40.253124 317.625 40.253124Q316.0625 40.253124 315.0625 39.3625Q314.0625 38.471874 314.0625 37.1125Q314.0625 35.471874 315.3125 34.565624Q316.57812 33.64375 318.84375 33.64375L320.60938 33.64375L320.60938 32.815624Q320.60938 31.8625 320.03125 31.3Q319.46875 30.7375 318.375 30.7375Q317.40625 30.7375 316.75 31.2375Q316.09375 31.721874 316.09375 32.409374L314.28125 32.409374Q314.28125 31.628124 314.84375 30.89375Q315.40625 30.14375 316.35938 29.721874Q317.32812 29.284374 318.48438 29.284374Q320.3125 29.284374 321.34375 30.20625Q322.375 31.1125 322.42188 32.721874L322.42188 37.58125Q322.42188 39.034374 322.78125 39.89375L322.78125 40.05L320.89062 40.05ZM317.89062 38.675Q318.75 38.675 319.5 38.2375Q320.26562 37.8 320.60938 37.096874L320.60938 34.925L319.1875 34.925Q315.875 34.925 315.875 36.8625Q315.875 37.721874 316.4375 38.20625Q317.0 38.675 317.89062 38.675ZM327.32812 40.05L325.53125 40.05L325.53125 25.05L327.32812 25.05L327.32812 40.05ZM346.10938 35.534374Q345.84375 37.8 344.4375 39.034374Q343.04688 40.253124 340.71875 40.253124Q338.20312 40.253124 336.67188 38.440624Q335.15625 36.628124 335.15625 33.596874L335.15625 32.2375Q335.15625 30.253124 335.85938 28.753124Q336.57812 27.253124 337.875 26.440624Q339.17188 25.628124 340.89062 25.628124Q343.15625 25.628124 344.51562 26.89375Q345.89062 28.159374 346.10938 30.39375L344.21875 30.39375Q343.98438 28.70625 343.15625 27.940624Q342.34375 27.175 340.89062 27.175Q339.09375 27.175 338.0625 28.503124Q337.04688 29.83125 337.04688 32.284374L337.04688 33.659374Q337.04688 35.971874 338.01562 37.346874Q338.98438 38.70625 340.71875 38.70625Q342.28125 38.70625 343.10938 38.003124Q343.95312 37.3 344.21875 35.534374L346.10938 35.534374ZM350.53125 34.4875L350.53125 40.05L348.65625 40.05L348.65625 25.83125L353.89062 25.83125Q356.23438 25.83125 357.54688 27.01875Q358.875 28.20625 358.875 30.175Q358.875 32.253124 357.57812 33.378124Q356.28125 34.4875 353.875 34.4875L350.53125 34.4875ZM350.53125 32.95625L353.89062 32.95625Q355.40625 32.95625 356.20312 32.253124Q357.0 31.534374 357.0 30.190624Q357.0 28.925 356.20312 28.175Q355.40625 27.409374 354.0 27.378124L350.53125 27.378124L350.53125 32.95625ZM364.07812 25.83125L368.71875 37.425L373.375 25.83125L375.79688 25.83125L375.79688 40.05L373.92188 40.05L373.92188 34.51875L374.10938 28.534374L369.4375 40.05L368.0 40.05L363.34375 28.565624L363.53125 34.51875L363.53125 40.05L361.65625 40.05L361.65625 25.83125L364.07812 25.83125ZM388.85938 34.3L385.53125 34.3L385.53125 40.05L383.64062 40.05L383.64062 25.83125L388.34375 25.83125Q390.75 25.83125 392.04688 26.925Q393.34375 28.01875 393.34375 30.1125Q393.34375 31.440624 392.625 32.425Q391.90625 33.409374 390.625 33.89375L393.96875 39.925L393.96875 40.05L391.95312 40.05L388.85938 34.3ZM385.53125 32.76875L388.40625 32.76875Q389.79688 32.76875 390.625 32.05Q391.45312 31.315624 391.45312 30.1125Q391.45312 28.784374 390.65625 28.08125Q389.875 27.378124 388.39062 27.378124L385.53125 27.378124L385.53125 32.76875ZM399.75 40.253124Q397.60938 40.253124 396.25 38.846874Q394.90625 37.425 394.90625 35.065624L394.90625 34.721874Q394.90625 33.159374 395.5 31.925Q396.10938 30.690624 397.1875 29.9875Q398.26562 29.284374 399.53125 29.284374Q401.59375 29.284374 402.73438 30.64375Q403.875 32.003124 403.875 34.534374L403.875 35.284374L396.71875 35.284374Q396.75 36.846874 397.625 37.815624Q398.5 38.76875 399.84375 38.76875Q400.8125 38.76875 401.46875 38.378124Q402.14062 37.9875 402.64062 37.346874L403.73438 38.20625Q402.40625 40.253124 399.75 40.253124ZM399.53125 30.76875Q398.4375 30.76875 397.6875 31.565624Q396.95312 32.3625 396.78125 33.8L402.0625 33.8L402.0625 33.659374Q401.98438 32.284374 401.3125 31.534374Q400.65625 30.76875 399.53125 30.76875ZM409.85938 37.596874L412.46875 29.4875L414.3125 29.4875L410.53125 40.05L409.15625 40.05L405.32812 29.4875L407.17188 29.4875L409.85938 37.596874ZM420.75 40.253124Q418.60938 40.253124 417.25 38.846874Q415.90625 37.425 415.90625 35.065624L415.90625 34.721874Q415.90625 33.159374 416.5 31.925Q417.10938 30.690624 418.1875 29.9875Q419.26562 29.284374 420.53125 29.284374Q422.59375 29.284374 423.73438 30.64375Q424.875 32.003124 424.875 34.534374L424.875 35.284374L417.71875 35.284374Q417.75 36.846874 418.625 37.815624Q419.5 38.76875 420.84375 38.76875Q421.8125 38.76875 422.46875 38.378124Q423.14062 37.9875 423.64062 37.346874L424.73438 38.20625Q423.40625 40.253124 420.75 40.253124ZM420.53125 30.76875Q419.4375 30.76875 418.6875 31.565624Q417.95312 32.3625 417.78125 33.8L423.0625 33.8L423.0625 33.659374Q422.98438 32.284374 422.3125 31.534374Q421.65625 30.76875 420.53125 30.76875ZM429.07812 29.4875L429.14062 30.815624Q430.34375 29.284374 432.29688 29.284374Q435.65625 29.284374 435.67188 33.065624L435.67188 40.05L433.875 40.05L433.875 33.05Q433.85938 31.909374 433.34375 31.3625Q432.84375 30.815624 431.75 30.815624Q430.875 30.815624 430.20312 31.284374Q429.54688 31.753124 429.17188 32.51875L429.17188 40.05L427.375 40.05L427.375 29.4875L429.07812 29.4875ZM444.89062 39.003124Q443.84375 40.253124 441.79688 40.253124Q440.10938 40.253124 439.21875 39.26875Q438.34375 38.284374 438.32812 36.3625L438.32812 29.4875L440.14062 29.4875L440.14062 36.315624Q440.14062 38.70625 442.09375 38.70625Q444.15625 38.70625 444.84375 37.175L444.84375 29.4875L446.65625 29.4875L446.65625 40.05L444.9375 40.05L444.89062 39.003124ZM453.75 40.253124Q451.60938 40.253124 450.25 38.846874Q448.90625 37.425 448.90625 35.065624L448.90625 34.721874Q448.90625 33.159374 449.5 31.925Q450.10938 30.690624 451.1875 29.9875Q452.26562 29.284374 453.53125 29.284374Q455.59375 29.284374 456.73438 30.64375Q457.875 32.003124 457.875 34.534374L457.875 35.284374L450.71875 35.284374Q450.75 36.846874 451.625 37.815624Q452.5 38.76875 453.84375 38.76875Q454.8125 38.76875 455.46875 38.378124Q456.14062 37.9875 456.64062 37.346874L457.73438 38.20625Q456.40625 40.253124 453.75 40.253124ZM453.53125 30.76875Q452.4375 30.76875 451.6875 31.565624Q450.95312 32.3625 450.78125 33.8L456.0625 33.8L456.0625 33.659374Q455.98438 32.284374 455.3125 31.534374Q454.65625 30.76875 453.53125 30.76875ZM467.32812 40.05L465.53125 40.05L465.53125 29.4875L467.32812 29.4875L467.32812 40.05ZM465.375 26.675Q465.375 26.2375 465.64062 25.940624Q465.92188 25.628124 466.4375 25.628124Q466.96875 25.628124 467.23438 25.940624Q467.51562 26.2375 467.51562 26.675Q467.51562 27.1125 467.23438 27.409374Q466.96875 27.70625 466.4375 27.70625Q465.92188 27.70625 465.64062 27.409374Q465.375 27.1125 465.375 26.675ZM472.07812 29.4875L472.14062 30.815624Q473.34375 29.284374 475.29688 29.284374Q478.65625 29.284374 478.67188 33.065624L478.67188 40.05L476.875 40.05L476.875 33.05Q476.85938 31.909374 476.34375 31.3625Q475.84375 30.815624 474.75 30.815624Q473.875 30.815624 473.20312 31.284374Q472.54688 31.753124 472.17188 32.51875L472.17188 40.05L470.375 40.05L470.375 29.4875L472.07812 29.4875ZM496.65625 25.83125L496.65625 35.503124Q496.65625 37.503124 495.39062 38.784374Q494.14062 40.065624 492.0 40.221874L491.5 40.253124Q489.15625 40.253124 487.76562 38.9875Q486.39062 37.721874 486.375 35.51875L486.375 25.83125L488.21875 25.83125L488.21875 35.45625Q488.21875 37.003124 489.0625 37.8625Q489.92188 38.70625 491.5 38.70625Q493.09375 38.70625 493.9375 37.8625Q494.78125 37.01875 494.78125 35.471874L494.78125 25.83125L496.65625 25.83125ZM503.84375 33.70625Q501.42188 33.01875 500.32812 32.01875Q499.23438 31.003124 499.23438 29.51875Q499.23438 27.83125 500.57812 26.7375Q501.92188 25.628124 504.0625 25.628124Q505.53125 25.628124 506.67188 26.20625Q507.82812 26.76875 508.45312 27.76875Q509.07812 28.753124 509.07812 29.940624L507.20312 29.940624Q507.20312 28.659374 506.375 27.925Q505.5625 27.175 504.0625 27.175Q502.67188 27.175 501.89062 27.784374Q501.125 28.39375 501.125 29.4875Q501.125 30.346874 501.85938 30.95625Q502.59375 31.55 504.35938 32.05Q506.14062 32.55 507.14062 33.159374Q508.14062 33.753124 508.625 34.55Q509.10938 35.346874 509.10938 36.440624Q509.10938 38.159374 507.76562 39.20625Q506.42188 40.253124 504.15625 40.253124Q502.70312 40.253124 501.42188 39.690624Q500.15625 39.128124 499.46875 38.159374Q498.78125 37.175 498.78125 35.925L500.67188 35.925Q500.67188 37.221874 501.625 37.971874Q502.57812 38.70625 504.15625 38.70625Q505.64062 38.70625 506.4375 38.1125Q507.23438 37.503124 507.23438 36.45625Q507.23438 35.409374 506.5 34.846874Q505.76562 34.26875 503.84375 33.70625ZM518.3594 36.39375Q518.3594 35.4875 517.71875 34.878124Q517.09375 34.253124 515.6094 33.753124Q513.53125 33.128124 512.5781 32.1125Q511.625 31.08125 511.625 29.51875Q511.625 27.909374 512.5469 26.89375Q513.4844 25.8625 515.125 25.659374L515.125 23.51875L516.5781 23.51875L516.5781 25.675Q518.21875 25.89375 519.125 27.05Q520.0469 28.20625 520.0469 30.20625L518.25 30.20625Q518.25 28.83125 517.59375 28.01875Q516.9375 27.20625 515.8281 27.20625Q514.65625 27.20625 514.03125 27.815624Q513.4219 28.409374 513.4219 29.4875Q513.4219 30.471874 514.0781 31.065624Q514.7344 31.659374 516.21875 32.14375Q517.7031 32.628124 518.53125 33.20625Q519.375 33.784374 519.7656 34.565624Q520.1719 35.33125 520.1719 36.3625Q520.1719 38.01875 519.1719 39.034374Q518.1875 40.034374 516.3906 40.221874L516.3906 42.08125L514.9531 42.08125L514.9531 40.221874Q513.1406 40.05 512.1094 38.925Q511.07812 37.8 511.07812 35.8625L512.875 35.8625Q512.875 37.221874 513.59375 37.95625Q514.3125 38.675 515.6094 38.675Q516.8906 38.675 517.625 38.065624Q518.3594 37.45625 518.3594 36.39375Z" fill-rule="nonzero"/></svg>