<?xml version="1.0" encoding="UTF-8"?>
<!DOCTYPE svg PUBLIC "-//W3C//DTD SVG 1.1//EN" "http://www.w3.org/Graphics/SVG/1.1/DTD/svg11.dtd">
<!-- Creator: CorelDRAW -->
<svg xmlns="http://www.w3.org/2000/svg" xml:space="preserve" width="5.35097in" height="2.25494in" version="1.1" style="shape-rendering:geometricPrecision; text-rendering:geometricPrecision; image-rendering:optimizeQuality; fill-rule:evenodd; clip-rule:evenodd"
viewBox="0 0 5350.97 2254.94"
 xmlns:xlink="http://www.w3.org/1999/xlink">
 <defs>
  <style type="text/css">
   <![CDATA[
    .fil0 {fill:#005493}
   ]]>
  </style>
 </defs>
 <g id="Layer_x0020_1">
  <metadata id="CorelCorpID_0Corel-Layer"/>
  <g id="_2209845517344">
   <path class="fil0" d="M115.67 1479.24l0 -447.66 -47.73 0c-9.93,0 -18.95,-1.31 -27.06,-3.91 -8.54,-2.75 -15.91,-6.91 -22.08,-12.46 -6.38,-5.74 -11.15,-12.78 -14.3,-21.03 -2.99,-7.84 -4.5,-16.69 -4.5,-26.46 0,-9.5 1.52,-18.19 4.55,-25.98 3.17,-8.15 7.93,-15.11 14.25,-20.8 6.17,-5.56 13.55,-9.72 22.08,-12.46 8.1,-2.6 17.13,-3.91 27.06,-3.91l47.73 0 0 -111.44c0,-11.08 1.72,-21.35 5.15,-30.75 3.5,-9.59 8.76,-18.13 15.73,-25.54l0.11 -0.1c7.06,-7.36 15.13,-12.96 24.18,-16.71 8.94,-3.71 18.68,-5.6 29.23,-5.6 10.54,0 20.3,1.89 29.23,5.6 9.05,3.76 17.11,9.35 24.18,16.71l0.11 0.1c6.98,7.42 12.23,15.95 15.74,25.54 3.43,9.4 5.15,19.67 5.15,30.75l0 111.44 80.54 0c10,0 19.07,1.31 27.21,3.91 8.61,2.76 16,6.91 22.17,12.46 6.32,5.69 11.07,12.66 14.25,20.8 3.03,7.78 4.55,16.47 4.55,25.97 0,9.77 -1.5,18.62 -4.5,26.46 -3.15,8.25 -7.93,15.3 -14.3,21.04 -6.19,5.56 -13.55,9.72 -22.11,12.46l-0.05 0c-8.14,2.6 -17.21,3.91 -27.21,3.91l-80.54 0 0 420.84c0,14.62 1.41,27.23 4.26,37.76 2.64,9.76 6.46,17.67 11.48,23.63 4.91,5.83 11.7,10.5 20.36,13.97 9.31,3.73 20.74,6.05 34.26,6.91 3.41,0 7.23,0.72 10.64,0.72 22.23,1.65 39.28,7.31 51.15,17.01 12.96,10.6 19.44,25.24 19.44,43.93 0,24.26 -8.64,42.26 -25.91,54.03 -8.11,5.62 -18.87,9.74 -32.14,12.37 -12.42,2.46 -27.25,3.69 -44.37,3.69l-7.91 0c-62.51,0 -109.81,-15.78 -141.87,-47.32 -32.12,-31.6 -48.19,-78.24 -48.19,-139.88zm521.51 172.06c-7.06,7.35 -15.12,12.96 -24.18,16.72 -8.93,3.71 -18.69,5.6 -29.23,5.6 -10.55,0 -20.3,-1.89 -29.23,-5.6 -9.05,-3.76 -17.12,-9.36 -24.18,-16.72l-0.11 -0.1c-6.98,-7.41 -12.23,-15.95 -15.73,-25.54 -3.43,-9.4 -5.15,-19.67 -5.15,-30.75l0 -627.91c0,-10.49 1.64,-20.21 4.85,-29.13 3.3,-9.16 8.24,-17.28 14.73,-24.37l0.1 -0.16c6.68,-7.13 14.38,-12.5 23.04,-16.1 8.59,-3.57 17.97,-5.36 28.09,-5.36 10.24,0 19.6,1.79 28.15,5.35 8.65,3.61 16.29,8.98 22.97,16.11 6.64,7.08 11.67,15.22 15.02,24.41 3.26,8.92 4.91,18.68 4.91,29.25l0 13.56 1.79 -2.72c11.3,-16.85 25.47,-32 42.5,-45.44l0.05 -0.05c17.06,-13.34 34.73,-23.43 53.05,-30.17 18.57,-6.84 37.76,-10.3 57.63,-10.3 14.07,0 26.57,1.71 37.49,5.09 11.48,3.55 21.15,8.97 29,16.23l0.15 0.11c6.63,6.32 11.56,13.78 14.81,22.43 3.14,8.34 4.69,17.62 4.69,27.92 0,11.18 -1.94,21.17 -5.85,30 -3.96,8.96 -9.9,16.55 -17.81,22.78 -7.63,6.43 -17.26,11.23 -28.87,14.35 -10.86,2.91 -23.51,4.39 -37.92,4.39 -24.51,0 -45.74,3.72 -63.69,11.12 -17.54,7.23 -32.14,18.08 -43.78,32.5 -12.04,15.01 -21.09,32.02 -27.13,51.03 -6.1,19.2 -9.17,40.69 -9.17,64.45l0 400.65c0,22.63 -6.97,41.5 -20.89,56.29l-0.11 0.1zm395.61 -842.92c-12.04,0 -23.32,-2.21 -33.84,-6.61 -10.53,-4.41 -20.12,-10.94 -28.75,-19.57 -8.71,-8.71 -15.29,-18.34 -19.73,-28.9 -4.47,-10.63 -6.69,-21.93 -6.69,-33.93 0,-12.35 2.21,-23.86 6.68,-34.49 4.42,-10.54 11.05,-20.12 19.9,-28.69 8.65,-8.61 18.2,-15.05 28.65,-19.34 10.55,-4.35 21.82,-6.49 33.79,-6.49 12.23,0 23.65,2.12 34.31,6.44 10.61,4.3 20.31,10.76 29.14,19.44 8.76,8.61 15.4,18.24 19.83,28.81 4.43,10.57 6.69,22.03 6.69,34.31 0,12.02 -2.29,23.33 -6.78,33.93 -4.45,10.49 -11,20.08 -19.58,28.8l-0.16 0.16c-8.76,8.62 -18.46,15.13 -29.09,19.52 -10.7,4.4 -22.15,6.61 -34.36,6.61zm53.52 842.81c-6.95,7.4 -15,13.04 -24.11,16.82 -8.93,3.71 -18.74,5.6 -29.41,5.6 -10.55,0 -20.29,-1.89 -29.22,-5.6 -9.05,-3.76 -17.12,-9.36 -24.18,-16.72l-0.11 -0.1c-6.98,-7.41 -12.23,-15.94 -15.74,-25.54 -3.43,-9.4 -5.15,-19.67 -5.15,-30.75l0 -624.32c0,-22.61 6.96,-41.49 20.89,-56.05 7.02,-7.46 15.08,-13.13 24.17,-16.95 9.01,-3.79 18.8,-5.71 29.34,-5.71 10.66,0 20.51,1.92 29.53,5.71 9.13,3.84 17.17,9.54 24.09,17.05 6.94,7.3 12.15,15.71 15.62,25.15 3.44,9.37 5.16,19.66 5.16,30.8l0 624.32c0,11.09 -1.72,21.35 -5.15,30.75 -3.5,9.59 -8.75,18.13 -15.73,25.54zm287.13 244.75c-7.04,7.48 -15.12,13.09 -24.21,16.86 -8.99,3.72 -18.76,5.56 -29.3,5.56 -10.54,0 -20.31,-1.84 -29.3,-5.56 -9.09,-3.76 -17.18,-9.38 -24.22,-16.86 -7,-7.43 -12.24,-15.89 -15.74,-25.4 -3.43,-9.32 -5.15,-19.54 -5.15,-30.66l0 -872.9c0,-10.49 1.64,-20.21 4.85,-29.13 3.3,-9.16 8.24,-17.28 14.73,-24.37l0.1 -0.16c6.66,-7.1 14.45,-12.47 23.32,-16.1 8.74,-3.57 18.26,-5.36 28.52,-5.36 10.24,0 19.6,1.79 28.15,5.35 8.65,3.61 16.28,8.98 22.96,16.11 6.64,7.08 11.67,15.22 15.02,24.41 3.26,8.92 4.91,18.68 4.91,29.25l0 33.35c6.56,-8.7 13.58,-16.93 21.08,-24.69 16.83,-17.42 36.07,-32.5 57.67,-45.2 21.54,-12.85 44.6,-22.5 69.11,-28.93 24.5,-6.43 50.3,-9.65 77.33,-9.65 48.54,0 92.58,9.04 132.08,27.07 39.51,18.04 74.25,45.04 104.17,80.96 29.89,35.7 52.22,77.29 67.06,124.72 14.72,47.07 22.06,99.83 22.06,158.24 0,58.07 -7.34,110.66 -22.02,157.69 -14.77,47.33 -36.96,88.95 -66.56,124.76 -29.76,36.02 -64.25,63.08 -103.42,81.18 -39.14,18.08 -82.74,27.13 -130.75,27.13 -26.84,0 -52.3,-3.07 -76.41,-9.22 -24.07,-6.13 -46.84,-15.39 -68.33,-27.77 -21.46,-12.22 -40.48,-26.82 -57.01,-43.74 -7.07,-7.23 -13.69,-14.9 -19.85,-22.99l0 269.99c0,22.67 -6.97,41.26 -20.89,56.06zm215.9 -356.52c30.54,0 57.77,-5.63 81.66,-16.9 23.74,-11.2 44.44,-28.11 62.05,-50.74l0.05 0c17.95,-22.93 31.43,-50.02 40.45,-81.19 9.13,-31.57 13.68,-67.51 13.68,-107.73 0,-40.33 -4.55,-76.32 -13.67,-107.91 -9.02,-31.21 -22.5,-58.31 -40.46,-81.24l-0.05 0c-17.61,-22.63 -38.31,-39.54 -62.05,-50.74 -23.88,-11.27 -51.11,-16.9 -81.65,-16.9 -29.41,0 -55.79,5.7 -79.12,17.12 -23.38,11.44 -44.04,28.74 -61.95,51.91 -18.12,23.45 -31.75,50.72 -40.86,81.78 -9.2,31.35 -13.8,66.7 -13.8,105.98 0,39.41 4.6,74.81 13.8,106.16 9.09,31 22.72,58.2 40.86,81.56 17.89,23.04 38.55,40.27 61.95,51.69 23.41,11.43 49.79,17.15 79.12,17.15zm579.65 111.78c-6.95,7.4 -15,13.04 -24.11,16.82 -8.93,3.71 -18.74,5.6 -29.41,5.6 -10.55,0 -20.29,-1.89 -29.22,-5.6 -9.05,-3.76 -17.12,-9.36 -24.18,-16.72l-0.11 -0.1c-6.98,-7.41 -12.23,-15.94 -15.74,-25.54 -3.43,-9.4 -5.15,-19.67 -5.15,-30.75l0 -907.15c0,-22.66 6.97,-41.26 20.89,-56.05 7.04,-7.48 15.11,-13.09 24.22,-16.86 8.99,-3.72 18.75,-5.56 29.3,-5.56 10.66,0 20.49,1.84 29.48,5.56 9.15,3.79 17.2,9.44 24.14,16.96 6.94,7.41 12.16,15.83 15.64,25.29 3.43,9.32 5.15,19.54 5.15,30.66l0 907.15c0,11.09 -1.72,21.35 -5.15,30.75 -3.5,9.59 -8.75,18.13 -15.73,25.54zm478.37 22.42c-55.37,0 -104.81,-8.57 -148.3,-25.67 -43.87,-17.26 -81.54,-43.14 -113,-77.61 -31.34,-34.46 -54.79,-75.59 -70.38,-123.38 -15.44,-47.36 -23.16,-101.19 -23.16,-161.45 0,-58.87 7.72,-112.07 23.19,-159.54 15.54,-47.72 38.92,-89.57 70.14,-125.51 31.43,-36.19 68.18,-63.36 110.22,-81.48 41.89,-18.05 88.9,-27.09 140.98,-27.09 97.19,0 176.82,33.04 238.63,99.1 30.84,32.96 54,70.64 69.42,113.07 15.37,42.3 23.07,89.2 23.07,140.74 0,12.39 -1.76,23.65 -5.28,33.81 -3.63,10.5 -9.08,19.59 -16.33,27.27 -7.41,7.86 -16.19,13.7 -26.32,17.56l-0.05 0c-9.82,3.73 -20.78,5.58 -32.89,5.58l-442.42 0c1,30.26 5.43,57.5 13.3,81.72 8.89,27.37 22.15,50.98 39.78,70.87 17.74,19.71 38.46,34.52 62.26,44.35 24.03,9.93 51.44,14.91 82.33,14.91 20.83,0 39.83,-1.98 57.03,-5.98 16.99,-3.95 32.31,-9.88 45.98,-17.82l0.05 -0.05c13.91,-7.96 27.76,-18.84 41.48,-32.64 13.93,-14.01 27.8,-31.06 41.56,-51.19l0.15 -0.21c7.07,-9.94 15.28,-17.46 24.71,-22.54 9.6,-5.18 20.21,-7.76 31.87,-7.76 9.69,0 18.61,1.55 26.71,4.61 8.4,3.18 15.76,7.91 21.99,14.14 6.23,6.23 10.89,13.44 14.01,21.68 3.02,7.97 4.51,16.72 4.51,26.3 0,5.74 -0.91,12.13 -2.69,19.13 -1.67,6.54 -4.17,13.78 -7.45,21.66l-0.26 0.57c-12.35,26.09 -28.09,49.27 -47.24,69.47 -19,20.05 -41.37,37.14 -67.12,51.21 -25.59,14.13 -53.5,24.69 -83.74,31.71 -30.05,6.98 -62.3,10.45 -96.75,10.45zm-200.84 -466.59l368.01 0c-1.62,-24.69 -6.13,-47.19 -13.53,-67.48 -8.59,-23.57 -21.15,-44.22 -37.65,-61.95 -16.53,-17.76 -35.39,-31 -56.59,-39.76 -21.33,-8.82 -45.28,-13.2 -71.85,-13.2 -26.91,0 -51.29,4.46 -73.22,13.38 -21.85,8.89 -41.43,22.24 -58.78,40.04 -17.34,17.89 -30.78,38.68 -40.33,62.31 -8.12,20.11 -13.47,42.34 -16.06,66.67z"/>
   <path class="fil0" d="M4223.5 0c622.69,0 1127.47,504.78 1127.47,1127.47 0,622.69 -504.78,1127.47 -1127.47,1127.47 -622.68,0 -1127.47,-504.78 -1127.47,-1127.47 0,-622.69 504.79,-1127.47 1127.47,-1127.47zm-752.39 630.39l0 -52.47 466.61 0 0 60.93 -466.61 0 0 -8.45zm900.82 458.4l0 -52.46 287.5 0 0 -163.53 -114.16 -114.17 -78.19 0 -181.53 180.83 -5.91 2.43 -62.34 0.38 -6.01 -14.4 169.24 -169.25 -89.08 0 -183.68 183.69 -71.25 0 0 -11.85 2.48 -5.98 165.83 -165.86 -89.08 0 -64.8 64.81 -14.44 -5.98 0 -62.68 2.48 -5.98 51.06 -51.07 394.3 0 -58.88 -58.87 -276.5 0 60.9 -60.93 412.3 0 5.71 2.25 31.54 29.13 0 -31.37 60.92 0 0 458.41 66.85 0 0 -458.41 10.41 0 5.88 2.42 44.63 43.28 0 412.71 66.85 0 0 -345.93 60.93 60.9 0 345.95 -603.97 0 0 -8.45zm287.5 -302.8l0 -88.9 -58.26 -58.24 -90.94 0 149.2 147.15zm-452.05 888.51l-58.39 -58.4 276.5 0 58.88 -58.87 -394.33 0 -152.31 -157.57 0 277.36 -60.92 0 0 -340.38 -31.7 -32.78 0.87 0c-16.83,-16.97 -33.54,-33.83 -50.15,-51l-0.32 0.13 -44 -44.35 -2.48 -5.94 0 -444.08 -66.86 0 0 918.4 -60.92 0 0 -918.4 -150.13 0 0 -60.91 466.61 0 0 442.04 353.71 356.56 89.11 0 -169.24 -169.24 6.01 -14.39 63.06 0.37 5.95 2.43 180.82 180.83 78.13 0 114.16 -114.17 0 -163.53 -287.5 0 0 -60.91 603.97 0 0 345.93 -60.93 60.91 0 -345.93 -66.85 0 0 412.71 -44.63 43.28 -5.88 2.41 -10.41 0 0 -458.4 -66.85 0 0 458.4 -60.92 0 0 -31.35 -31.54 29.11 -5.71 2.24 -412.3 0 -2.5 -2.52zm-458.36 -5.94l0 -402.69 14.44 -5.94 44 44.36 2.47 5.94 0 366.79 -60.91 0 0 -8.46zm60.91 -909.94l0 421.84 66.87 69.04 0 -25.94 14.44 -5.94 44.01 44.37 2.47 5.94 0 44.48 178.08 183.91 89.21 0c-52.88,-53.37 -104.74,-106.02 -156.48,-158.55 -56.19,-57.06 -112.28,-114.01 -169.25,-171.43l-2.48 -5.94 0 -401.77 -66.87 0zm700.3 857.48l90.94 0 58.26 -58.25 0 -88.9 -149.2 147.15z"/>
  </g>
 </g>
</svg>
