<?xml version="1.0" standalone="no"?>
<!DOCTYPE svg PUBLIC "-//W3C//DTD SVG 20010904//EN"
 "http://www.w3.org/TR/2001/REC-SVG-20010904/DTD/svg10.dtd">
<svg version="1.0" xmlns="http://www.w3.org/2000/svg"
 width="43.000000pt" height="37.000000pt" viewBox="0 0 43.000000 37.000000"
 preserveAspectRatio="xMidYMid meet">

<g transform="translate(0.000000,37.000000) scale(0.100000,-0.100000)"
fill="#000000" stroke="none">
<path d="M155 325 c-139 -50 -129 -256 13 -295 81 -21 158 18 187 95 49 126
-72 247 -200 200z m3 -72 c-10 -2 -28 -2 -40 0 -13 2 -5 4 17 4 22 1 32 -1 23
-4z m123 -30 l2 -38 7 40 7 40 3 -3na5 c2 -33 3 -33 10 -10 6 18 8 7 8 -40 0
-47 -2 -58 -8 -40 -7 23 -8 23 -10 -10 l-3 -35 -7 40 -7 40 -2 -37 c-1 -38 -1
-38 -43 -37 -35 1 -38 2 -18 8 23 7 22 8 -12 12 -29 4 -38 1 -39 -11 -1 -8 -5
-1 -9 15 -7 29 -8 29 -9 4 -1 -16 -7 -26 -16 -26 -12 0 -15 14 -15 63 0 40 -4
64 -12 67 -7 3 4 6 25 6 34 1 37 -1 37 -28 0 -16 7 -34 15 -41 21 -18 19 -35
-2 -19 -15 11 -16 11 -6 -1 19 -20 43 -22 36 -2 -6 15 -3 14 15 -1 22 -20 42
-16 42 9 0 8 -9 14 -20 14 -11 0 -20 5 -20 10 0 6 9 10 20 10 11 0 20 6 20 14
0 25 -20 29 -42 9 -17 -14 -20 -15 -16 -2 4 9 1 16 -8 16 -7 0 -10 -5 -7 -10
3 -6 1 -7 -5 -3 -22 13 -12 26 21 27 30 1 31 1 7 9 -21 7 -19 8 18 9 42 1 42
1 43 -36z"/>
<path d="M149 198 c-3 -22 -1 -34 4 -29 5 5 7 21 5 37 -3 27 -4 26 -9 -8z"/>
</g>
</svg>
