<?xml version="1.0" standalone="no"?>
<!DOCTYPE svg PUBLIC "-//W3C//DTD SVG 20010904//EN"
 "http://www.w3.org/TR/2001/REC-SVG-20010904/DTD/svg10.dtd">
<svg version="1.0" xmlns="http://www.w3.org/2000/svg"
 width="3508.000000pt" height="2480.000000pt" viewBox="1153,901,1215.425048828125,678"
 preserveAspectRatio="xMidYMid meet">

<g transform="translate(0.000000,2480.000000) scale(0.100000,-0.100000)"
fill="#000000" stroke="none">
<path d="M11530 12615 l0 -3175 980 0 980 0 0 -215 0 -215 4115 0 4115 0 0
215 0 215 979 0 978 0 5 3144 c3 1729 3 3158 0 3175 l-4 31 -6074 0 -6074 0 0
-3175z m3275 2490 c59 -132 109 -246 112 -252 4 -9 -7 -13 -37 -13 -41 0 -42
0 -68 60 l-27 60 -98 0 -97 0 -28 -57 c-25 -54 -30 -58 -65 -61 -26 -2 -37 1
-37 11 0 21 228 503 235 495 1 -1 51 -111 110 -243z m4660 -25 c53 -118 99
-221 102 -227 4 -9 -7 -13 -37 -13 -41 0 -42 0 -68 60 l-27 60 -97 0 -98 0
-30 -60 c-29 -58 -31 -60 -70 -60 -22 0 -40 1 -40 3 0 4 214 458 231 488 l12
24 13 -30 c7 -16 56 -127 109 -245z m-2899 215 c128 -80 154 -264 52 -379 -48
-55 -111 -81 -193 -80 -111 1 -201 68 -231 170 -30 104 -2 200 78 268 53 46
85 56 174 53 59 -2 79 -7 120 -32z m2091 15 c28 -16 61 -58 51 -64 -53 -35
-53 -35 -75 -10 -14 16 -32 24 -52 24 -32 0 -71 -29 -71 -53 0 -19 39 -51 80
-67 97 -36 130 -76 130 -157 0 -90 -59 -147 -155 -147 -64 0 -110 30 -137 91
-11 25 -18 47 -15 49 2 3 20 7 40 11 30 5 36 2 42 -18 13 -41 36 -59 75 -59
39 0 62 18 75 58 11 36 -20 71 -90 103 -80 36 -115 76 -115 132 1 51 17 82 56
108 39 25 118 25 161 -1z m2050 0 c17 -10 37 -28 42 -39 9 -16 7 -23 -11 -35
-29 -21 -41 -20 -63 4 -10 11 -31 20 -47 20 -30 0 -68 -30 -68 -55 0 -21 33
-49 77 -64 94 -34 133 -81 133 -158 0 -80 -43 -129 -127 -147 -71 -16 -160 40
-178 112 -7 30 -6 31 39 39 28 4 36 2 36 -9 0 -9 9 -27 21 -42 15 -19 29 -26
56 -26 48 0 73 24 73 70 0 45 -13 58 -102 99 -68 32 -94 60 -104 110 -8 39 22
99 60 122 42 25 121 25 163 -1z m-5488 -8 c66 -35 90 -125 51 -189 -27 -44
-65 -67 -124 -73 l-51 -5 -3 -97 -3 -98 -34 0 -35 0 0 240 0 240 83 0 c61 0
91 -5 116 -18z m388 -2 c41 -25 63 -68 63 -122 0 -81 -61 -138 -149 -138 l-40
0 -3 -97 -3 -98 -37 -3 -38 -3 0 240 0 241 88 0 c69 0 94 -4 119 -20z m373 5
c48 -25 70 -62 70 -119 0 -61 -24 -106 -68 -127 l-30 -14 69 -94 c38 -51 69
-97 69 -103 0 -5 -19 -8 -42 -6 -41 3 -45 7 -96 78 -29 41 -61 86 -72 100
l-19 25 0 -103 -1 -103 -37 3 -38 3 -3 238 -2 237 85 0 c56 0 96 -5 115 -15z
m910 -145 c35 -88 64 -160 65 -160 1 0 30 72 65 160 l63 160 43 0 c41 0 43 -1
35 -22 -21 -54 -202 -482 -205 -485 -2 -2 -26 52 -54 119 -28 68 -75 183 -106
256 l-55 132 43 0 43 0 63 -160z m640 125 l0 -35 -95 0 -96 0 3 -57 3 -58 93
-3 92 -3 0 -34 0 -35 -95 0 -95 0 0 -70 0 -70 95 0 95 0 0 -40 0 -40 -130 0
-130 0 0 240 0 240 130 0 130 0 0 -35z m354 24 c92 -25 166 -151 151 -258 -19
-138 -134 -217 -307 -209 l-63 3 -3 238 -2 237 92 0 c51 0 110 -5 132 -11z
m1196 -24 l0 -35 -55 0 -55 0 0 -205 0 -205 -35 0 -35 0 0 205 0 205 -55 0
-55 0 0 35 0 35 145 0 145 0 0 -35z m800 0 l0 -35 -55 0 -55 0 0 -205 0 -205
-35 0 -35 0 0 205 0 205 -55 0 -55 0 0 35 0 35 145 0 145 0 0 -35z m180 -130
c0 -212 14 -245 105 -245 27 0 44 8 66 29 l29 29 0 176 0 176 40 0 40 0 0
-175 c0 -195 -6 -223 -59 -268 -86 -72 -215 -53 -273 41 -21 34 -23 50 -26
220 l-4 182 41 0 41 0 0 -165z m3510 -3145 l0 -2450 -925 0 -925 0 0 240 0
240 -4115 0 -4115 0 0 -240 0 -240 -920 0 -920 0 0 2450 0 2450 5960 0 5960 0
0 -2450z m-4280 -2417 l0 137 35 0 35 0 0 -222 0 -222 -149 154 -150 155 0
-137 -1 -138 -35 0 -35 0 1 223 0 222 149 -155 150 -155 0 138z m-3809 136
c43 -15 99 -56 99 -73 0 -8 -11 -21 -24 -29 -22 -15 -25 -14 -47 9 -50 53
-149 52 -201 -3 -103 -111 -10 -291 130 -254 40 11 82 50 82 77 0 10 -14 14
-45 14 -45 0 -45 0 -45 35 l0 35 85 0 85 0 0 -27 c0 -115 -88 -202 -202 -203
-83 0 -140 36 -180 114 -30 59 -23 168 15 225 49 74 159 109 248 80z m610 -12
c43 -29 48 -53 15 -69 -22 -10 -28 -9 -40 7 -17 24 -74 25 -91 1 -22 -29 -6
-53 53 -81 88 -41 112 -69 112 -127 0 -63 -20 -101 -64 -122 -45 -21 -94 -20
-133 4 -47 28 -84 110 -50 110 6 0 21 3 33 6 17 5 22 0 27 -24 11 -57 89 -65
117 -12 21 40 2 71 -65 101 -75 34 -105 68 -105 119 0 92 109 142 191 87z
m4120 -4 c76 -39 112 -98 112 -186 0 -102 -51 -175 -142 -206 -89 -29 -199 6
-248 80 -25 38 -28 51 -28 124 0 72 3 86 27 122 17 26 45 50 79 67 71 35 129
34 200 -1z m-5507 -12 c58 -55 54 -137 -9 -188 l-33 -26 52 -71 c75 -101 73
-96 27 -96 -38 0 -42 3 -98 83 l-58 82 -3 -82 -3 -83 -34 0 -35 0 0 206 0 206
84 -3 c73 -4 88 -7 110 -28z m396 -1 l0 -30 -80 0 -80 0 0 -50 0 -50 80 0 80
0 0 -30 0 -30 -80 0 -80 0 0 -65 0 -65 80 0 80 0 0 -30 0 -30 -115 0 -115 0 0
205 0 205 115 0 115 0 0 -30z m670 -175 l0 -205 -30 0 -30 0 0 205 0 205 30 0
30 0 0 -205z m680 175 c0 -29 -2 -30 -45 -30 l-45 0 0 -175 0 -175 -35 0 -35
0 0 175 0 175 -45 0 c-43 0 -45 1 -45 30 l0 30 125 0 125 0 0 -30z m320 0 l0
-30 -80 0 -80 0 0 -50 0 -50 75 0 75 0 0 -30 0 -30 -75 0 -75 0 0 -65 0 -65
80 0 80 0 0 -30 0 -30 -115 0 -115 0 0 205 0 205 115 0 115 0 0 -30z m280 15
c42 -22 60 -53 60 -106 0 -36 -6 -55 -26 -78 -14 -17 -32 -31 -40 -31 -22 0
-17 -9 46 -95 l59 -80 -30 -3 c-46 -5 -52 0 -110 84 l-54 78 -3 -82 -3 -82
-34 0 -35 0 0 205 0 205 70 0 c43 0 82 -6 100 -15z m420 -15 l0 -30 -80 0 -80
0 0 -50 0 -50 80 0 80 0 0 -30 0 -30 -80 0 -80 0 0 -65 0 -65 80 0 80 0 0 -30
0 -30 -115 0 -115 0 0 205 0 205 115 0 115 0 0 -30z m342 1 c53 -36 81 -84 86
-146 6 -77 -5 -120 -41 -162 -47 -54 -97 -73 -194 -73 l-83 0 0 206 0 206 99
-4 c83 -3 104 -7 133 -27z m521 -108 c54 -134 56 -137 67 -108 6 17 30 77 54
135 l42 105 38 3 c33 3 38 1 32 -14 -27 -70 -170 -410 -175 -416 -3 -4 -47 92
-97 213 l-92 219 38 0 38 0 55 -137z m547 107 l0 -30 -80 0 -80 0 0 -50 0 -50
80 0 80 0 0 -30 0 -30 -80 0 -80 0 0 -65 0 -65 80 0 80 0 0 -30 0 -30 -115 0
-115 0 0 205 0 205 115 0 115 0 0 -30z m838 -3 c87 -57 114 -185 60 -279 -42
-71 -84 -91 -195 -96 l-93 -4 0 207 0 207 93 -4 c82 -3 99 -6 135 -31z m887
17 c34 -16 65 -65 65 -103 0 -38 -28 -91 -54 -103 -15 -6 -26 -15 -26 -20 0
-4 25 -42 55 -83 30 -40 55 -76 55 -79 0 -4 -17 -6 -39 -6 -37 0 -41 4 -90 75
-28 41 -56 77 -61 80 -6 4 -10 -25 -10 -74 l0 -81 -35 0 -35 0 0 205 0 205 71
0 c44 0 84 -6 104 -16z"/>
<path d="M14652 15103 l-32 -68 61 -3 c34 -2 63 -1 66 1 5 6 -50 137 -58 137
-3 0 -20 -30 -37 -67z"/>
<path d="M19303 15107 l-32 -72 61 -3 c33 -2 62 -1 64 1 5 4 -44 126 -55 139
-3 3 -20 -26 -38 -65z"/>
<path d="M16350 15238 c-83 -43 -113 -148 -67 -238 31 -63 76 -90 147 -90 66
0 110 24 148 80 20 30 23 44 20 102 -4 72 -20 104 -71 142 -41 30 -122 33
-177 4z"/>
<path d="M15090 15180 l0 -70 40 0 c51 0 80 27 80 74 0 43 -29 66 -82 66 l-38
0 0 -70z"/>
<path d="M15480 15180 l0 -70 35 0 c41 0 85 36 85 70 0 34 -44 70 -85 70 l-35
0 0 -70z"/>
<path d="M15860 15180 l0 -70 34 0 c45 0 86 33 86 70 0 37 -41 70 -86 70 l-34
0 0 -70z"/>
<path d="M17740 15084 l0 -166 60 4 c39 3 70 11 88 24 34 25 72 98 72 139 0
17 -10 51 -22 75 -28 54 -90 90 -155 90 l-43 0 0 -166z"/>
<path d="M15636 13825 c-171 -61 -165 -318 10 -375 19 -7 68 -10 108 -8 59 3
81 9 114 31 57 37 85 95 86 173 0 72 -33 139 -86 173 l-33 20 -15 -30 c-14
-29 -13 -31 17 -54 83 -65 65 -189 -34 -231 -18 -8 -37 -14 -43 -14 -6 0 -10
58 -10 165 l0 165 -37 0 c-21 -1 -55 -7 -77 -15z m54 -185 c0 -77 -4 -120 -10
-120 -39 0 -90 49 -102 98 -14 55 43 142 93 142 18 0 19 -8 19 -120z"/>
<path d="M17080 13770 l0 -40 95 0 95 0 0 -340 0 -340 40 0 40 0 0 340 0 340
90 0 90 0 0 40 0 40 -225 0 -225 0 0 -40z"/>
<path d="M17663 13510 c-27 -16 -33 -17 -33 -5 0 11 -12 15 -45 15 l-45 0 2
-232 3 -233 40 0 40 0 5 178 5 179 28 24 c30 25 57 30 86 15 15 -8 21 -4 35
26 14 29 15 38 4 44 -24 16 -92 9 -125 -11z"/>
<path d="M17955 13511 c-51 -23 -101 -79 -114 -128 -6 -21 -11 -68 -11 -104 0
-128 78 -221 198 -236 59 -7 127 14 158 48 l19 21 5 -28 c5 -26 9 -29 45 -29
l40 0 3 233 2 232 -45 0 c-42 0 -45 -2 -45 -27 0 -24 -1 -25 -17 -11 -58 50
-163 63 -238 29z m185 -73 c50 -34 72 -71 78 -127 10 -112 -54 -195 -153 -195
-58 -1 -91 17 -129 67 -28 37 -33 125 -11 183 33 87 140 123 215 72z"/>
<path d="M18576 13505 c-44 -30 -46 -30 -46 -5 0 17 -7 20 -40 20 l-40 0 0
-235 0 -235 40 0 40 0 0 143 c0 78 5 159 11 181 15 54 52 86 101 86 93 0 108
-35 108 -250 l0 -160 41 0 41 0 -4 188 c-3 208 -11 236 -71 272 -48 30 -134
27 -181 -5z"/>
<path d="M19038 13514 c-57 -31 -77 -127 -37 -178 12 -15 56 -44 98 -65 87
-43 107 -72 80 -119 -31 -55 -112 -50 -148 9 -16 26 -18 26 -49 14 -38 -16
-38 -20 -12 -63 27 -44 98 -76 155 -70 90 11 136 55 143 141 4 47 1 57 -24 87
-17 19 -58 47 -99 65 -90 41 -104 57 -84 93 19 36 71 42 96 13 22 -26 31 -26
63 -1 l25 20 -37 35 c-33 31 -44 35 -90 35 -29 -1 -65 -7 -80 -16z"/>
<path d="M19535 13515 c-16 -9 -37 -23 -46 -31 -22 -20 -29 -18 -29 11 0 23
-4 25 -40 25 l-40 0 0 -365 0 -365 40 0 40 0 0 160 0 159 49 -31 c96 -59 196
-48 272 31 54 56 73 114 67 200 -5 77 -42 147 -97 186 -36 25 -53 30 -114 33
-52 2 -80 -2 -102 -13z m156 -78 c51 -33 82 -100 76 -163 -6 -64 -27 -106 -67
-134 -67 -48 -154 -33 -206 36 -26 33 -29 45 -29 110 0 58 4 78 21 101 54 73
139 94 205 50z"/>
<path d="M20074 13512 c-166 -78 -167 -363 -2 -448 72 -37 188 -24 233 26 25
28 35 25 35 -10 0 -28 2 -30 40 -30 l40 0 0 235 0 235 -40 0 c-38 0 -40 -2
-40 -30 l0 -31 -41 33 c-36 29 -49 33 -112 36 -55 2 -82 -2 -113 -16z m186
-71 c75 -40 104 -164 57 -245 -34 -59 -69 -81 -132 -81 -65 0 -100 23 -132 85
-43 83 -19 195 50 239 41 26 111 27 157 2z"/>
<path d="M20681 13504 c-30 -25 -31 -25 -31 -5 0 18 -6 21 -40 21 l-40 0 0
-235 0 -235 40 0 40 0 0 143 c1 167 9 214 46 246 22 19 35 22 65 17 35 -6 40
-4 55 25 20 39 9 49 -58 49 -36 0 -54 -6 -77 -26z"/>
<path d="M20972 13509 c-132 -65 -164 -276 -61 -393 92 -104 276 -97 357 13
28 39 28 47 -5 65 -26 13 -29 12 -69 -29 -94 -98 -225 -58 -258 78 l-6 27 185
0 185 0 0 28 c0 47 -29 129 -57 162 -59 71 -182 93 -271 49z m205 -92 c18 -20
33 -46 33 -57 0 -19 -6 -20 -136 -20 l-135 0 7 23 c21 66 71 99 143 94 47 -3
59 -9 88 -40z"/>
<path d="M21546 13505 c-34 -23 -36 -23 -36 -5 0 17 -7 20 -45 20 l-45 0 2
-232 3 -233 40 0 40 0 5 165 c3 106 10 173 18 187 34 60 114 72 163 24 l29
-29 0 -176 0 -176 40 0 40 0 0 183 c0 205 -7 233 -69 274 -49 33 -135 32 -185
-2z"/>
<path d="M22082 13517 c-131 -48 -191 -214 -126 -346 58 -116 209 -164 330
-105 37 18 39 22 42 69 3 47 3 49 -15 33 -28 -26 -105 -58 -139 -58 -83 0
-164 86 -164 174 0 55 36 125 79 153 57 38 157 29 209 -19 l22 -21 0 50 c0 50
-1 51 -40 67 -47 19 -150 20 -198 3z"/>
<path d="M22390 13515 c0 -3 47 -98 106 -210 l105 -204 -70 -147 c-39 -81 -71
-151 -71 -156 0 -5 19 -8 41 -6 l42 3 168 355 c92 195 168 358 169 363 0 4
-19 7 -43 7 l-43 0 -74 -165 c-41 -90 -75 -163 -76 -162 -2 1 -39 75 -83 165
l-81 162 -45 0 c-25 0 -45 -2 -45 -5z"/>
<path d="M15626 13350 c-56 -28 -83 -56 -102 -106 -23 -59 -15 -132 20 -184
l26 -40 -25 0 c-22 0 -25 -4 -25 -35 l0 -35 330 0 330 0 0 35 0 35 -147 0
-146 0 20 23 c34 37 46 69 47 127 2 119 -89 200 -223 200 -45 -1 -79 -7 -105
-20z m200 -75 c89 -58 80 -189 -16 -237 -67 -34 -165 -15 -207 41 -53 68 -23
168 62 207 37 18 127 12 161 -11z"/>
<path d="M15650 12847 c-48 -15 -113 -83 -128 -133 -18 -60 -14 -123 9 -174
27 -60 45 -79 104 -106 93 -44 185 -28 257 46 37 38 48 59 57 102 38 182 -120
322 -299 265z m185 -97 c74 -69 74 -161 1 -230 -39 -36 -140 -41 -191 -10 -90
56 -91 195 -2 251 47 30 155 23 192 -11z"/>
<path d="M18630 12585 l0 -205 -41 29 c-82 60 -199 50 -274 -23 -106 -101 -94
-308 21 -388 79 -56 202 -52 265 8 l29 28 0 -32 c0 -31 2 -32 40 -32 l40 0 0
410 0 410 -40 0 -40 0 0 -205z m-70 -234 c49 -35 70 -79 70 -145 0 -74 -22
-122 -70 -154 -29 -20 -45 -23 -92 -20 -63 5 -96 27 -125 82 -22 43 -20 135 3
182 39 76 147 104 214 55z"/>
<path d="M19432 12729 c-126 -22 -230 -101 -285 -217 -29 -61 -32 -75 -32
-167 0 -92 3 -106 32 -167 94 -198 327 -279 523 -181 54 28 55 29 58 76 2 26
1 47 -1 47 -3 0 -30 -16 -62 -35 -108 -65 -208 -67 -318 -8 -101 55 -147 141
-147 273 0 66 4 86 31 138 54 108 144 164 264 165 76 1 139 -21 203 -69 l33
-26 -3 53 c-3 51 -5 55 -43 76 -73 42 -167 57 -253 42z"/>
<path d="M22460 12525 c0 -85 0 -85 -26 -85 -23 0 -25 -3 -22 -37 2 -31 7 -39
26 -41 22 -3 22 -4 22 -198 l0 -194 45 0 45 0 0 194 0 195 38 3 c35 3 37 5 40
41 l3 37 -40 0 -41 0 0 85 0 85 -45 0 -45 0 0 -85z"/>
<path d="M14170 11550 l0 -910 180 0 180 0 0 44 0 45 58 -30 c114 -59 255 -75
377 -44 306 80 486 434 380 750 -30 90 -65 152 -121 214 -163 181 -431 228
-641 112 l-53 -29 -2 376 -3 377 -177 3 -178 2 0 -910z m685 -119 c50 -22 109
-86 125 -136 7 -20 10 -65 8 -99 -14 -226 -315 -290 -429 -91 -35 61 -39 146
-10 210 20 44 78 100 125 121 44 19 134 17 181 -5z"/>
<path d="M17268 12436 c-85 -30 -131 -85 -148 -176 -32 -166 69 -302 222 -302
49 0 68 5 109 31 l49 30 0 -24 c0 -22 4 -25 40 -25 l40 0 0 235 0 235 -40 0
c-38 0 -40 -2 -40 -31 l0 -31 -30 26 c-53 44 -132 57 -202 32z m148 -77 c61
-29 89 -78 89 -154 0 -104 -63 -175 -155 -175 -91 0 -150 68 -150 173 0 62 14
99 52 134 49 46 101 53 164 22z"/>
<path d="M17890 12434 c-19 -8 -42 -22 -52 -31 -17 -15 -18 -14 -18 10 0 25
-3 27 -40 27 l-40 0 0 -235 0 -235 40 0 40 0 0 150 c0 160 8 198 50 235 15 14
36 20 67 20 37 0 49 -5 69 -28 23 -27 24 -33 24 -203 l0 -174 45 0 45 0 0 158
c0 86 -5 177 -11 202 -22 97 -123 145 -219 104z"/>
<path d="M19983 12430 c-66 -26 -117 -83 -137 -151 -20 -65 -20 -93 -2 -153
40 -133 179 -199 326 -155 128 39 198 215 135 340 -59 116 -198 168 -322 119z
m146 -60 c71 -20 114 -85 114 -170 0 -69 -22 -112 -73 -146 -34 -23 -48 -26
-98 -22 -103 7 -152 64 -152 176 0 74 26 117 90 150 49 24 69 27 119 12z"/>
<path d="M20610 12439 c-14 -6 -35 -20 -47 -31 l-23 -21 0 26 c0 25 -3 27 -45
27 l-45 0 0 -235 0 -235 45 0 45 0 0 161 c0 146 2 165 21 195 27 44 83 63 129
44 53 -22 60 -50 60 -235 l0 -165 40 0 40 0 0 183 c0 157 -3 187 -18 217 -33
62 -133 96 -202 69z"/>
<path d="M21050 12432 c-40 -19 -70 -71 -70 -119 0 -45 43 -90 115 -123 75
-34 95 -53 95 -91 0 -40 -32 -69 -76 -69 -29 0 -44 7 -69 35 -31 32 -35 33
-64 22 -17 -6 -31 -14 -31 -18 0 -20 51 -77 85 -93 113 -56 237 11 239 129 1
60 -25 93 -111 135 -39 20 -78 42 -87 49 -24 20 -20 58 9 77 27 18 54 13 80
-16 16 -18 20 -18 46 -4 35 18 36 34 7 62 -48 44 -111 53 -168 24z"/>
<path d="M21509 12436 c-59 -21 -96 -53 -123 -108 -33 -66 -36 -180 -7 -243
37 -81 116 -128 211 -127 87 0 156 37 193 100 l18 31 -32 17 c-32 16 -32 16
-56 -15 -33 -42 -73 -61 -125 -61 -75 0 -133 50 -145 124 l-6 36 182 0 181 0
0 38 c0 21 -7 59 -15 84 -37 106 -164 164 -276 124z m148 -81 c25 -17 63 -72
63 -92 0 -10 -34 -13 -135 -13 -127 0 -135 1 -135 19 0 26 47 81 85 97 35 16
87 12 122 -11z"/>
<path d="M22080 12434 c-19 -8 -42 -22 -52 -31 -17 -15 -18 -14 -18 10 0 25
-3 27 -40 27 l-40 0 0 -235 0 -235 40 0 40 0 0 143 c0 159 8 203 46 238 38 35
104 34 141 -4 l28 -27 3 -175 4 -175 39 0 39 0 0 163 c0 89 -5 180 -11 202
-26 94 -126 139 -219 99z"/>
<path d="M12523 12419 c-82 -15 -151 -71 -178 -148 -32 -90 -13 -174 55 -241
74 -75 174 -91 269 -44 100 50 148 159 117 267 -35 119 -142 187 -263 166z"/>
<path d="M15516 12397 c-10 -40 -6 -71 14 -104 16 -27 17 -33 5 -33 -11 0 -15
-11 -15 -40 l0 -40 210 0 210 0 0 40 0 40 -145 0 c-111 0 -153 4 -175 15 -32
16 -46 51 -36 88 4 19 0 26 -28 40 -33 15 -34 15 -40 -6z"/>
<path d="M15520 12030 l0 -40 160 0 161 0 24 -26 c29 -31 33 -88 10 -121 -23
-33 -75 -43 -222 -43 l-133 0 0 -36 0 -35 169 3 c154 3 172 5 198 24 69 52 89
164 43 239 -39 63 -80 75 -257 75 l-153 0 0 -40z"/>
<path d="M12387 11793 c-4 -3 -7 -264 -7 -580 l0 -573 180 0 180 0 0 580 0
580 -173 0 c-96 0 -177 -3 -180 -7z"/>
<path d="M13308 11790 c-177 -31 -326 -144 -402 -303 -50 -105 -60 -149 -60
-272 0 -94 4 -121 27 -189 37 -105 70 -159 142 -231 102 -102 228 -155 370
-155 90 0 161 17 248 61 l57 29 0 -45 0 -45 180 0 180 0 0 580 0 580 -180 0
-180 0 0 -50 0 -50 -52 29 c-96 53 -233 79 -330 61z m226 -352 c25 -8 59 -31
86 -58 114 -114 85 -297 -60 -370 -51 -25 -95 -31 -150 -19 -127 27 -212 160
-180 280 37 136 167 207 304 167z"/>
<path d="M21540 11295 l0 -415 40 0 40 0 0 99 c0 63 4 102 11 107 7 4 35 -20
68 -57 135 -154 131 -151 185 -147 l48 3 -97 110 c-54 61 -107 120 -118 133
l-21 23 99 99 100 100 -55 0 -55 0 -82 -87 -82 -88 -1 268 0 267 -40 0 -40 0
0 -415z"/>
<path d="M15636 11625 c-171 -61 -165 -318 10 -375 19 -7 68 -10 108 -8 59 3
81 9 114 31 57 37 85 95 86 173 0 72 -33 139 -86 173 l-33 20 -15 -30 c-14
-29 -13 -31 17 -54 83 -65 65 -189 -34 -231 -18 -8 -37 -14 -43 -14 -6 0 -10
58 -10 165 l0 165 -37 0 c-21 -1 -55 -7 -77 -15z m54 -185 c0 -77 -4 -120 -10
-120 -39 0 -90 49 -102 98 -14 55 43 142 93 142 18 0 19 -8 19 -120z"/>
<path d="M17162 11263 l3 -378 40 0 40 0 3 188 2 187 125 0 125 0 0 40 0 40
-125 0 -125 0 0 110 0 110 130 0 130 0 0 40 0 40 -175 0 -175 0 2 -377z"/>
<path d="M20075 11215 c-37 -91 -71 -167 -74 -170 -4 -2 -36 65 -72 148 l-66
152 -46 3 -46 3 65 -143 c36 -79 87 -189 112 -245 26 -57 49 -103 52 -103 3 0
35 72 71 161 36 88 69 161 74 162 4 1 37 -71 74 -160 36 -90 68 -163 71 -163
4 0 209 433 228 482 2 4 -16 8 -41 8 l-45 0 -68 -155 c-37 -85 -71 -152 -75
-148 -4 5 -35 78 -70 163 -34 85 -65 159 -69 163 -4 4 -38 -67 -75 -158z"/>
<path d="M17728 11336 c-36 -24 -38 -24 -38 -6 0 17 -7 20 -40 20 l-40 0 0
-235 0 -235 40 0 40 0 0 148 c0 81 5 164 10 184 15 52 54 81 100 73 32 -5 37
-3 54 25 10 17 15 34 12 37 -3 3 -27 8 -53 10 -40 4 -55 0 -85 -21z"/>
<path d="M18025 11341 c-148 -67 -179 -307 -54 -415 85 -72 212 -74 286 -4
l23 21 0 -31 c0 -31 2 -32 40 -32 l40 0 0 235 0 235 -40 0 c-38 0 -40 -2 -40
-30 l0 -31 -22 22 c-54 51 -158 64 -233 30z m185 -74 c50 -33 73 -79 74 -146
0 -103 -53 -170 -143 -178 -95 -8 -161 62 -161 172 0 73 22 121 69 152 46 31
116 31 161 0z"/>
<path d="M18660 11353 c-8 -3 -25 -15 -37 -26 l-23 -20 0 21 c0 19 -6 22 -40
22 l-40 0 0 -235 0 -235 40 0 40 0 0 161 c0 174 9 214 54 238 37 20 86 10 110
-22 19 -26 21 -44 24 -203 l4 -174 39 0 39 0 0 160 c0 212 16 250 103 250 23
0 41 -8 58 -26 23 -25 24 -31 27 -205 l4 -179 40 0 40 0 -4 188 c-4 197 -9
223 -57 266 -23 21 -93 32 -145 22 -19 -4 -49 -20 -65 -36 -29 -30 -30 -30
-44 -10 -28 41 -113 63 -167 43z"/>
<path d="M19395 11341 c-49 -22 -98 -76 -116 -128 -19 -55 -17 -150 4 -205 63
-164 301 -186 407 -38 l21 30 -33 20 -32 19 -30 -36 c-50 -60 -117 -78 -182
-47 -42 20 -73 62 -81 109 l-6 35 182 0 181 0 0 33 c0 94 -57 187 -132 213
-50 19 -137 16 -183 -5z m181 -82 c27 -25 59 -78 51 -85 -2 -3 -66 -3 -141 -2
l-136 3 18 35 c9 19 33 45 52 58 46 31 118 27 156 -9z"/>
<path d="M20712 11334 c-188 -94 -169 -384 30 -450 63 -21 148 -15 205 14 145
74 174 287 55 400 -72 67 -196 83 -290 36z m198 -65 c52 -30 80 -83 80 -153 0
-65 -16 -103 -60 -139 -115 -98 -292 17 -264 171 21 117 143 178 244 121z"/>
<path d="M21316 11335 c-34 -23 -36 -23 -36 -5 0 17 -7 20 -40 20 l-40 0 2
-232 3 -233 36 -3 37 -3 4 169 c3 140 6 173 21 196 23 35 62 50 97 37 25 -8
29 -6 44 27 21 42 12 52 -50 52 -28 0 -53 -8 -78 -25z"/>
<path d="M15645 11071 c-140 -65 -178 -244 -76 -362 45 -53 100 -79 171 -79
157 0 270 144 227 291 -32 107 -113 169 -223 169 -36 0 -74 -8 -99 -19z"/>
<path d="M20065 9669 c-39 -11 -79 -54 -94 -101 -36 -111 66 -218 178 -188 48
13 96 65 105 114 15 77 -32 155 -105 176 -39 11 -43 11 -84 -1z"/>
<path d="M14580 9607 l0 -66 33 6 c88 16 92 105 4 120 l-37 6 0 -66z"/>
<path d="M16950 9605 l0 -65 28 6 c42 10 60 22 67 44 14 44 -20 80 -76 80 -17
0 -19 -7 -19 -65z"/>
<path d="M17650 9525 l0 -148 45 6 c92 13 138 61 138 142 0 81 -46 129 -138
142 l-45 6 0 -148z"/>
<path d="M19550 9525 l0 -148 43 5 c88 10 136 54 144 129 8 84 -45 145 -135
156 l-52 6 0 -148z"/>
<path d="M20500 9606 l0 -68 33 7 c43 10 67 32 67 65 0 34 -17 49 -64 57 l-36
6 0 -67z"/>
</g>
</svg>
