<?xml version="1.0" encoding="utf-8"?>
<!-- Generator: Adobe Illustrator 19.2.1, SVG Export Plug-In . SVG Version: 6.00 Build 0)  -->
<svg version="1.1" id="layer" xmlns="http://www.w3.org/2000/svg" xmlns:xlink="http://www.w3.org/1999/xlink" x="0px" y="0px"
	 viewBox="0 0 652 652" style="enable-background:new 0 0 652 652;" xml:space="preserve">
<style type="text/css">
	.st0{fill:#EE3124;}
</style>
<g>
	<path class="st0" d="M582.5,395.8c-21.2,0-38.5,17.2-38.5,38.5c0,21.3,17.2,38.5,38.5,38.5c21.2,0,38.5-17.2,38.5-38.5
		C621,413,603.7,395.8,582.5,395.8"/>
	<path class="st0" d="M59.4,176.9c-21.2,0-38.5,17.2-38.5,38.5c0,21.3,17.2,38.5,38.5,38.5c21.3,0,38.5-17.2,38.5-38.5
		C97.9,194.1,80.7,176.9,59.4,176.9"/>
	<rect x="29.9" y="280.4" width="59" height="190.9"/>
	<path d="M420.8,413.9c-21.2,0-38.5-17.2-38.5-38.5c0-21.2,17.2-38.5,38.5-38.5c21.3,0,38.5,17.2,38.5,38.5
		C459.3,396.7,442.1,413.9,420.8,413.9 M496,308.3c-16.1-17.2-38.7-27.9-63.4-27.9c-18.5,0-35.8,6-50.1,16.3v-125h-59v299.7h59
		v-16.6c14.3,10.3,31.6,16.3,50.1,16.3h0c24.7,0,47.3-10.7,63.4-27.9c16.2-17.2,26.3-41.2,26.3-67.4
		C522.3,349.5,512.2,325.4,496,308.3"/>
	<path d="M206.5,413.9c-21.2,0-38.5-17.2-38.5-38.5c0-21.2,17.2-38.5,38.5-38.5c21.3,0,38.5,17.2,38.5,38.5
		C245,396.7,227.8,413.9,206.5,413.9 M245.1,280.4v16.4c-14.3-10.4-31.7-16.5-50.3-16.5c-24.7,0-47.2,10.7-63.3,27.9
		c-16.2,17.2-26.3,41.2-26.2,67.4c0,26.2,10.1,50.3,26.2,67.4c16.1,17.2,38.7,28,63.3,27.9h0c18.6,0,35.9-6.1,50.2-16.4v16.7h59
		V280.4H245.1z"/>
</g>
</svg>
