<svg xmlns="http://www.w3.org/2000/svg" viewBox="0 0 100 58.53"><defs><style>.cls-1{fill:#003968;}</style></defs><title>RACER_ICO_logo</title><g id="Layer_2" data-name="Layer 2"><g id="Layer_1-2" data-name="Layer 1"><path class="cls-1" d="M3.82,5.05a5.12,5.12,0,0,1,10.23,0,5,5,0,0,1-5.12,5,5,5,0,0,1-5.11-5M.26,41.3H2.72a1.79,1.79,0,0,0,1.55-1.62V20.13c0-.71-.77-1.75-1.55-1.75H0V12.69H12.23c1,0,1.56,1,1.56,3.62V39.68A1.79,1.79,0,0,0,15.4,41.3h2.46v5.37H.26Z"/><path class="cls-1" d="M20.06,29.78c0-10.94,7.77-17.61,18.06-17.61A20.81,20.81,0,0,1,48.54,14.5v7.05H44.92a10,10,0,0,0-6.8-2.45c-4.92,0-8.48,3.62-8.48,10.74,0,7.31,3.37,10.42,8.22,10.42,4,0,6.15-1.36,7.58-2.72h3.23V44a19.88,19.88,0,0,1-11,3.1c-11.07,0-17.61-6.47-17.61-17.34"/><path class="cls-1" d="M77.15,29.9c0-7.37-3.17-11-7.76-11s-7.77,3.63-7.77,11,3.17,10.49,7.77,10.49,7.76-3.17,7.76-10.49M52,29.84c0-10.94,7.77-17.67,17.35-17.67S86.73,18.9,86.73,29.84,79,47.12,69.39,47.12,52,40.71,52,29.84"/><path class="cls-1" d="M89.39,41.88a5.31,5.31,0,1,1,5.3,5.18,5.23,5.23,0,0,1-5.3-5.18"/><path class="cls-1" d="M97.55,56.35c.09-.69.41-.92.83-.92s.71.22.74.92Zm.83-1.47a1.66,1.66,0,0,0-1.62,1.84,1.62,1.62,0,0,0,1.69,1.81h0a2.11,2.11,0,0,0,1.3-.37h0v-.54h-.29a1.39,1.39,0,0,1-.93.31c-.63,0-1-.27-1-1h2.33v0s0-.14,0-.24c0-1.15-.56-1.72-1.5-1.72m-2.29,2.73a1,1,0,0,1-.81.32c-.59,0-1-.39-1-1.22s.4-1.22,1-1.22a1,1,0,0,1,.74.27h.35v-.59h0a1.84,1.84,0,0,0-1.06-.29,1.71,1.71,0,0,0-1.76,1.83,1.65,1.65,0,0,0,1.72,1.82,1.83,1.83,0,0,0,1.14-.37h0V57.6h-.32Zm-4.85-3.9a.88.88,0,0,0-1,1v.25h-.42v.56h.42v3H91v-3h.71v-.56H91V54.7c0-.34.14-.4.44-.41h.27v-.5h0a1.53,1.53,0,0,0-.46-.07m1.36,1.22h-.42v3.56h.76v-3a1,1,0,0,0-.06-.44.29.29,0,0,0-.28-.12m0-1.16a.43.43,0,1,0,0,.86.43.43,0,1,0,0-.86m-3.42-.06a.88.88,0,0,0-1,1v.25h-.42v.56h.42v3h.76v-3h.71v-.56h-.71V54.7c0-.34.14-.4.43-.41h.34V53.8h0a1.57,1.57,0,0,0-.52-.08m-3.89,4.2c-.76,0-1.32-.55-1.32-1.77s.56-1.8,1.32-1.8,1.31.57,1.31,1.8S86,57.9,85.25,57.91m0-4.19a2.42,2.42,0,1,0,2.13,2.4,2.17,2.17,0,0,0-2.13-2.4M80.1,56.33c-.54-.09-.7-.19-.7-.43s.17-.4.61-.41a1.17,1.17,0,0,1,.77.24h.29v-.58h0a1.88,1.88,0,0,0-1-.25c-.77,0-1.28.37-1.28,1.05s.42.95,1.13,1,.69.2.69.47-.2.45-.68.46a1.28,1.28,0,0,1-.86-.3h-.28v.59h0a2,2,0,0,0,1.16.31c.92,0,1.37-.45,1.37-1.12s-.39-1-1.16-1.07m-1.95-2.61a.39.39,0,0,0-.41.39.35.35,0,0,0,.16.33c.1.07.15.07.15.14s-.1.18-.3.21h0v.41h.05a.85.85,0,0,0,.85-.94.48.48,0,0,0-.46-.54M77,54.9a1.33,1.33,0,0,0-1,.45c0-.32-.11-.42-.29-.42h-.46v3.56H76V55.93a1.52,1.52,0,0,1,1-.37h.2v-.63h0a.94.94,0,0,0-.2,0m-4.63,1.45c.09-.69.41-.92.83-.92s.72.22.74.92Zm.83-1.47a1.66,1.66,0,0,0-1.62,1.84,1.62,1.62,0,0,0,1.69,1.81h0a2.11,2.11,0,0,0,1.3-.37h0v-.54h-.28a1.42,1.42,0,0,1-.94.31c-.62,0-1-.27-1-1h2.33v0s0-.14,0-.24c0-1.15-.56-1.72-1.5-1.72m-3.11,0a2.21,2.21,0,0,0-1.29.45c0-.3-.12-.4-.29-.4H68v3.56h.76V55.86a1.94,1.94,0,0,1,1-.33c.33,0,.48.09.49.51v2.45H71V55.88c0-.78-.44-1-.93-1m-3.41,1.84c0,.83-.36,1.21-.93,1.21s-.92-.39-.92-1.21.37-1.24.92-1.25.93.42.93,1.25Zm-.93-1.84a1.83,1.83,0,1,0,1.7,1.84,1.69,1.69,0,0,0-1.7-1.84m-2.64,0h-.42v3.56h.76v-3a1,1,0,0,0-.06-.44.29.29,0,0,0-.28-.12m0-1.16a.43.43,0,1,0,.44.44.44.44,0,0,0-.44-.44m-2.13,2.56c-.55-.09-.7-.19-.7-.43s.17-.4.6-.41a1.2,1.2,0,0,1,.78.24h.28v-.58h0a1.87,1.87,0,0,0-1-.25c-.77,0-1.29.37-1.29,1.05s.42.95,1.13,1,.69.2.69.47-.2.45-.68.46a1.23,1.23,0,0,1-.85-.3h-.29v.59h0a2,2,0,0,0,1.15.31c.93,0,1.37-.45,1.37-1.12s-.39-1-1.15-1.07m-3,0c-.54-.09-.7-.19-.7-.43s.17-.4.61-.41a1.17,1.17,0,0,1,.77.24h.29v-.58l0,0a2,2,0,0,0-1-.24c-.78,0-1.29.37-1.29,1.05s.42.95,1.13,1,.69.2.69.47-.2.45-.68.46a1.23,1.23,0,0,1-.85-.3h-.29v.59h0a2,2,0,0,0,1.15.31c.92,0,1.37-.45,1.37-1.12s-.39-1-1.16-1.07m-2.39-2.56a.43.43,0,1,0,0,.86.43.43,0,1,0,0-.86m0,1.16h-.41v3.56h.75v-3a1,1,0,0,0-.05-.44c0-.09-.15-.12-.29-.12m-2.11,0a2.14,2.14,0,0,0-1.28.48.8.8,0,0,0-.81-.48,2.06,2.06,0,0,0-1.2.44c0-.29-.12-.39-.29-.39h-.47v3.56h.76V55.84a1.62,1.62,0,0,1,.89-.31c.3,0,.44.1.45.49v2.47h.75V55.84a1.74,1.74,0,0,1,.9-.31c.3,0,.44.1.45.49v2.47h.75V55.84a.85.85,0,0,0-.9-1m-5.74,0a2.14,2.14,0,0,0-1.28.48.79.79,0,0,0-.81-.48,2.06,2.06,0,0,0-1.2.44c0-.29-.12-.39-.29-.39h-.47v3.56h.76V55.84a1.62,1.62,0,0,1,.89-.31c.3,0,.44.1.45.49v2.47h.76V55.84a1.67,1.67,0,0,1,.89-.31c.31,0,.44.1.45.49v2.47h.75V55.84a.85.85,0,0,0-.9-1m-6.34,3c-.56,0-.92-.38-.92-1.21s.36-1.24.92-1.25.93.42.93,1.25-.36,1.21-.93,1.21m0-3a1.83,1.83,0,0,0,0,3.65,1.83,1.83,0,0,0,0-3.65M39,57.41a1.47,1.47,0,0,1-1.16.49c-.83,0-1.31-.58-1.31-1.8s.54-1.74,1.36-1.75a1.32,1.32,0,0,1,1,.38h.35v-.63h0a2.18,2.18,0,0,0-1.36-.38,2.16,2.16,0,0,0-2.16,2.4,2.12,2.12,0,0,0,2.1,2.41A2.18,2.18,0,0,0,39.27,58h0V57.4H39ZM32.7,54.88a2.23,2.23,0,0,0-1.29.45c0-.3-.11-.4-.29-.4h-.46v3.56h.76V55.85a2,2,0,0,1,1-.32c.32,0,.47.09.48.51v2.45h.76V55.88c0-.78-.43-1-.93-1m-3.4,1.84c0,.83-.36,1.21-.93,1.21s-.92-.38-.93-1.21.37-1.24.93-1.25S29.29,55.89,29.3,56.72Zm-.93-1.84a1.83,1.83,0,1,0,1.7,1.84,1.69,1.69,0,0,0-1.7-1.84m-2.68-1.11a.43.43,0,1,0,.44.44.44.44,0,0,0-.44-.44m0,1.16H25.3v3.56h.76v-3a1,1,0,0,0,0-.44.31.31,0,0,0-.29-.12M24,57.51v-2h.77v-.56H24V54H23.2v.94h-.42v.56h.42v2.1c0,.67.38.94,1,.94a2.49,2.49,0,0,0,.56-.07h0v-.51h-.35c-.34,0-.45-.08-.46-.43m-2.41.1a1,1,0,0,1-.76.37c-.36,0-.6-.16-.6-.57s.3-.54.76-.55a2.77,2.77,0,0,1,.6.06ZM21,54.88a2.76,2.76,0,0,0-1.27.3h0v.58H20a1.5,1.5,0,0,1,.92-.28c.45,0,.65.16.66.55v.41a2.63,2.63,0,0,0-.72-.09c-.79,0-1.38.36-1.38,1.1a1,1,0,0,0,1.12,1.08h0a1.32,1.32,0,0,0,1-.38.37.37,0,0,0,.43.34h.3V56c0-.78-.5-1.1-1.33-1.1m-3,0a2.09,2.09,0,0,0-1.27.48.81.81,0,0,0-.82-.48,2.06,2.06,0,0,0-1.2.44c0-.29-.12-.39-.29-.39h-.47v3.56h.76V55.84a1.65,1.65,0,0,1,.9-.31c.29,0,.43.1.44.49v2.47h.76V55.84a1.7,1.7,0,0,1,.89-.31c.31,0,.44.1.45.49v2.47h.75V55.84a.85.85,0,0,0-.9-1m-4.79,0a1.33,1.33,0,0,0-1,.45c0-.32-.11-.42-.29-.42h-.46v3.56h.76V55.93a1.47,1.47,0,0,1,1-.37h.2v-.63h0a.94.94,0,0,0-.2,0m-4,3c-.56,0-.92-.38-.93-1.21s.37-1.24.93-1.25.92.42.93,1.25-.36,1.21-.93,1.21m0-3a1.83,1.83,0,1,0,1.7,1.84,1.69,1.69,0,0,0-1.7-1.84M6.83,53.71a.89.89,0,0,0-1,1v.25H5.43v.56h.41v3H6.6v-3h.71v-.56H6.6V54.7c0-.34.15-.4.44-.41h.33V53.8h0a1.57,1.57,0,0,0-.52-.08M4,54.88a2.23,2.23,0,0,0-1.29.45c0-.3-.12-.4-.29-.4H2v3.56h.76V55.85a2,2,0,0,1,1-.32c.32,0,.47.09.48.51v2.45H5V55.88c0-.78-.44-1-.93-1M.29,58.49H1.1V53.76H.29Z"/></g></g></svg>