<?xml version="1.0" encoding="utf-8"?>
<!-- Generator: Adobe Illustrator 23.0.4, SVG Export Plug-In . SVG Version: 6.00 Build 0)  -->
<svg version="1.1" id="Layer_1" xmlns="http://www.w3.org/2000/svg" xmlns:xlink="http://www.w3.org/1999/xlink" x="0px" y="0px"
	 viewBox="0 0 226 34" style="enable-background:new 0 0 226 34;" xml:space="preserve">
<style type="text/css">
	.st0{fill:#1D1D1B;}
	.st1{fill:#7660EA;}
	.st2{fill:url(#SVGID_1_);}
	.st3{fill:#9096ED;}
	.st4{fill:#836AF0;}
	.st5{fill:url(#SVGID_2_);}
	.st6{fill:#793AAF;}
	.st7{fill:url(#SVGID_3_);}
	.st8{fill:url(#SVGID_4_);}
	.st9{fill:#67D4C3;}
	.st10{fill:url(#SVGID_5_);}
	.st11{fill:url(#SVGID_6_);}
	.st12{fill:url(#SVGID_7_);}
	.st13{fill:url(#SVGID_8_);}
	.st14{fill:#07775A;}
	.st15{fill:#64FFDC;}
	.st16{fill:#44BB54;}
	.st17{fill:url(#SVGID_9_);}
</style>
<g>
	<path class="st0" d="M43.34,21.06h4.78c0,2.12,1.75,3.14,3.69,3.14c1.78,0,3.53-0.94,3.53-2.57c0-1.7-2-2.17-4.37-2.72
		c-3.3-0.81-7.31-1.77-7.31-6.49c0-4.2,3.1-6.57,7.95-6.57c5.04,0,7.9,2.69,7.9,7.05H54.8c0-1.89-1.56-2.77-3.33-2.77
		c-1.54,0-3.09,0.65-3.09,2.09c0,1.54,1.9,2.01,4.22,2.56c3.34,0.84,7.53,1.89,7.53,6.79c0,4.73-3.77,7.03-8.3,7.03
		C46.8,28.59,43.34,25.77,43.34,21.06z"/>
	<path class="st0" d="M61.67,19.71c0-5.13,3.9-8.93,9.13-8.93c5.21,0,9.13,3.81,9.13,8.93c0,5.1-3.93,8.93-9.13,8.93
		C65.57,28.63,61.67,24.8,61.67,19.71z M75.3,19.71c0-2.74-1.87-4.63-4.5-4.63c-2.63,0-4.5,1.89-4.5,4.63c0,2.74,1.87,4.63,4.5,4.63
		C73.43,24.34,75.3,22.44,75.3,19.71z"/>
	<path class="st0" d="M81.79,21.02v-9.76h4.57v9.24c0,2.4,1.27,3.84,3.38,3.84c2.12,0,3.36-1.47,3.36-3.84v-9.24h4.57v9.76
		c0,4.56-3.15,7.61-7.93,7.61C84.97,28.63,81.79,25.58,81.79,21.02z"/>
	<path class="st0" d="M110.41,11.16v4.31h-1.98c-2.57,0-3.59,1.14-3.59,3.9v8.9h-4.57V11.26h2.93l0.81,2.07
		c1.2-1.49,2.73-2.16,4.9-2.16H110.41z"/>
	<path class="st0" d="M119.9,28.63c-5.08,0-8.97-3.91-8.97-8.98c0-5.06,3.86-8.88,9-8.88c4.38,0,7.77,2.77,8.59,6.93h-4.54
		c-0.74-1.66-2.26-2.64-4.08-2.64c-2.48,0-4.34,1.99-4.34,4.61c0,2.62,1.89,4.66,4.34,4.66c1.85,0,3.31-1.03,4.08-2.83h4.6
		C127.78,25.75,124.32,28.63,119.9,28.63L119.9,28.63z"/>
	<path class="st0" d="M147.88,20.99h-12.79c0.4,2.31,1.91,3.58,4.13,3.58c1.59,0,2.89-0.75,3.58-1.96h4.8
		c-1.23,3.68-4.46,6.03-8.39,6.03c-4.99,0-8.76-3.86-8.76-8.93c0-5.09,3.75-8.93,8.76-8.93c5.19,0,8.75,4,8.75,8.87
		C147.97,20.09,147.94,20.54,147.88,20.99z M135.21,17.87h8.19c-0.65-2.07-2.13-3.19-4.18-3.19
		C137.18,14.68,135.74,15.87,135.21,17.87z"/>
	<path class="st0" d="M158.95,10.78c5.09,0,8.85,3.81,8.85,8.93c0,5.12-3.76,8.95-8.85,8.95c-1.75,0-3.34-0.52-4.65-1.42v6.35h-4.57
		V11.26h3.02l0.78,1.54C154.97,11.52,156.84,10.78,158.95,10.78L158.95,10.78z M163.18,19.71c0-2.65-1.95-4.63-4.6-4.63
		c-2.65,0-4.61,1.98-4.61,4.63c0,2.65,1.95,4.63,4.61,4.63C161.23,24.34,163.18,22.36,163.18,19.71z"/>
	<path class="st0" d="M169.5,19.71c0-5.13,3.9-8.93,9.13-8.93c5.21,0,9.13,3.81,9.13,8.93c0,5.1-3.93,8.93-9.13,8.93
		C173.41,28.63,169.5,24.8,169.5,19.71z M183.14,19.71c0-2.74-1.87-4.63-4.5-4.63c-2.63,0-4.5,1.89-4.5,4.63
		c0,2.74,1.87,4.63,4.5,4.63C181.27,24.34,183.14,22.44,183.14,19.71z"/>
	<path class="st0" d="M189.7,11.26h4.57v17.02h-4.57V11.26z M189.71,4.88h4.55v3.84h-4.55V4.88z"/>
	<path class="st0" d="M212.99,17.91v10.36h-4.57v-9.62c0-2.55-0.97-3.79-2.95-3.79c-2.36,0-3.79,1.69-3.79,4.41v9h-4.57V11.26h3.14
		l0.89,2.09c1.28-1.52,3.3-2.49,5.6-2.49C210.58,10.86,212.99,13.64,212.99,17.91z"/>
	<path class="st0" d="M221.51,6.39v4.87h4.32v3.67h-4.24v6.7c0,1.63,0.94,2.57,2.6,2.57h1.74v4.07h-2.9c-3.72,0-6-2.28-6-6.03v-7.31
		h-3.51l0.45-0.5"/>
</g>
<rect x="6.99" y="12.9" transform="matrix(0.7071 0.7071 -0.7071 0.7071 14.9962 -2.7502)" class="st1" width="7.65" height="7.65"/>
<linearGradient id="SVGID_1_" gradientUnits="userSpaceOnUse" x1="-148.7817" y1="6434.3364" x2="-153.5382" y2="6427.4614" gradientTransform="matrix(-1 0 0 -1 -141.2153 6447.5684)">
	<stop  offset="0" style="stop-color:#411FC0"/>
	<stop  offset="1" style="stop-color:#9096FF"/>
	<stop  offset="1" style="stop-color:#000000"/>
</linearGradient>
<polyline class="st2" points="10.82,22.14 5.41,16.73 10.82,11.32 "/>
<rect x="1.58" y="7.49" transform="matrix(0.7071 0.7071 -0.7071 0.7071 9.5872 -0.5098)" class="st3" width="7.65" height="7.65"/>
<polyline class="st4" points="5.41,16.73 0,11.32 5.41,5.91 "/>
<linearGradient id="SVGID_2_" gradientUnits="userSpaceOnUse" x1="-144.4003" y1="6444.9814" x2="-138.952" y2="6437.9766" gradientTransform="matrix(-1 0 0 -1 -141.2153 6447.5684)">
	<stop  offset="0" style="stop-color:#793ADF"/>
	<stop  offset="1" style="stop-color:#411FC0"/>
	<stop  offset="1" style="stop-color:#9096FF"/>
</linearGradient>
<polyline class="st5" points="0,0.5 5.41,5.91 0,11.32 "/>
<path class="st6" d="M0,0.5"/>
<path class="st6" d="M0,11.32"/>
<rect x="1.58" y="18.31" transform="matrix(0.7071 0.7071 -0.7071 0.7071 17.2366 2.6587)" class="st3" width="7.65" height="7.65"/>
<linearGradient id="SVGID_3_" gradientUnits="userSpaceOnUse" x1="-146.8341" y1="6419.6182" x2="-142.8992" y2="6431.1201" gradientTransform="matrix(-1 0 0 -1 -141.2153 6447.5684)">
	<stop  offset="0" style="stop-color:#793ADF"/>
	<stop  offset="1" style="stop-color:#9096FF"/>
</linearGradient>
<polyline class="st7" points="5.41,27.54 0,22.14 5.41,16.73 "/>
<linearGradient id="SVGID_4_" gradientUnits="userSpaceOnUse" x1="-143.9198" y1="6436.0493" x2="-143.9198" y2="6436.0923" gradientTransform="matrix(-1 0 0 -1 -141.2153 6447.5684)">
	<stop  offset="0" style="stop-color:#793ADF"/>
	<stop  offset="1" style="stop-color:#411FC0"/>
	<stop  offset="1" style="stop-color:#9096FF"/>
</linearGradient>
<polyline class="st8" points="0,22.14 5.41,27.54 0,32.95 "/>
<path class="st6" d="M0,32.95"/>
<rect x="20.13" y="12.9" transform="matrix(-0.7071 0.7071 -0.7071 -0.7071 52.7227 11.6153)" class="st9" width="7.65" height="7.65"/>
<linearGradient id="SVGID_5_" gradientUnits="userSpaceOnUse" x1="-170.58" y1="6430.8413" x2="-165.1711" y2="6430.8413" gradientTransform="matrix(-1 0 0 -1 -141.2153 6447.5684)">
	<stop  offset="0" style="stop-color:#009145"/>
	<stop  offset="0.9992" style="stop-color:#04BC73"/>
</linearGradient>
<polyline class="st10" points="23.96,22.14 29.36,16.73 23.96,11.32 "/>
<linearGradient id="SVGID_6_" gradientUnits="userSpaceOnUse" x1="-172.5913" y1="6431.3013" x2="-168.1808" y2="6442.1543" gradientTransform="matrix(-1 0 0 -1 -141.2153 6447.5684)">
	<stop  offset="0" style="stop-color:#41FF6D"/>
	<stop  offset="0.9925" style="stop-color:#64FFDC"/>
	<stop  offset="1" style="stop-color:#9096FF"/>
	<stop  offset="1" style="stop-color:#000000"/>
</linearGradient>
<polygon class="st11" points="29.36,16.73 34.77,11.32 29.36,5.91 23.96,11.32 "/>
<linearGradient id="SVGID_7_" gradientUnits="userSpaceOnUse" x1="-175.3047" y1="6439.7832" x2="-170.505" y2="6436.1943" gradientTransform="matrix(-1 0 0 -1 -141.2153 6447.5684)">
	<stop  offset="0" style="stop-color:#009145"/>
	<stop  offset="0.9992" style="stop-color:#04BC73"/>
</linearGradient>
<polyline class="st12" points="29.36,16.73 34.77,11.32 29.36,5.91 "/>
<linearGradient id="SVGID_8_" gradientUnits="userSpaceOnUse" x1="-172.724" y1="6445.4097" x2="-178.2155" y2="6435.1616" gradientTransform="matrix(-1 0 0 -1 -141.2153 6447.5684)">
	<stop  offset="0" style="stop-color:#41FF6D"/>
	<stop  offset="0.9925" style="stop-color:#64FFDC"/>
	<stop  offset="1" style="stop-color:#9096FF"/>
	<stop  offset="1" style="stop-color:#000000"/>
</linearGradient>
<polyline class="st13" points="34.77,0.5 29.36,5.91 34.77,11.32 "/>
<path class="st14" d="M34.77,0.5"/>
<path class="st14" d="M34.77,11.32"/>
<rect x="25.54" y="18.31" transform="matrix(-0.7071 0.7071 -0.7071 -0.7071 65.781 17.0242)" class="st15" width="7.65" height="7.65"/>
<polyline class="st16" points="29.36,27.54 34.77,22.14 29.36,16.73 "/>
<linearGradient id="SVGID_9_" gradientUnits="userSpaceOnUse" x1="-175.989" y1="6420.0234" x2="-170.58" y2="6420.0234" gradientTransform="matrix(-1 0 0 -1 -141.2153 6447.5684)">
	<stop  offset="0" style="stop-color:#41FF6D"/>
	<stop  offset="0.9992" style="stop-color:#04BC73"/>
</linearGradient>
<polyline class="st17" points="34.77,22.14 29.36,27.54 34.77,32.95 "/>
<path class="st14" d="M34.77,22.14"/>
<path class="st14" d="M34.77,32.95"/>
</svg>
